<svg xmlns="http://www.w3.org/2000/svg" xmlns:xlink="http://www.w3.org/1999/xlink" width="180.101" height="179.458" viewBox="0 0 180.101 179.458">
  <defs>
    <clipPath id="clip-path">
      <path id="Path_19739" data-name="Path 19739" d="M0,1.735,1.727,8.589l30.764.072L34.22,0Z" fill="#ea4e51" clip-rule="evenodd"/>
    </clipPath>
    <clipPath id="clip-path-2">
      <path id="Path_19742" data-name="Path 19742" d="M16.191,0S.42,23.877,0,64.427l10.154.158S13.665,43.16,24.545,29.159Z" clip-rule="evenodd"/>
    </clipPath>
    <clipPath id="clip-path-3">
      <path id="Path_19745" data-name="Path 19745" d="M8.2,0S23.685,23.878,24.1,64.427l-9.969.158S10.682,43.16,0,29.159Z" fill="#ea4e51" clip-rule="evenodd"/>
    </clipPath>
    <clipPath id="clip-path-4">
      <path id="Path_19748" data-name="Path 19748" d="M10.483,139.895C4.061,126.259,0,96.724,0,74.363,0,33.321,13.681,0,30.532,0S61.065,33.321,61.065,74.363c0,22.36-4.061,51.894-10.482,65.531Z" fill="#f4f4f5" stroke="#000" stroke-width="1" clip-rule="evenodd"/>
    </clipPath>
  </defs>
  <g id="Group_2307" data-name="Group 2307" transform="translate(-1419 -328.936)">
    <g id="Group_2306" data-name="Group 2306" transform="translate(21 -0.948)">
      <g id="Group_2267" data-name="Group 2267" transform="translate(1489.155 335.197) rotate(81)">
        <g id="Group_2266" data-name="Group 2266" transform="translate(0 0)">
          <g id="Group_2260" data-name="Group 2260">
            <g id="Group_2259" data-name="Group 2259">
              <path id="Path_19732" data-name="Path 19732" d="M9.358,91.279c-.917,0-1.847-.048-2.762-.133a.069.069,0,0,1-.064-.069V91.07a.069.069,0,0,1,.076-.062c.912.083,1.837.128,2.751.132a.069.069,0,0,1,0,.139Zm3.9-.22A.069.069,0,0,1,13.184,91s0-.006,0-.009a.069.069,0,0,1,.061-.068c.905-.107,1.82-.255,2.718-.439a.071.071,0,0,1,.083.054.07.07,0,0,1-.054.082c-.9.185-1.821.333-2.73.44Zm-10.511-.5H2.727c-.893-.192-1.793-.426-2.678-.694a.074.074,0,0,1-.041-.034.068.068,0,0,1,0-.053.07.07,0,0,1,.086-.046c.881.267,1.778.5,2.667.691a.069.069,0,0,1,.053.082A.07.07,0,0,1,2.742,90.555Zm17.008-.944a.07.07,0,0,1-.066-.048.054.054,0,0,1,0-.022.071.071,0,0,1,.048-.066c.865-.286,1.733-.612,2.58-.969a.07.07,0,0,1,.091.037.069.069,0,0,1-.037.091c-.849.359-1.721.686-2.59.973A.065.065,0,0,1,19.75,89.611Zm6.1-2.687a.07.07,0,0,1-.061-.035.064.064,0,0,1-.008-.033.068.068,0,0,1,.035-.062c.8-.445,1.589-.927,2.355-1.434a.07.07,0,0,1,.1.019.069.069,0,0,1,.01.052.072.072,0,0,1-.03.044c-.768.508-1.563.993-2.364,1.44A.071.071,0,0,1,25.845,86.923Zm5.5-3.76a.067.067,0,0,1-.053-.026.066.066,0,0,1-.016-.044.069.069,0,0,1,.026-.053c.707-.584,1.4-1.2,2.059-1.832a.07.07,0,0,1,.118.052.069.069,0,0,1-.021.049c-.662.634-1.357,1.253-2.067,1.839A.067.067,0,0,1,31.342,83.163Zm4.734-4.685a.068.068,0,0,1-.045-.016.071.071,0,0,1-.025-.054.068.068,0,0,1,.016-.044c.593-.706,1.162-1.438,1.689-2.177a.071.071,0,0,1,.1-.016.069.069,0,0,1,.016.1c-.53.742-1.1,1.477-1.7,2.186A.069.069,0,0,1,36.076,78.479Zm3.77-5.487a.068.068,0,0,1-.069-.07.069.069,0,0,1,.008-.033c.446-.815.852-1.647,1.208-2.474a.071.071,0,0,1,.092-.036.069.069,0,0,1,.036.091c-.358.832-.767,1.669-1.214,2.486A.071.071,0,0,1,39.846,72.992Zm2.495-6.165a.046.046,0,0,1-.018,0,.069.069,0,0,1-.052-.067.084.084,0,0,1,0-.017,22.764,22.764,0,0,0,.545-2.7.07.07,0,0,1,.079-.059.07.07,0,0,1,.059.079,22.97,22.97,0,0,1-.548,2.712A.07.07,0,0,1,42.341,66.827Zm-9.527-3.921a4.922,4.922,0,0,1-1.266-.16c-.373-.1-.74-.206-1.093-.318A.069.069,0,0,1,30.5,62.3h0c.347.109.712.215,1.083.314a4.935,4.935,0,0,0,1.589.145.069.069,0,0,1,.009.138C33.059,62.9,32.935,62.906,32.814,62.906Zm4.039-1.213a.069.069,0,0,1-.061-.036.076.076,0,0,1-.009-.033.069.069,0,0,1,.036-.061,18.143,18.143,0,0,0,2.292-1.517.071.071,0,0,1,.1.013.069.069,0,0,1-.012.1,18.2,18.2,0,0,1-2.31,1.528A.071.071,0,0,1,36.853,61.692ZM26.893,60.9a.068.068,0,0,1-.035-.009,11.812,11.812,0,0,1-2.236-1.634.069.069,0,0,1-.022-.05.067.067,0,0,1,.019-.048.071.071,0,0,1,.1,0,11.673,11.673,0,0,0,2.21,1.614.069.069,0,0,1-.034.129Zm16.156-.67a.07.07,0,0,1-.069-.065,17.236,17.236,0,0,0-.381-2.72.067.067,0,0,1,.009-.052.066.066,0,0,1,.044-.031.07.07,0,0,1,.082.052,17.337,17.337,0,0,1,.385,2.742v0a.07.07,0,0,1-.066.07Zm-.981-2.658a.069.069,0,0,1-.049-.02A.066.066,0,0,1,42,57.5a.069.069,0,0,1,.019-.049c.62-.627,1.248-1.31,1.867-2.031a.071.071,0,0,1,.1-.007.07.07,0,0,1,.008.1c-.621.722-1.252,1.408-1.873,2.038A.071.071,0,0,1,42.068,57.57ZM22.552,56.044A.07.07,0,0,1,22.486,56a6.913,6.913,0,0,1-.343-2.157c0-.2.008-.4.024-.593a.07.07,0,0,1,.139.006v0c-.016.194-.024.39-.024.582a6.762,6.762,0,0,0,.337,2.114.07.07,0,0,1-.044.088A.08.08,0,0,1,22.552,56.044ZM41.36,53.829a.07.07,0,0,1-.062-.039,15.858,15.858,0,0,0-1.442-2.335.07.07,0,0,1-.013-.052.07.07,0,0,1,.125-.031,16.069,16.069,0,0,1,1.455,2.356.079.079,0,0,1,.008.031.072.072,0,0,1-.039.062A.067.067,0,0,1,41.36,53.829Zm5-1.359a.07.07,0,0,1-.041-.013.068.068,0,0,1-.016-.1c.533-.73,1.063-1.493,1.573-2.269a.07.07,0,0,1,.1-.019.069.069,0,0,1,.02.1c-.512.778-1.043,1.543-1.577,2.274A.07.07,0,0,1,46.361,52.47ZM23.5,49.664a.067.067,0,0,1-.037-.01.071.071,0,0,1-.032-.044.068.068,0,0,1,.01-.052,9.38,9.38,0,0,1,1.811-2.1.071.071,0,0,1,.1.007.075.075,0,0,1,.017.046.071.071,0,0,1-.024.052,9.256,9.256,0,0,0-1.785,2.069A.067.067,0,0,1,23.5,49.664Zm13.744-1.021a.07.07,0,0,1-.044-.016,20.363,20.363,0,0,0-2.209-1.637.069.069,0,0,1-.021-.1.071.071,0,0,1,.1-.021,20.433,20.433,0,0,1,2.224,1.647.073.073,0,0,1,.025.053.072.072,0,0,1-.017.045A.069.069,0,0,1,37.242,48.644Zm12.74-1.775a.07.07,0,0,1-.035-.009.071.071,0,0,1-.035-.06.065.065,0,0,1,.009-.035c.453-.792.9-1.607,1.32-2.424a.072.072,0,0,1,.094-.03.07.07,0,0,1,.03.094c-.423.818-.868,1.635-1.324,2.429A.068.068,0,0,1,49.982,46.868ZM28.706,45.747a.07.07,0,0,1-.018-.137,7.3,7.3,0,0,1,2.762-.2.069.069,0,0,1,.061.068.033.033,0,0,1,0,.009.069.069,0,0,1-.077.061v0a7.183,7.183,0,0,0-2.709.2A.053.053,0,0,1,28.706,45.747ZM53,40.918a.067.067,0,0,1-.028-.006.07.07,0,0,1-.041-.063.06.06,0,0,1,.006-.028c.374-.841.731-1.7,1.065-2.545a.07.07,0,0,1,.089-.039.068.068,0,0,1,.038.037.066.066,0,0,1,0,.054c-.334.85-.693,1.708-1.067,2.551A.069.069,0,0,1,53,40.918Zm2.376-6.229a.072.072,0,0,1-.021,0,.071.071,0,0,1-.048-.067.072.072,0,0,1,0-.02c.282-.885.542-1.776.773-2.648a.07.07,0,0,1,.086-.049.069.069,0,0,1,.049.085c-.232.876-.493,1.769-.776,2.656A.069.069,0,0,1,55.373,34.689ZM57,28.224h-.013a.069.069,0,0,1-.057-.069.086.086,0,0,1,0-.012c.166-.917.3-1.834.408-2.728a.069.069,0,0,1,.137.017c-.1.894-.242,1.815-.408,2.735A.07.07,0,0,1,57,28.224Zm.663-6.628a.069.069,0,0,1-.069-.069c0-.134,0-.262,0-.386,0-.8-.03-1.6-.088-2.369a.07.07,0,0,1,.139-.01c.058.772.088,1.573.088,2.379,0,.131,0,.261,0,.386A.071.071,0,0,1,57.663,21.6Zm-.65-6.62a.07.07,0,0,1-.069-.055,22.948,22.948,0,0,0-.756-2.645.07.07,0,0,1,.131-.046,23.179,23.179,0,0,1,.76,2.662.049.049,0,0,1,0,.015.07.07,0,0,1-.054.067ZM54.62,8.785a.071.071,0,0,1-.061-.035,19.173,19.173,0,0,0-1.552-2.266.07.07,0,0,1,.011-.1.071.071,0,0,1,.1.011A19.387,19.387,0,0,1,54.679,8.68a.066.066,0,0,1,.01.035.069.069,0,0,1-.035.06A.064.064,0,0,1,54.62,8.785ZM50.339,3.72a.068.068,0,0,1-.044-.016,21.32,21.32,0,0,0-2.216-1.627.069.069,0,0,1-.031-.044.066.066,0,0,1,.01-.052.071.071,0,0,1,.1-.021A21.537,21.537,0,0,1,50.384,3.6a.068.068,0,0,1,.025.054.073.073,0,0,1-.016.044A.069.069,0,0,1,50.339,3.72ZM44.671.261a.067.067,0,0,1-.028-.006L44.36.133A.07.07,0,0,1,44.323.1a.073.073,0,0,1,0-.053.07.07,0,0,1,.091-.037L44.7.127a.069.069,0,0,1,.042.065.072.072,0,0,1-.006.027A.07.07,0,0,1,44.671.261Z" fill="#3f3d56" stroke="#707070" stroke-width="0.5"/>
            </g>
          </g>
        </g>
      </g>
      <g id="Group_2293" data-name="Group 2293" transform="translate(1414 317.404)">
        <g id="Group_1973" data-name="Group 1973" transform="matrix(0.191, 0.982, -0.982, 0.191, 50.393, 141.661)">
          <path id="Path_19298" data-name="Path 19298" d="M0,14.329,16.429,0C45.308,15.553,41.65,43.546,41.65,43.546,9.05,44.7,0,14.329,0,14.329Z" transform="translate(0 0)" fill="#fff" stroke="#1a1818" stroke-linecap="round" stroke-linejoin="round" stroke-width="1"/>
          <path id="Path_19299" data-name="Path 19299" d="M11.274,0,0,9.834c4.513,6.814,13.509,17.1,27.6,19.151C27.6,28.984,26.83,13.515,11.274,0Z" transform="translate(2.571 2.253)" fill="#fff" stroke="#1a1818" stroke-linecap="round" stroke-linejoin="round" stroke-width="1"/>
          <path id="Path_19300" data-name="Path 19300" d="M14.424,14.993S13.434,7.932,6.831,0L0,5.958C3.47,9.7,8.31,13.52,14.424,14.993Z" transform="translate(4.813 4.172)" stroke="#1a1818" stroke-linecap="round" stroke-linejoin="round" stroke-width="1"/>
        </g>
        <g id="Group_2292" data-name="Group 2292" transform="translate(0 0)">
          <g id="Group_2291" data-name="Group 2291" transform="translate(109.584 0) rotate(39)">
            <g id="Group_2272" data-name="Group 2272" transform="translate(28.213 150.994)">
              <g id="Group_2271" data-name="Group 2271" transform="translate(0 0)">
                <path id="Path_19737" data-name="Path 19737" d="M0,1.735,1.727,8.589l30.764.072L34.22,0Z" fill-rule="evenodd"/>
              </g>
            </g>
            <g id="Group_2277" data-name="Group 2277" transform="translate(0 109.465)">
              <g id="Group_2276" data-name="Group 2276" transform="translate(0 0)">
                <path id="Path_19740" data-name="Path 19740" d="M16.191,0S.42,23.877,0,64.427l10.154.158S13.665,43.16,24.545,29.159Z" fill-rule="evenodd"/>
                <g id="Group_2275" data-name="Group 2275" clip-path="url(#clip-path-2)">
                  <g id="Group_2274" data-name="Group 2274" transform="translate(10.293 8.918)">
                    <g id="Group_2273" data-name="Group 2273" transform="translate(0 0)">
                      <path id="Path_19741" data-name="Path 19741" d="M.24,61.9S-2.452,25.712,10.2,6.1,25.346,20.43,25.346,20.43Z" fill="#292526" fill-rule="evenodd"/>
                    </g>
                  </g>
                </g>
              </g>
            </g>
            <g id="Group_2282" data-name="Group 2282" transform="translate(65.86 109.546)">
              <g id="Group_2281" data-name="Group 2281" transform="translate(0 0)">
                <path id="Path_19743" data-name="Path 19743" d="M8.2,0S23.685,23.878,24.1,64.427l-9.969.158S10.682,43.16,0,29.159Z" fill-rule="evenodd"/>
                <g id="Group_2280" data-name="Group 2280" clip-path="url(#clip-path-3)">
                  <g id="Group_2279" data-name="Group 2279" transform="translate(-10.892 8.918)">
                    <g id="Group_2278" data-name="Group 2278" transform="translate(0 0)">
                      <path id="Path_19744" data-name="Path 19744" d="M24.649,61.9s2.643-36.185-9.781-55.8S0,20.43,0,20.43Z" fill="#292526" fill-rule="evenodd"/>
                    </g>
                  </g>
                </g>
              </g>
            </g>
            <g id="Group_2289" data-name="Group 2289" transform="translate(14.261 12.846)">
              <g id="Group_2287" data-name="Group 2287" transform="translate(0.092 0.092)">
                <path id="Path_19746" data-name="Path 19746" d="M10.483,139.895C4.061,126.259,0,96.724,0,74.363,0,33.321,13.681,0,30.532,0S61.065,33.321,61.065,74.363c0,22.36-4.061,51.894-10.482,65.531Z" transform="translate(0 0)" fill="#fff" stroke="#000" stroke-width="1" fill-rule="evenodd"/>
                <g id="Group_2286" data-name="Group 2286" transform="translate(0 0)" clip-path="url(#clip-path-4)">
                  <g id="Group_2285" data-name="Group 2285" transform="translate(-4.96 110.576)">
                    <g id="Group_2284" data-name="Group 2284" transform="translate(0 0)">
                      <g id="Group_2283" data-name="Group 2283">
                        <path id="Path_19747" data-name="Path 19747" d="M36.528,12.383q-.626,0-1.267,0a89.062,89.062,0,0,1-24-3.582C8.485,7.985,6.222,7.176,4.582,6.536A2.765,2.765,0,0,1,.191,4.62L.017,3.073A2.765,2.765,0,0,1,3.97.277a64.288,64.288,0,0,0,8.974,3.252A83.458,83.458,0,0,0,35.3,6.849C49.352,6.942,57.885,5.5,70.411.914a2.765,2.765,0,0,1,1.9,5.192,98.953,98.953,0,0,1-17.984,4.988A104.624,104.624,0,0,1,36.528,12.383Z" stroke="#000" stroke-width="1"/>
                      </g>
                    </g>
                  </g>
                </g>
              </g>
              <g id="Group_2288" data-name="Group 2288" transform="translate(0 0)">
                <path id="Path_19749" data-name="Path 19749" d="M50.674,140.079h-40.1a.092.092,0,0,1-.083-.053c-3-6.371-5.72-16.855-7.657-29.519A249.963,249.963,0,0,1,0,74.456a169.676,169.676,0,0,1,2.4-28.95A114.086,114.086,0,0,1,8.954,21.848c2.809-6.842,6.081-12.216,9.724-15.973C22.46,1.977,26.48,0,30.625,0S38.788,1.977,42.57,5.875c3.643,3.756,6.915,9.13,9.725,15.973a114.123,114.123,0,0,1,6.552,23.658,169.728,169.728,0,0,1,2.4,28.95,249.993,249.993,0,0,1-2.834,36.051c-1.938,12.665-4.657,23.148-7.657,29.52A.092.092,0,0,1,50.674,140.079Zm-40.041-.184H50.616C57.4,125.428,61.064,95.4,61.064,74.456,61.064,33.5,47.409.184,30.625.184S.184,33.5.184,74.456C.184,95.4,3.846,125.428,10.633,139.895Z" fill="#292526"/>
              </g>
            </g>
            <g id="Group_2290" data-name="Group 2290" transform="translate(19.83 0)">
              <path id="Path_19750" data-name="Path 19750" d="M25.127,47.248A130.489,130.489,0,0,1,0,44.452C5.572,17.347,25.27,0,25.27,0S45.01,19.121,50.32,44.947A137.569,137.569,0,0,1,25.127,47.248Z" transform="translate(0 0)" fill-rule="evenodd"/>
            </g>
          </g>
          <g id="Ellipse_158" data-name="Ellipse 158" transform="translate(80.317 78.398)" fill="#fff" stroke="#000" stroke-width="1">
            <ellipse cx="13.787" cy="13.787" rx="13.787" ry="13.787" stroke="none"/>
            <ellipse cx="13.787" cy="13.787" rx="13.287" ry="13.287" fill="none"/>
          </g>
          <g id="Ellipse_159" data-name="Ellipse 159" transform="translate(86.543 84.625)" stroke="#000" stroke-width="1">
            <ellipse cx="7.561" cy="7.561" rx="7.561" ry="7.561" stroke="none"/>
            <ellipse cx="7.561" cy="7.561" rx="7.061" ry="7.061" fill="none"/>
          </g>
        </g>
      </g>
    </g>
    <circle id="Ellipse_160" data-name="Ellipse 160" cx="2" cy="2" r="2" transform="translate(1419 348.052)" fill="#292526"/>
  </g>
</svg>
