<svg xmlns="http://www.w3.org/2000/svg" width="102.983" height="86.287" viewBox="0 0 102.983 86.287">
  <g id="Group_2310" data-name="Group 2310" transform="translate(-907 -4246.197)">
    <g id="Group_2300" data-name="Group 2300" transform="translate(508.371 4135.501)">
      <path id="Path_19853" data-name="Path 19853" d="M457.593,175.819c-1.328,0-2.613.012-3.9,0-.619-.008-.624.511-.781.87-2.356,5.385-4.948,10.684-6.97,16.192-1.623,4.421-6.878,5.783-9.717,1.282a5.013,5.013,0,0,1-5.571,2.73c-3.1-.5-4.791-3.588-3.738-6.749,2-6.018,4.038-12.026,6.058-18.038,1.062-3.16,2.1-6.329,3.2-9.476.28-.8.3-1.106-.716-1.1q-9.538.06-19.077,0c-.863-.005-.974.3-.972,1.046q.034,16.382.015,32.765c0,1.623-.01,1.633-1.621,1.633q-3.288,0-6.575,0c-1.876,0-1.877,0-1.877-1.83q0-14.712,0-29.424c0-1.15-.027-2.3.011-3.449.018-.573-.185-.741-.742-.73-1.508.031-3.018.015-4.527.009-1.275,0-1.453-.172-1.456-1.407q-.01-4.042,0-8.083c0-1.23.185-1.405,1.46-1.405q13.418,0,26.837,0c1.355,0,1.354,0,.8-1.292q-3.743-8.748-7.485-17.5c-.576-1.347-.359-1.689,1.083-1.69,6.61,0,13.221.013,19.831-.019a1.5,1.5,0,0,1,1.606,1.083c1.718,4.1,3.487,8.175,5.22,12.267.233.551.443.841,1.167.722a13.265,13.265,0,0,1,2.8-.042c.654.033.912-.171,1.073-.838a33.341,33.341,0,0,1,4.221-10.529,13.487,13.487,0,0,1,4.681-4.67c.757-.419.24-.726.028-1.063a10.61,10.61,0,0,1,7.682-16.3,10.606,10.606,0,0,1,9.872,16.692c-.543.788-.446,1.075.21,1.677a9.612,9.612,0,0,1,3.351,7.632,68.75,68.75,0,0,1-1.839,12.44c-.31,1.43-.32,1.439,1.1,1.425,1-.009,2.261.3,2.93-.181s.744-1.776,1.043-2.726q1.745-5.538,3.465-11.083c.175-.561.323-1.22,1.119-.95.731.249.473.87.317,1.373q-1.926,6.213-3.873,12.42c-.106.338-.2.677-.308,1.019a2.195,2.195,0,0,0,1.191.125c3.988.009,7.976,0,11.964.007,1.241,0,1.418.185,1.421,1.446.005,2.694-.026,5.39.016,8.083.016,1.034-.39,1.42-1.407,1.381-1.363-.052-2.733.045-4.094-.032-.954-.055-1.259.191-1.255,1.212.043,10.059.026,20.119.026,30.178,0,.934-.026,1.869.007,2.8.033.917-.344,1.28-1.28,1.265-2.442-.042-4.886-.012-7.329-.015-1.4,0-1.468-.072-1.468-1.462q0-16.49.012-32.981c0-.68-.057-1.108-.9-.988-.494.071-.507.437-.609.762-.87,2.77-1.762,5.533-2.592,8.314a6.658,6.658,0,0,1-5.611,5.121c-.707.115-.647.377-.526.912,1.435,6.293,2.842,12.592,4.27,18.887.135.6.3,1.219-.489,1.386-.738.155-.84-.486-.961-1.022-1.413-6.26-2.852-12.515-4.216-18.786-.223-1.028-.61-1.344-1.668-1.324-3.735.073-7.473.06-11.208.005-.876-.013-1.209.211-1.4,1.1-1.386,6.34-2.839,12.666-4.272,19a5.252,5.252,0,0,1-.142.517.7.7,0,0,1-.818.536.679.679,0,0,1-.579-.876c.159-.882.347-1.759.545-2.633q1.876-8.288,3.761-16.574C457.477,176.545,457.52,176.226,457.593,175.819Zm32.183,19.6c.86.012,1.724-.029,2.578.052.876.083,1.074-.258,1.069-1.088-.032-6.2-.018-12.405-.018-18.608,0-4.41-.016-8.82.015-13.229.005-.742-.193-1.032-.96-.974-.891.067-1.79.037-2.686.049-.789-.012-1.583.034-2.363-.051-.923-.1-1.116.258-1.113,1.133.031,9.828.012,19.655.029,29.483,0,1.06-.48,2.49.22,3.085C487.274,195.889,488.671,195.448,489.776,195.42Zm-79.546,0c.86.01,1.726-.037,2.579.047.917.09,1.123-.257,1.121-1.137q-.045-15.814-.019-31.628a2.561,2.561,0,0,1,0-.323c.076-.6-.161-.836-.781-.8-.966.049-1.935.031-2.9.041-.86-.011-1.722.014-2.578-.046-.69-.048-.833.244-.831.874q.023,16.074,0,32.148c0,.629.143.924.833.876C408.508,195.412,409.37,195.436,410.23,195.424ZM466.056,113.7c-3.119,1.613-4.794,5.5-4.089,9.5,1.121,6.354,9.338,9.479,14.235,5.414a2.71,2.71,0,0,0,1.042-.741,9.135,9.135,0,0,0-3.825-15.3A8.155,8.155,0,0,0,466.056,113.7Zm10.134,36.874a15.69,15.69,0,0,1,1.931.056c.994.146,1.347-.274,1.544-1.217a89.423,89.423,0,0,0,1.89-11.955,8.3,8.3,0,0,0-2.561-6.9c-.651-.773-1.177-1.164-2.286-.39a10.39,10.39,0,0,1-11.919-.145c-1.624-1.123-1.659-1.123-3.229.165-.305.25-.6.516-.878.794-3.5,3.49-4.966,7.97-6.155,12.59-.186.724.314.569.669.57,3.878.008,7.755-.012,11.633.021a.99.99,0,0,0,1.114-.864c.475-1.616,1.021-3.21,1.509-4.822.178-.586.435-1.048,1.12-.8.654.234.481.774.324,1.271-.55,1.743-1.16,3.471-1.62,5.238a1.723,1.723,0,0,1-2.021,1.5c-5.78-.068-11.561-.041-17.341-.024-1.826.006-2.868.95-2.868,2.5,0,1.563,1.021,2.435,2.867,2.435q9.8,0,19.6,0C471.74,150.6,473.965,150.588,476.19,150.579Zm-38.62,42.3a2.892,2.892,0,0,0,1.9,2.289,3.349,3.349,0,0,0,4.57-1.991q4.684-10.63,9.276-21.3a1.713,1.713,0,0,1,1.84-1.238c4.7.045,9.409.03,14.113.011a5.163,5.163,0,0,0,4.264-2.118c1.414-1.835,1.689-4.069,2.253-6.208.175-.664-.067-.8-.67-.761-.787.047-1.579.022-2.369.028q-16.975-.015-33.949-.045c-.7,0-.813.394-.978.884q-4.725,14.078-9.458,28.153c-.717,2.137.1,4,2.012,4.668a3.558,3.558,0,0,0,4.662-2.285q3.989-10.11,7.965-20.225,1-2.553,2-5.11c.192-.489.513-.818,1.069-.638.515.167.583.573.4,1.046-.129.334-.241.676-.371,1.009q-4.175,10.673-8.352,21.345A3,3,0,0,0,437.57,192.878ZM495.8,160.014c1.215.018,2.43.023,3.644.06.52.016.679-.208.675-.7q-.024-3.273,0-6.547c0-.5-.162-.716-.679-.7-1.214.039-2.429.046-3.643.066-.43-.016-.86-.046-1.29-.046q-46.493,0-92.986,0a4.2,4.2,0,0,1-.538,0c-.649-.084-.878.167-.865.839.039,2.01.061,4.024-.008,6.033-.03.883.269,1.068,1.093,1.062,4.92-.035,9.84-.018,14.76-.018q34.156,0,68.312,0C488.115,160.055,491.956,160.029,495.8,160.014Zm-73.99-28.355c2.69,6.292,5.309,12.412,7.918,18.536.159.373.417.418.763.418,5.2-.006,10.4,0,15.707,0-1.051-1.98-1.018-3.779.569-5.381.258-.26.117-.522,0-.791q-2.628-6.123-5.243-12.252a.757.757,0,0,0-.807-.533C434.473,131.662,428.229,131.659,421.808,131.659Zm32.17,42.63c6.989,0,13.879.064,20.766-.04a4.428,4.428,0,0,0,4.173-3.1c1.051-2.933,1.908-5.936,2.853-8.907.156-.491.064-.724-.516-.7-.969.033-1.942.052-2.909-.007a.833.833,0,0,0-1.017.785c-.282,1.3-.563,2.6-.953,3.862-.965,3.126-3.042,6.186-8.064,6.027-4.2-.133-8.406-.013-12.609-.043-.639,0-1,.168-1.187.784C454.386,173.379,454.181,173.791,453.979,174.289Z" transform="translate(0 0)" fill="#101010" fill-rule="evenodd"/>
      <path id="Path_19854" data-name="Path 19854" d="M429.965,234.142q3.01,0,6.021,0c.563,0,1.167.047,1.135.8-.028.674-.6.7-1.122.7q-6.021,0-12.042,0c-.574,0-1.164-.048-1.134-.793.026-.665.594-.709,1.121-.709Z" transform="translate(-17.239 -87.958)" fill="#101010" fill-rule="evenodd"/>
      <path id="Path_19855" data-name="Path 19855" d="M745.183,331.793q0,2.69,0,5.381c0,.523-.03,1.075-.735,1.079-.689,0-.774-.534-.775-1.061q-.009-5.38,0-10.761c0-.542.1-1.067.76-1.079.682-.012.758.517.757,1.06Q745.179,329.1,745.183,331.793Z" transform="translate(-245.85 -152.947)" fill="#101010" fill-rule="evenodd"/>
      <path id="Path_19856" data-name="Path 19856" d="M745.2,378.909c-.055.625.123,1.4-.8,1.361-.8-.037-.719-.743-.717-1.3,0-.591-.1-1.331.812-1.3C745.355,377.7,745.13,378.431,745.2,378.909Z" transform="translate(-245.855 -190.223)" fill="#101010" fill-rule="evenodd"/>
      <path id="Path_19857" data-name="Path 19857" d="M407.985,235.633c-.533,0-1.082-.061-1.1-.731-.015-.746.583-.793,1.145-.793s1.169.041,1.146.789S408.535,235.629,407.985,235.633Z" transform="translate(-5.886 -87.935)" fill="#101010" fill-rule="evenodd"/>
      <path id="Path_19858" data-name="Path 19858" d="M499.458,262.7c-3.842.015-7.684.041-11.525.042q-34.156.006-68.312,0c-4.92,0-9.841-.018-14.76.018-.824.006-1.124-.179-1.093-1.062.069-2.009.047-4.023.008-6.033-.013-.672.216-.923.865-.839a4.2,4.2,0,0,0,.538,0q46.493,0,92.986,0c.43,0,.86.03,1.29.046Q499.457,258.789,499.458,262.7Z" transform="translate(-3.66 -102.686)" fill="#101010" fill-rule="evenodd"/>
      <path id="Path_19859" data-name="Path 19859" d="M510.641,318.911a3,3,0,0,1,.183-2.485q4.177-10.672,8.352-21.345c.131-.334.243-.675.371-1.009.182-.473.114-.879-.4-1.046-.555-.18-.877.15-1.069.638q-1,2.555-2,5.11Q512.1,308.888,508.111,319a3.558,3.558,0,0,1-4.662,2.285c-1.911-.673-2.729-2.531-2.012-4.668q4.721-14.079,9.458-28.153c.165-.49.283-.886.978-.884q16.975.049,33.949.045c-.626,3.716-3.2,6.575-7.491,6.486s-8.607.01-12.91-.044a1.443,1.443,0,0,0-1.569,1.083c-.779,1.921-1.615,3.82-2.441,5.722-2.152,4.952-4.335,9.89-6.456,14.855A4.858,4.858,0,0,1,510.641,318.911Zm-4.5-11.01a.9.9,0,0,0,.791,1c.654.172.986-.209,1.2-.78q1.709-4.628,3.434-9.25a1,1,0,0,0-.079-1.1c-.6-.732-1.484-.557-1.87.458-.966,2.539-1.887,5.1-2.82,7.648A7.652,7.652,0,0,0,506.137,307.9Zm-1.5,3.9c.026.652.346,1.052.981,1.043.94-.015,1.118-.741,1.195-1.477a.887.887,0,0,0-.956-1.037C504.931,310.327,504.807,311.117,504.64,311.8Z" transform="translate(-73.071 -126.034)" fill="#fff" fill-rule="evenodd"/>
      <path id="Path_19860" data-name="Path 19860" d="M596.193,196.462c-2.225.009-4.449.024-6.674.025q-9.8.005-19.6,0c-1.847,0-2.868-.872-2.867-2.435,0-1.546,1.042-2.491,2.868-2.5,5.781-.018,11.562-.044,17.341.024a1.723,1.723,0,0,0,2.021-1.5c.46-1.767,1.069-3.495,1.62-5.238.157-.5.33-1.037-.324-1.271-.685-.245-.942.217-1.12.8-.488,1.612-1.034,3.207-1.509,4.822a.99.99,0,0,1-1.114.864c-3.877-.032-7.755-.013-11.633-.021-.355,0-.855.154-.669-.57,1.19-4.62,2.659-9.1,6.155-12.59.279-.279.573-.544.878-.794,1.57-1.288,1.605-1.288,3.229-.165a10.39,10.39,0,0,0,11.92.145c1.109-.774,1.635-.384,2.286.39a16.349,16.349,0,0,1,.237,2.017,55,55,0,0,1-1.476,11.444C597.315,192.109,596.72,194.279,596.193,196.462Z" transform="translate(-120.003 -45.883)" fill="#fff" fill-rule="evenodd"/>
      <path id="Path_19861" data-name="Path 19861" d="M479.261,183.6c6.421,0,12.665,0,18.909-.007a.757.757,0,0,1,.807.533q2.6,6.133,5.243,12.252c.115.268.255.53,0,.791-1.587,1.6-1.62,3.4-.569,5.381-5.306,0-10.507,0-15.707,0-.346,0-.6-.044-.763-.418C484.57,196.011,481.951,189.891,479.261,183.6Z" transform="translate(-57.453 -51.94)" fill="#fff" fill-rule="evenodd"/>
      <path id="Path_19862" data-name="Path 19862" d="M632.8,136.075c-4.9,4.065-13.114.941-14.235-5.414-.705-4,.97-7.886,4.089-9.5.26.367.653.255.988.232a9,9,0,0,1,6.628,2.226,9.557,9.557,0,0,1,3.465,8.745C633.6,133.666,633.006,134.814,632.8,136.075Z" transform="translate(-156.594 -7.457)" fill="#fff" fill-rule="evenodd"/>
      <path id="Path_19863" data-name="Path 19863" d="M534.089,318.94a4.858,4.858,0,0,0,4.315-3.186c2.121-4.965,4.3-9.9,6.456-14.855.826-1.9,1.662-3.8,2.441-5.722a1.443,1.443,0,0,1,1.569-1.083c4.3.055,8.608-.045,12.91.044s6.864-2.771,7.491-6.486c.79-.006,1.582.019,2.369-.028.6-.036.846.1.67.761-.563,2.139-.839,4.373-2.253,6.208a5.163,5.163,0,0,1-4.264,2.118c-4.7.02-9.409.034-14.113-.011a1.713,1.713,0,0,0-1.84,1.238q-4.588,10.672-9.276,21.3a3.349,3.349,0,0,1-4.57,1.991A2.892,2.892,0,0,1,534.089,318.94Z" transform="translate(-96.519 -126.062)" fill="#fff" fill-rule="evenodd"/>
      <path id="Path_19864" data-name="Path 19864" d="M438.979,287.725c.968-.01,1.937.009,2.9-.041.62-.031.857.206.781.8a2.566,2.566,0,0,0,0,.323q0,15.814.019,31.628c0,.88-.2,1.227-1.121,1.137-.853-.084-1.719-.036-2.579-.047Q438.98,304.628,438.979,287.725Z" transform="translate(-28.751 -126.107)" fill="#101010" fill-rule="evenodd"/>
      <path id="Path_19865" data-name="Path 19865" d="M715.686,287.706c.9-.012,1.795.018,2.686-.049.768-.058.966.232.96.974-.031,4.409-.015,8.819-.015,13.229,0,6.2-.015,12.405.018,18.608,0,.831-.193,1.171-1.069,1.088-.854-.081-1.718-.04-2.578-.052Q715.687,304.605,715.686,287.706Z" transform="translate(-225.912 -126.084)" fill="#101010" fill-rule="evenodd"/>
      <path id="Path_19866" data-name="Path 19866" d="M430.529,287.706q0,16.9,0,33.806c-.86.012-1.721-.011-2.578.047-.689.047-.834-.247-.833-.877q.023-16.073,0-32.148c0-.63.141-.922.831-.874C428.807,287.72,429.67,287.695,430.529,287.706Z" transform="translate(-20.301 -126.088)" fill="#101010" fill-rule="evenodd"/>
      <path id="Path_19867" data-name="Path 19867" d="M706.744,287.677l0,33.8c-1.105.028-2.5.47-3.229-.148-.7-.594-.218-2.025-.22-3.085-.017-9.828,0-19.655-.029-29.483,0-.876.191-1.234,1.113-1.133C705.161,287.712,705.956,287.665,706.744,287.677Z" transform="translate(-216.97 -126.055)" fill="#101010" fill-rule="evenodd"/>
      <path id="Path_19868" data-name="Path 19868" d="M591.168,300.271c.2-.5.407-.91.538-1.345.184-.615.549-.789,1.187-.784,4.2.03,8.41-.091,12.609.043,5.022.16,7.1-2.9,8.064-6.027.39-1.265.671-2.567.953-3.862a.833.833,0,0,1,1.017-.785c.966.059,1.94.04,2.909.007.581-.02.672.214.516.7-.945,2.971-1.8,5.974-2.853,8.907a4.428,4.428,0,0,1-4.173,3.1C605.047,300.335,598.157,300.271,591.168,300.271Z" transform="translate(-137.189 -125.983)" fill="#fbfcfc" fill-rule="evenodd"/>
      <path id="Path_19869" data-name="Path 19869" d="M643.327,132.291c.209-1.26.8-2.408.934-3.71a9.557,9.557,0,0,0-3.465-8.746,9,9,0,0,0-6.628-2.226c-.335.023-.728.135-.988-.232a8.154,8.154,0,0,1,7.363-1.126,9.135,9.135,0,0,1,3.825,15.3A2.709,2.709,0,0,1,643.327,132.291Z" transform="translate(-167.125 -3.673)" fill="#fff" fill-rule="evenodd"/>
      <path id="Path_19870" data-name="Path 19870" d="M668.432,199.825c.527-2.184,1.122-4.353,1.566-6.553a55,55,0,0,0,1.476-11.444,16.348,16.348,0,0,0-.237-2.017,8.3,8.3,0,0,1,2.561,6.9,89.422,89.422,0,0,1-1.89,11.955c-.2.943-.55,1.363-1.544,1.217A15.691,15.691,0,0,0,668.432,199.825Z" transform="translate(-192.242 -49.246)" fill="#fff" fill-rule="evenodd"/>
      <path id="Path_19871" data-name="Path 19871" d="M736.633,262.7q0-3.911,0-7.822c1.214-.02,2.429-.028,3.643-.066.517-.017.682.2.679.7q-.024,3.273,0,6.547c0,.494-.155.718-.675.7C739.063,262.722,737.848,262.717,736.633,262.7Z" transform="translate(-240.835 -102.685)" fill="#101010" fill-rule="evenodd"/>
      <path id="Path_19872" data-name="Path 19872" d="M518.411,332.052a7.651,7.651,0,0,1,.653-2.026c.933-2.552,1.854-5.108,2.82-7.648.386-1.015,1.265-1.19,1.87-.458a1,1,0,0,1,.079,1.1q-1.723,4.623-3.434,9.25c-.211.571-.543.952-1.2.78A.9.9,0,0,1,518.411,332.052Z" transform="translate(-85.344 -150.184)" fill="#fbfcfc" fill-rule="evenodd"/>
      <path id="Path_19873" data-name="Path 19873" d="M513.216,368.185c.167-.683.291-1.473,1.22-1.472a.887.887,0,0,1,.956,1.038c-.076.736-.254,1.462-1.195,1.477C513.562,369.237,513.242,368.837,513.216,368.185Z" transform="translate(-81.647 -182.419)" fill="#fbfcfc" fill-rule="evenodd"/>
    </g>
  </g>
</svg>
