<svg xmlns="http://www.w3.org/2000/svg" width="388" height="390.163" viewBox="0 0 388 390.163">
  <g id="Group_241" data-name="Group 241" transform="matrix(0.978, 0.208, -0.208, 0.978, -202.126, -172.83)">
    <path id="Path_571" data-name="Path 571" d="M352.89,424.02c-.469.571-.938,1.138-1.493,1.809l-1-.732c-.9.586-1.775,1.155-3.107,2.024-.318.329,1.367,1.928-.73,2.226v-1.6c-1.915-.453-1.287,1.371-1.93,2.156-1.452.463-2.976.953-4.657,1.489-.369.506-.814,1.118-1.344,1.848a8.511,8.511,0,0,1-.908-.006c-1.563-.167-1.614-.084-2.126,1.45-.124.373-.718.594-1.444.551.21-.683.422-1.367.641-2.071-.9-.082-1.675-.149-2.721-.243.1.781.19,1.489.3,2.358-.432-.078-1.024-.186-1.873-.341.139.891.251,1.605.416,2.658l-3.05-1.118c-.377.537-.763,1.083-1.334,1.891-.861-1.348-1.546-2.419-2.205-3.454l1.189-1.3a16.382,16.382,0,0,1-2.65-2.166,12.817,12.817,0,0,1-1.3-2.935l3.152-4.837c-.3-.82-.551-1.991-2.1-1.677-.863.624-.118,2.395-1.767,2.426.61-1.269,1.261-2.527.936-4.015q-.257-.48-.514-.959a18.792,18.792,0,0,0,1.964-7.189,20.794,20.794,0,0,1,1.228-2.538,18.549,18.549,0,0,1,1.814-2.054c-.063-.092-.194-.281-.237-.347.508-.5,1-.969,1.7-1.658-.761-.424-1.283-.714-1.958-1.089.137-.5.341-1.271.555-2.071-1.681-1.834-1.4-4.106-1.163-7.025a37.788,37.788,0,0,1-3.821,3.729,34.114,34.114,0,0,1-4.429,2.362l-2.887-1.646c-1.055.957-2.142,1.948-3.386,3.078l2.648.543c.094.822.178,1.556.265,2.336l1.964-.159c.32,1.014.659,2.081,1.018,3.217l-2.044.192c.106-.83.21-1.624.335-2.587-.451-.057-.993-.122-1.618-.2-.175,1.224-.335,2.346-.514,3.6-.7-.1-1.246-.184-1.932-.284-.263.969-.518,1.911-.9,3.313-.21-1.789-.357-3.027-.528-4.488h-3.123l.053.055,2.45-1.53c.161-.659.339-1.377.571-2.326-1.21-.124-2.293-.233-3.443-.349.043.512.075.889.1,1.2l-5.334-3.17c.306-.626.7-1.434,1.093-2.242.842-1.685,2.073-3.158,2.287-5.336.481-.269,1.142-.641,1.714-.957.447-1,.859-1.915,1.456-3.243-.016-.055-.186-.608-.388-1.267,1.693-1.463,2.044-3.423,2.171-5.836l-3.274-1.359c.5,1.836,1.915,3.013.545,4.531-.645-1.379-1.265-2.7-1.885-4.029-.149.012-.3.024-.445.039-.116.459-.233.918-.4,1.589-1.2-.441-2.474-.91-3.8-1.4l1.864-2.7-1.171-.567c.341-1.663.689-3.36,1.11-5.422l1.681,1.33a17.7,17.7,0,0,0,.661-2.291c.086-.563-.155-1.171-.086-1.74.075-.636.247-1.748.526-1.8,1.738-.3,1.354-3.062,3.611-2.811-.151-.455-.275-.83-.349-1.055,1.416-3.05,2.8-6.03,4.29-9.233l-2.889-.19c-.18.418-.361.845-.543,1.269l-.269-.073.233-1.277-1.169-.335c.579-.775,1.175-1.569,1.9-2.529-.536-.247-.891-.412-1.1-.508-.133-.967-.255-1.84-.4-2.9l-1.612-.145c.2-.406.341-.685.479-.963.551.21,1.057.406,1.993.765-.494-.875-.759-1.346-1.059-1.877l1.693-.781c-.551-.532-.969-.938-1.4-1.354l-1.185,1.32-.73-1.809,1.983-1.189c.539-1.444-1.155-3.1.8-4.461l1.673,2.289c.3-.957.561-1.771.891-2.809-.226-.147-.683-.447-1.25-.814.19-.414.394-.863.645-1.414l1.63,1.208c.386-.339.72-.63,1.383-1.216-.224.947-.339,1.434-.532,2.248.745-.171,1.171-.269,1.316-.3.93.4,1.7.722,3.088,1.318-1.514-2.27.981-3.823-.261-6.224-.436,1.175-.675,1.816-.936,2.519-.4.025-.818.051-1.406.09.339-.579.612-1.047.889-1.518l-2.2-3.307c.267-.893.534-1.791.771-2.576.873-.7,1.663-1.328,2.452-1.956-.139-.1-.275-.192-.414-.286a29.934,29.934,0,0,1,2.43-4.586,25.328,25.328,0,0,0,3.082-4.578c.716-1.52,2.505-2.531,4.229-4.153.1-.4.355-1.379.677-2.625l.867-.239c.3-1.269.59-2.523.9-3.837l4.623-1.11c-.43-.453-.887-.928-1.442-1.508l.971-1.093-.816-1.177c.175-2.317,1.8-3.274,3.627-3.725.5-1.238.926-2.305,1.355-3.374.137.049.275.1.412.149v1.026c-1.438,2.321-1.4,2.77.42,4.773-.124.388-.251.777-.29.9.5.718.828,1.277,1.24,1.762a12.051,12.051,0,0,0,1.173,1.081c-.208.52-.416,1.042-.636,1.6l2.028,1.073h-2.666c-.569-.769-1.181-1.459-.657-2.682.259-.606-.41-1.2-1.31-1.077.061.6.118,1.146.175,1.7-.769.724-1.477,1.391-2.17,2.042.7,1.679,2.786,1.952,3.2,3.743l-1.187.241v-1.085c-.135-.047-.267-.1-.4-.145-.561.859-1.12,1.72-1.346,2.062.579,1.869.973,3.135,1.422,4.58-.553.412-1.1.818-1.918,1.43v-1.983l-3.082-2.878c-.045.073-.237.4-.506.857-.518-.645-.82-1.022-1.14-1.422l1.866-1.226-2.046-3.188a19.946,19.946,0,0,1-1.155,3.243c-.524.9-1.389,1.634-.165,2.738l1.049-.5c.716,1.01,1.444,2.038,2.144,3.027l1.6-.108c-.251,1.92-.473,3.609-.708,5.387,1.979.465,2.175-.738,2.144-2.083l1.23.159c.671-1.281,1.357-2.587,2.089-3.982,1.089-.449,2.372-.973,3.674-1.507-.4-.381-.745-.714-1.093-1.046.5-.6.94-1.122,1.426-1.7-.075-.889-.149-1.783-.243-2.915.626.239,1.157.441,1.822.692.249-1.14.455-2.079.622-2.846.742-.363,1.289-.628,2.03-.991-.728-.628-1.228-1.061-1.7-1.465-.685.422-1.23.757-1.95,1.2-.21-.991-.371-1.75-.53-2.507.192-.257.381-.516.551-.747.265.528.577,1.148.92,1.832.812-.159,1.446-.286,2.087-.414.218.41.436.816.863,1.614.437-1.12.734-1.881.906-2.323a18.516,18.516,0,0,0-.722-2.026,14.356,14.356,0,0,0-1.028-1.565c.453-.241.906-.479,1.355-.716.086.518.179,1.075.324,1.954l2.578-.263c1.824-2.821,3.47-5.365,5.365-8.3l-2.242.2c-.324-1.138-.626-2.195-.893-3.131-.755-.479-1.426-.9-2.105-1.336-1.383.922-1.255,2.175-.845,3.507-1.4,1.5-2.75,2.958-4.247,4.571.131.91.3,2.1.473,3.292-1.707-.1-.447,1.485-1.189,2.026-.647-.5-1.308-1-2.385-1.834-.228,1.214-.381,2.04-.539,2.868-.179-.235-.565-.559-.508-.687.485-1.091-.328-1.581-.969-2.052a4.551,4.551,0,0,1-1.887-3.146c.506.347,1.012.694,1.979,1.359-.359-2.47-.661-4.555-.945-6.505,1.548-2.35,3.056-4.641,4.739-7.195.475.59.71.879.985,1.22.3-.333.6-.661,1.173-1.289.084.8.128,1.226.188,1.8.43.118.887.243,1.379.379-.061.594-.114,1.153-.177,1.769,1.089.257,1.3-1.942,2.646-.206.208-1.24.314-1.881.418-2.491l-2.226-.851,2.874-3.033c-.281-1.161-.622-2.583-1-4.147l1.346-.381c.075.7.135,1.267.249,2.336.726-1.24,1.212-2.066,1.779-3.033-.349-1.23-.726-2.56-1.169-4.119.326-.551.826-1.4,1.326-2.244.061.022.118.047.179.069-.155.6-.312,1.21-.583,2.268l2.015-.869c.09.243.245.667.4,1.1,1.76-.718.563-1.842.355-2.611-.224-.824-1.008-1.5-1.828-2.617h2.719c-.506-1.758-.294-3.127,1.583-3.6.143-1.609,1.222-2.427,2.758-2.974-.137-.632-.253-1.169-.43-1.987,2.213-3.123,4.578-6.456,6.919-9.759.8-.086,1.467-.155,2.428-.257.061-.82.118-1.6.208-2.774.488-.789,1.242-2.011,2.009-3.25.526.312.842.5,1.187.708a11.711,11.711,0,0,1,2.011-4.292c1.618-2.485,4.288-3.77,5.879-6.124-.055-.6-.106-1.169-.167-1.846,1.02.634,1.92,1.191,2.854,1.773.449-1.042.787-1.832,1.136-2.642-.318-.447-.7-.991-1.112-1.565a4.582,4.582,0,0,1,.23-.7,23.268,23.268,0,0,1,6.681-8.427c1.079-.808,1.563-2.366,2.464-3.464,1.571-1.907,3.268-3.711,4.882-5.585.6-.694,1.112-1.459,1.714-2.26.308.43.716,1,1.373,1.922V205.08c.9.6,1.416.949,1.638,1.1l3.621-.741c-.194-.708-.388-1.41-.571-2.073l-1.171-.322a3,3,0,0,1,.414-.579c1.03-.849,2.268-1.369,2.636-2.968.3-1.3,1.53-1.626,2.991-.9-.1-.891-.175-1.575-.249-2.258l.279-.063,1.744,4.17c.192-1.208.32-2.011.471-2.966.741.261,1.442.508,2.146.753A2.715,2.715,0,0,0,413.726,201c.055,1.024-2.181,1.391-.867,2.9.284-.118.628-.147.716-.314.9-1.693,1.746-3.407,2.68-5.257l-1.038-.353c1.4-.51.153-1.677.824-2.342-.539-.2-.853-.312-1.261-.459v-2.921l1.944-1.136c.581-.965.32-2.823,2.323-2.326,1.293-2.995,2.54-3.892,4.659-3.252a5.746,5.746,0,0,1,5.544-4.733l1.593-2.113,4.478-1.7c1.507-.667,2.833-1.952,4.6-.463,1.2-.614,1.856-2.15,3.729-1.42.157.6.361,1.377.577,2.2l1.783-.7c-.094.412-.171.74-.267,1.157.485.259.987.526,1.642.873a7.64,7.64,0,0,0,.363-1.707c-.133-3.751.3-4.312,3.89-4.7l1.775-1.693c-.3-.681-.565-1.3-.834-1.909,1.124-2.093,1.124-2.093,2.366-2.248a32.2,32.2,0,0,1,2.405-3.855c2.411-2.864,4.971-5.606,7.438-8.429,3.2-3.658,6.3-7.4,9.561-11,1.6-1.762,3.47-3.272,5.19-4.924,1.012-.973,2.015-1.962,2.942-3.015a43.4,43.4,0,0,1,13.051-10.214,2.394,2.394,0,0,0,.855-.559c1.92-2.546,4.143-4.7,7.325-5.628v-1.475l.226-.024c.349.971.7,1.942,1.053,2.931.333-.834.657-1.644,1.126-2.829v4.284c.789.441,1.452.814,2.2,1.232.455,1.03.938,2.132,1.471,3.339,1.063-.557.675-1.155.369-1.9a9.411,9.411,0,0,1-.337-2.246c-.377-.139-.773-.282-1.257-.455.206-.608.41-1.208.6-1.758l1.42.106c-.057.408-.12.855-.2,1.44.518.041.924.073,1.308.1.239-.785.443-1.471.651-2.158.638,1.144.912,2.4,2.648,2.719-.147-1.338-.271-2.513-.4-3.651-.545-.071-.938-.124-1.33-.177.014-.116.029-.235.043-.353.573.071,1.146.141,1.683.206.18.53.324.951.443,1.3,1.006.086,2.46-1.561,2.772-2.97l1.118.985c.428-1.228.8-2.305,1.236-3.556l2.389-1.44,1.781,3.162H526.3c.273-.559.563-1.144.873-1.777.331.116.661.126.767.286a7.314,7.314,0,0,1,.867,4.559c-.057,1.516.037,3.039.067,4.755-.612.455-1.587,1.181-2.574,1.92-.343-.575-.706-1.179-1.326-2.217-.575,1.632-1.012,2.864-1.393,3.947-.357-.233-.973-.628-1.6-1.032l-2.226.777c.143,2.252,2.262.979,3.272,1.924-.047.614-.1,1.281-.171,2.191,1.108-.357,1.965-.632,2.946-.951-.067-.626-.122-1.155-.247-2.295,1.834,2.7,3.853,2.442,6.028,1.383.12-.322.265-.712.3-.794h5.267c-.541-.49-.734-.665-1.04-.945l.732-.369c.326.753.616,1.424.916,2.115H540.8c.231-.647.524-1.463.857-2.395-.428-.889-2.319-1.191-1.289-2.915l1.1-.124c.049.488.088.867.147,1.461l1.85-1.314c.351.681.671,1.3.991,1.918l.424-.078v-3.456c4.8,1.2,6.071,2.34,6.426,5.742l2.044.781c-.206.483-.4.942-.6,1.4.106.11.212.22.318.328.836-.453,1.667-.918,2.511-1.355.906-.467,1.832-.9,2.736-1.365a24.257,24.257,0,0,0,2.478-1.359,25.057,25.057,0,0,0,2.966-2.281c1.636-1.51,3.158-3.141,4.781-4.663q2.766-2.589,5.632-5.069c1.483-1.283,3.023-2.5,4.569-3.707a6.43,6.43,0,0,1,5.971-1.442c1.04,1.567,2.256,3.029,1.654,5a22.121,22.121,0,0,1-1.563,3.429c-.771,1.53-1.593,3.033-2.481,4.712,1.954.622,3.109,1.7,2.258,3.664.726,1.352,1.762,1.771,2.9,1.234a9.4,9.4,0,0,1,5.724-.757c1.585,1.82,2.95,3.388,4.429,5.09-.051.159-.2.622-.479,1.471l8.594-1.448c-.1.3-.237.683-.4,1.153l1.534.5c.645-.286,1.222-.541,1.858-.824v4.414l1.722-.177c-.08.826-.149,1.558-.214,2.226,1.75,1.055,2.613-1.769,4.576-.722-.61.557-1.057.963-1.5,1.367-.1,1.073-.192,2.154-.3,3.411l2.166.8c.031.636.065,1.281.122,2.417,1.059.59,2.326,1.4,3.678,2.022a5.671,5.671,0,0,1,3.247,4.835l3.688,1.571-1.869.791c-.18.985-.375,2.083-.606,3.35H625.7a21.206,21.206,0,0,1,.659,3.745,12.645,12.645,0,0,1-2.209,7.244,10.524,10.524,0,0,0-.828,2.066c-1.869-1.487-2.136-1.5-3.494-.233-.157-1.665-.3-3.258-.453-4.851,1.308.592,2.615,1.181,4.451,2.007-.906-2.572-2.566-3.686-4.117-5.006-.779,1-1.483,1.711-.661,2.723a4.137,4.137,0,0,0-.616,2.852c.039.292.006.6.006,1.528-1.016-.9-1.644-1.459-2.187-1.938.237-.92.43-1.685.639-2.491-.779-.738-1.452-1.373-2.215-2.095-.42.337-.736.59-1.1.885.437.355.812.663,1.4,1.142-.481.19-.8.318-1.365.543-.069.314-.19.871-.355,1.624l-1.773-.188c.082.545.161,1.065.243,1.6l-2.452-.261c.237.712.386,1.167.571,1.728l-.959,1.206c.277.159.528.3.749.432-.208.891-.416,1.771-.687,2.925.692.463,1.51,1.012,2.481,1.665-.137.616-.3,1.346-.494,2.217l1.23.561c.033.508.065.983.1,1.565.759.184,1.4.341,1.975.477.3.694.573,1.312.8,1.832-.186,1.2-1.493,2.144-.294,3.719-1.63,1.285-3.321,2.611-5,3.953a2.224,2.224,0,0,0-.681.734c-1.091,2.4-3.264,4.133-4.123,6.685a3.068,3.068,0,0,1-.9,1.238,22.553,22.553,0,0,0-5.673,8.08c-.037.08-.049.19-.11.233-2.332,1.624-3.417,4.257-5.134,6.377-2.332,2.872-4.5,5.879-6.783,8.79-1.183,1.508-2.468,2.931-3.713,4.39-.053.061-.184.065-.22.129a33.312,33.312,0,0,1-1.938,3.468c-.732,1.016-1.777,1.807-2.558,2.8-.265.335-.139.975-.214,1.687l2.185-.5c-.708,1.838-2.034,1.975-3.79,1.681v3.486c-.263.161-.749.463-1.373.849.779.449,1.483.857,1.954,1.126,1.875,1.532.622,4.18,2.276,5.383,1.82-.826,3.454-1.573,5.508-2.509-.318.761-.365,1.265-.632,1.446-1.659,1.138-1.632,2.813-1.591,4.531.033,1.377.006,2.756.006,4.28.5-.192,1.081-.408,1.652-.622,1.354,1.7-.086,2.587-1.079,3.651.184.736.367,1.475.634,2.538-2.262,2.181-3.525,5.175-4.963,8.135-1.426,2.927-3.709,5.438-5.8,8.394-.481.163-1.332.457-2.273.783.155.808.282,1.454.408,2.1a4.509,4.509,0,0,1-3.894,2.53c.459,3.072-2.018,4.692-3.452,6.875-1.554,2.364-3.035,4.775-4.588,7.229,1.791.557,2.942-1.279,4.81-.479-1.138.7-2.022,1.234-3.054,1.867,2.393,3.394-.19,5.283-1.966,7.189l-2.287-.21c.473.838.745,1.318.9,1.6a17.568,17.568,0,0,1-.471,2.181,13.363,13.363,0,0,1-.926,1.758l-2.274-1.093-.257.292c.259.359.724.708.74,1.079.065,1.216.687,2.4-.31,3.666-1.552,1.964-1.477,4.928-3.839,6.436-.742-1.116-.742-1.116-.106-2.982-.445-.12-.879-.241-1.522-.416-.014,1.83-1.067,3.439-.2,5.251-.565.3-.526,2.083-2.132,1.422.084-.265.169-.543.29-.934-.488-.467-1.014-.969-1.665-1.589l-1.075.908a7.947,7.947,0,0,0,3.313,4.076c-1.03.443-1.73.745-2.674,1.153a4.39,4.39,0,0,1-2.66,3.855c-.508,1.332-.851,2.234-1.214,3.19-1.3-.137-2.217-.231-3.337-.349-.149.488-.353,1.153-.634,2.062h1.954c.28,1.224-1.683,2.96-3.382,3.021a2.3,2.3,0,0,0-.179.7,7.472,7.472,0,0,0,.3,1.161c-2.817,2.87-4.68,6.864-8.623,9.312-.018.2-.065.685-.11,1.175-.163.151-.328.3-.49.449-.235-.622-.469-1.242-.7-1.867l-.583.2c-.286.62-.571,1.238-.983,2.134-1.012-.335-2.077-.689-3.346-1.112-.171.349-.426.855-.714,1.434.381.455.726.865,1.379,1.64l-1.84-.326c-.122-.555-.23-1.04-.347-1.559-1.767.4-.447,2.054-1.546,3.007H515.1c-.059.512-.114.975-.2,1.669-.712-.186-1.387-.363-2.448-.643.073,1.057.137,1.993.214,3.125-.573-.029-1.269-.059-1.962-.092-.628,4.094-5.212,5.461-6.375,9.367a20.693,20.693,0,0,0-6.962,7.55c-1.159,1.979-2.47,3.949-5.077,4.7l.93.8c-.434.647-.883,1.318-1.418,2.111-1-.808-1.828-1.475-2.923-2.358-.855,1.355-1.648,2.613-2.607,4.135.9.351,1.622.628,2.454.953-.618,1.13-1.273,2.321-1.72,3.139-1.518.292-2.707.518-4.233.814.479,1.112.83,1.926,1.293,3l-3.664,2.866c.016-.067-.1.4-.243,1.006l-3.982-2.782c-.118,1.3-.214,2.338-.318,3.464-.557-.422-1.159-.879-1.987-1.51-.118.7-.2,1.2-.294,1.724-1.932.392-2.03.522-1.622,2.334q-1.478.275-2.954.555c-1.342-.569-1.4-1.459-.7-2.7l2.15.547c2.215-1.687,2.536-2.321,3.152-6.234-.424-.2-.871-.412-1.4-.661-.273.247-.524.475-.818.745.43.851.794,1.571,1.452,2.874l-3.572-.706c.1-.765.2-1.45.29-2.136-.149-.088-.3-.175-.447-.261l-2.281,2.715v3.033l-.451.067-.749-1.556-1.742.718c.808,1.771,1.554,3.4,2.344,5.132-1.607.443-2.309-.718-3.125-1.377.118-.832.222-1.575.33-2.315l-.585-.233c-1.746,2.171-3.494,4.339-5.349,6.642.683.173,1.148.292,1.616.408-.031.373-.057.706-.1,1.183h-1.791l-.741-.944h-.441c-.771.708-.771.708.382,1.74.149.985.3,1.975.488,3.221a5.086,5.086,0,0,0-1.569-.361,7.732,7.732,0,0,0-1.856.855c.879.371,1.263.53,1.954.822V419l-3.317-1.226c-.2.055-.691.19-1.3.359-.112.661-.222,1.3-.359,2.1-2.521.608-5.026,1.21-7.854,1.893-.545-.341-1.363-.847-2.434-1.51,1.234-.743,2.9-.728,2.213-2.7-1.055.551-2.058,1.071-3.435,1.789-.067-1.316-.12-2.352-.188-3.653-1.028.594-1.813,1.049-2.607,1.5l-2.962-.83c.075,3.158-2.124,4.4-4.643,5.494-1.024-.7-2.126-1.465-3.594-2.476,1.132,1.677-.1,2.821-.306,4.288h-2.4c.251,1.289.469,2.425.71,3.666h-1.634c-.139.381-.3.834-.506,1.414-.412-.286-.8-.555-1.248-.869-.355.284-.726.585-1.189.957-.518-.3-1.022-.585-1.567-.9-.853,1.051-1.006,2.868-3.086,2.774-.4-.347-.914-.785-1.618-1.385-.135.6-.235,1.028-.355,1.554-.649-.139-1.371-.3-2.346-.506-.129-1.028-.269-2.144-.437-3.5l-1.762-.524c.114.859.208,1.558.326,2.442-.3-.21-.594-.3-.626-.453-.112-.532-.1-1.089-.208-1.624a12.853,12.853,0,0,0-.441-1.4c.559-.3.991-.528,1.428-.759-1.244-1.493-1.185-1.436.206-2.9a8.768,8.768,0,0,0,1.093-2.321c-.3-.794-.647-1.72-.946-2.511l-5.361.4c-.163.237-.481.7-1.114,1.626-.29-.734-.51-1.287-.73-1.842l-.565.249c-.184.5-.365,1-.551,1.505-1.485.792-2-.7-2.87-1.571-.853,1.85-1.577,3.429-2.3,5-1.493-.4-3.641.718-5.157,2.862H384.9c.233-1.475.449-2.848.7-4.416-2.056.72-3.872,1.359-5.842,2.05.186.771.332,1.379.524,2.171-.416.145-.779.273-1.373.481.188-.757.32-1.291.479-1.926-.379-.288-.763-.577-1.457-1.106-.441,1.383-.8,2.505-1.2,3.755-.112-.063-.506-.3-.906-.514-.369-.2-.747-.388-1.153-.594-.173-1.389.392-1.9,1.946-1.3.161-.806.32-1.6.483-2.405l-2.391-1.524c-.328.353-.773.828-1.063,1.138l-3.768-.832-2.3,1.893c-.161-1.083-.265-1.781-.418-2.8l-1.7-1.811c-.775.424-1.491.818-2.638,1.448l1.932.483c-.071,1.246-.135,2.334-.208,3.574-1.391-.959-.212-3.631-3.064-3.853.326.924.563,1.6.8,2.268-.188.337-.434.777-.873,1.559-.188-1.144-.345-2.1-.53-3.223l-1.946.5c-.108-.22-.33-.677-.563-1.155-.512.175-.9.308-1.267.434-.857-.663-1.7-1.316-2.493-1.924l-3.674,1.8c2.1,1.2,2.191,2.778,1.885,4.486Zm49.7-13.916c-.2,1.5.908,1.571,2.193,1.791.249,1.516.508,3.1.824,5.026,2.211-2.58-.224-4.573.182-6.648-.947-.328-1.738-.6-2.527-.877l3.784-2.835c-.477-.832-.832-1.448-1.187-2.069.624.563,1.246,1.128,1.752,1.583.388-.594.7-1.577,1.367-1.991,1.326-.824,1.75-2.287,2.756-3.315.282-.288.135-.993.2-1.681-.541.161-.936.179-.973.306-.8,2.7-3.609,3.211-5.324,4.9l-1.526,1.526v1.862A1.847,1.847,0,0,0,402.59,410.1Zm36.5.388-.947-.808c.059-.516.118-1.03.184-1.6-.789.226-1.359.39-1.85.528-.192.728-.373,1.4-.553,2.081-.108-.024-.218-.051-.326-.073V409.59l-.341-.239c-.381.763-.763,1.524-1.173,2.348,1.206.743-1.565,3.027,1.032,4.312.218-.669.41-1.261.69-2.12l3.107-.636c.257.5.512,1.008.634,1.25l3.378,1.222c.775-1.936-.614-2.652-1.76-3.462C440.659,409.9,441.265,410.169,439.088,410.491ZM334.392,339.2c.62-.243,1.236-.486,1.818-.712-.353-.769-.655-1.426-.775-1.687.775-1.25,1.312-2.115,1.687-2.719.08.039.3.149.522.257.324-.675.651-1.348.973-2.013.273-.175.6-.379,1.13-.722-.622-.243-.928-.363-1.232-.483.018-.1.039-.192.057-.29.761.137,1.522.273,2.54.459v-3.164l1.41.575c1.085-1.112,1.989-2.036,3.066-3.141l-1.13-.853c-1.652.806-3.647.481-5.02,2.552-1.051,1.585-3.337,2.34-2.685,4.627a20.71,20.71,0,0,1-1.626,1.915c-1.2,1.116-1.44,2.68-2.034,4.08-1.214,1.457-2.425,2.911-3.647,4.382l1.624,1.52c.6-.2,1.312-.43,2.062-.679.053-.382.1-.775.1-.716.7-.455,1.071-.691,1.44-.928-.779-.832.43-.624.541-1.075C334.957,340.02,334.675,339.61,334.392,339.2Zm43.887-84.422h1.714c.367-.624.663-1.128.985-1.679.386.685.655,1.161.922,1.636l.543-.141c.151-1.293.3-2.589.471-4.01.477.871.871,1.587,1.357,2.466.41-1.777.749-3.231,1.122-4.843q-.9-.217-1.764-.418c-.912-1.983-.912-1.983-2.17-2.462-.084,1.7-.165,3.356-.247,5.016l-.463.055c-.443-.963-.887-1.928-1.3-2.827-.965-.177-1.813-.335-2.766-.508-.151,1.081-.3,2.158-.457,3.272-.286-.069-.518-.126-.775-.188.243-1.277.479-2.513.714-3.747-.212-.063-.422-.131-.632-.194-.585,1.367-1.171,2.735-1.6,3.721.522,1.079.9,1.867,1.448,2.995l-3.062.722c-.451,1.273-.887,2.507-1.259,3.558-.951.1-1.565.155-2.7.269,1.1,1.016,1.822,1.681,2.474,2.281h2.907c-.42-1.014-.763-1.84-1.106-2.668l.388-.192c.288.251.575.5.9.794.186-.345.361-.675.6-1.12a21.962,21.962,0,0,0,1.765,6.071c.826-1.569,1.565-2.972,2.083-3.959l1.738-.3c-.657-1.185-1.236-2.236-1.82-3.284C378.287,254.988,378.283,254.884,378.278,254.78Zm-2.929,151.972c-.135.63-.228,1.073-.241,1.128l-5.179,3.184c.3.494.463.755.667,1.087-1.259,1.318-2.532,2.654-3.8,3.984.432,1.289.83,2.474,1.234,3.67h1.35c.343-.747.7-1.536,1.265-2.756.367,1.3.6,2.111.879,3.115l2.611-.787c-1.669-1.9.261-3.682-.557-5.518.434.167.7.312.73.273,1.446-1.756.979-4.37,2.691-6.02.092-.09.067-.3.108-.5C376.6,407.362,376.081,407.111,375.349,406.752ZM485.187,159.494c-.357,1.142-.394,2.223-.947,2.848a32.1,32.1,0,0,0-5.532,7.668c-1.5.194-.534,1.075-.785,1.846,2.387-1.1,7.409-7.419,9.023-11.132.051-.118-.041-.3-.088-.6C486.476,159.983,486.027,159.812,485.187,159.494ZM311.518,373.865v3.411c-1.885-.363-2.7.251-2.768,1.824.681.624,1.332,1.22,1.96,1.8.424-.216.832-.424,1.238-.636-.045-.728-.09-1.456-.1-1.6.747-2.179,3.45-2.221,3.258-4.584C313.925,373.285,312.832,372.626,311.518,373.865Zm99.515-159.923c.406-.692.732-1.242,1.1-1.869-.928-1.322-.508-3.262-2.326-4.306l-2.052.934,1.7,1.805c-.9.343-1.554.592-2.209.838.551,1.554.194,3.464,2.319,3.957-.167-1.181-.32-2.272-.475-3.362.184-.073.367-.149.551-.224Zm64.761,173.05c.967,1.481-.078,4.061,2.648,4.321l.33-1.428c.353.078.681.149.842.186.218.851.41,1.6.749,2.925.745-1.536,1.189-2.452,1.652-3.4-1.261-.471-2.352-.881-3.256-1.22-.375-1.012-.663-1.793-1.11-3-.385.9-.545,1.279-.714,1.675Zm-155.63-49.629c-.871,2.472-1.722,4.653-2.381,6.895-.224.767-1.418,1.809.3,2.609.243-.459.483-.879.692-1.314,1.463-3.066,1.6-6.7,4.031-9.353.082-.092.01-.324.01-.651l-.761-.129C321.191,336.312,320.557,336.96,320.165,337.362Zm39.156-71.5h-1.909c.059.838.106,1.5.165,2.319,1.024-.106,1.907-.2,2.893-.3v-1.612l1.248-.149c.12.643.2,1.079.406,2.142.645-1.153.957-1.711,1.261-2.256-.383-.681-.712-1.267-1.026-1.824C360.815,263.831,359.6,263.931,359.321,265.863ZM315.5,348.18c-.794,1.738-1.442,3.166-2.164,4.749l2.719.545c.628-.689,1.3-1.424,2.164-2.368C317.383,350.2,316.524,349.277,315.5,348.18ZM444.549,406.1c-.818-.541-1.84-1.214-3.037-2-.4.645-.718,1.155-.855,1.375.528.946.879,1.579,1.165,2.093-.386.655-.675,1.148-1.118,1.9.806.322,1.43.569,1.977.785C443.356,408.747,443.9,407.54,444.549,406.1Zm-22.1-198.009c.216-.114.432-.226.649-.339v-4.482l-1.559-.071c-.133-.875-.241-1.6-.379-2.511-1.616,1.862-.924,3.753-.885,5.9C421.492,206.273,422.371,206.6,422.445,208.087ZM345.715,320.08c.08,1.35-.636,2.638.318,3.927.9-1.605,1.973-2.919,2.362-4.412.4-1.514,2.76-1.824,2.122-4.272-1.04,1.634-3.013,1.885-3.184,3.835ZM359.907,282.9c-.708-.812-1.361-1.565-2.207-2.538-.518.184-1.128.4-2.081.732.889.738,1.385,1.153,1.932,1.605-.331,1.373-.647,2.689-.961,4,.139.061.277.12.416.184.455-.641.912-1.277,1.363-1.911.559-.141,1.1-.277,1.538-.386Zm65.73-83.331.4,0c.037-.883-.247-1.993.182-2.6.757-1.071.161-1.913.345-3.364-1.507,2.124-2.687,3.784-4.01,5.647.506,1.983.506,1.983,2.007,1.832V198.2l.375-.084Zm-69.159,91.119c-.188-1.067-.371-2.119-.592-3.372l-2.164-.769c-.33,1.175-.59,2.093-.847,3.011.42.665.84,1.328,1.242,1.966Zm35.442-55.706-2.368-1.008a23.355,23.355,0,0,1,.859,2.621,20.855,20.855,0,0,1,.2,2.556c.5-.024.991-.051,1.3-.067.441-.973.773-1.791,1.177-2.574a2.045,2.045,0,0,0-.432-2.709C392.4,234.21,392.2,234.524,391.919,234.981ZM326.705,329.2c.343-.384.663-.745.9-1l1.267.93c.147-.124.292-.245.439-.367-.455-.826-.914-1.652-1.41-2.55.5-.6,1.022-1.236,1.514-1.834l-1.012-2.232c-1.055,2.374-1.96,4.408-2.87,6.458C325.971,328.831,326.34,329.017,326.705,329.2ZM589.245,128.177c-.23,1.456-.432,2.731-.659,4.17.665-.286,1.028-.441,1.51-.649.72,1.208,1.408,2.352,2.146,3.584.435-2.168-.041-3.906-1.834-5.139.1-.659.2-1.267.306-1.966ZM414.52,207.938l2.323-3.345c-1.255.563-2.028.908-2.835,1.271-.569-.6-1.053-1.122-1.51-1.605-2.436,1.3-.184,2.389-.226,3.484C413.2,207.823,413.969,207.891,414.52,207.938ZM540.878,319.232c1.265,1.381,2.152,2.348,3.088,3.372l2.656-1.2C545.127,319.458,543.179,319.613,540.878,319.232ZM365.584,275.2l-2.179.965c-.106-.987-.206-1.926-.316-2.976-2.136.553-.265,2.391-1.389,3.164l2.364,1.983C364.491,277.328,366.588,277.234,365.584,275.2Zm59.07-81.927c.147.175.335.406.6.73.314-.618.565-1.116.632-1.25-.488-1.308-.847-2.264-1.2-3.2-1.764,1.544-1.189,3.529-1.138,5.422.186.049.371.1.557.145Zm7.1-1.936c.767-.545,1.387-.987,2.132-1.516-.124-.563-.263-1.183-.4-1.783-.887.112-1.589.2-2.334.292-.21.592-.428,1.2-.653,1.834C430.957,190.59,431.324,190.935,431.757,191.339ZM315.363,370.14c-1.224,2.682-3.339-.553-4.994,1.022l4.971,2.281C315.316,372.218,316.789,371.57,315.363,370.14Zm71.742-126.108-2.389.665,1.63,3.058c.239-.3.487-.612.579-.724h1.956C388.133,245.764,387.589,244.85,387.105,244.032Z" transform="translate(0.929 3.863)" fill="#ebd4b6"/>
    <path id="Path_572" data-name="Path 572" d="M312.977,261.152q.257.477.514.959h-2.358c.222,1.922.418,3.625.616,5.326.014.169.033.339.094.977-.812-.771-1.363-1.291-2.242-2.128.163-.006-.237.012-.749.037l-1.148-4.506,3.272.781c-.143-.5-.241-.845-.335-1.175Z" transform="translate(9.239 162.168)" fill="#ebd4b6"/>
    <path id="Path_573" data-name="Path 573" d="M409.912,106.125c1.13-1.5,2.678-.661,3.847-.849.712,1.34,1.324,2.495,2,3.768-.265.3-.657.745-1.048,1.187l-1.532-.565c-.245-.724-.488-1.446-.757-2.248-.8-.42-1.683-.881-2.56-1.342Z" transform="translate(115.474 0)" fill="#ebd4b6"/>
    <path id="Path_574" data-name="Path 574" d="M415.39,229c.785.1,1.438.184,2.2.284.422-1.228.855-2.476,1.338-3.872.928,2.642-1.228,4.437-1.707,6.77-.2-.3-.406-.6-.614-.908h-2.778C414.45,230.369,414.911,229.7,415.39,229Z" transform="translate(119.603 124.999)" fill="#ebd4b6"/>
    <path id="Path_575" data-name="Path 575" d="M309.789,269.905c-.133-1.077-.277-2.252-.437-3.537.522-.035.938-.059,1.7-.108.1,2.262,2.419,4.1,1.128,6.581-.23.029-.459.057-.69.088-.069-.753-.141-1.507-.224-2.411Z" transform="translate(10.952 167.48)" fill="#ebd4b6"/>
    <path id="Path_576" data-name="Path 576" d="M380.19,255.351c-.332.851-.634,1.618-.926,2.362.486.951.967,1.891,1.446,2.831-.151.1-.3.2-.453.308a7.611,7.611,0,0,1-1.452-1.681,3.725,3.725,0,0,1-.188-2.1,20.041,20.041,0,0,1,.951-2.813l1.981-.114c.11.767.214,1.514.381,2.676C381.251,256.244,380.825,255.885,380.19,255.351Z" transform="translate(82.911 154.881)" fill="#ebd4b6"/>
    <path id="Path_577" data-name="Path 577" d="M305.425,257.824c-.265,1.736-1.707,1.216-2.993,1.642.214-2.111-3.176-3.08-1.432-5.655.891,1.426,1.675,2.678,2.542,4.068h1.936Z" transform="translate(1.747 154.534)" fill="#ebd4b6"/>
    <path id="Path_578" data-name="Path 578" d="M443.833,165.992c-.159-.326-.335-.692-.541-1.114a23.3,23.3,0,0,1,6.624-3.629c-.545,2.517-3.06,1.563-3.864,3.15.1.355.226.808.359,1.273Z" transform="translate(150.239 58.277)" fill="#ebd4b6"/>
    <path id="Path_579" data-name="Path 579" d="M450.216,156.3l4.18-2.028c-.433,1.3-.72,2.17-.969,2.921-1.328.392-2.432.716-3.849,1.132C449.828,157.529,450.009,156.949,450.216,156.3Z" transform="translate(156.775 51.019)" fill="#ebd4b6"/>
    <path id="Path_580" data-name="Path 580" d="M411.248,105.634c.316.692.634,1.385.908,1.981-1.25-.188-1.371.8-1.089,2.436-1.067-.781-1.785-1.31-2.54-1.865.351-1.579,1.905-1.66,2.772-2.5Z" transform="translate(114.086 0.442)" fill="#ebd4b6"/>
    <path id="Path_581" data-name="Path 581" d="M409.553,110.986q.606-1.609,1.22-3.225l1.86.392C412.921,110.227,410.763,110.089,409.553,110.986Z" transform="translate(115.153 2.654)" fill="#ebd4b6"/>
    <path id="Path_582" data-name="Path 582" d="M407.624,238.9c.09.565.143.9.126.785-.92,1.322-1.634,2.352-2.47,3.558-.371-.453-.753-.916-1.3-1.581Z" transform="translate(109.363 139.027)" fill="#ebd4b6"/>
    <path id="Path_583" data-name="Path 583" d="M325.749,263.46c1.556.051,2.444.875,2.795,2.564-.575.333-1.189.69-1.8,1.042-.345-1.359-.639-2.519-.932-3.678Z" transform="translate(28.004 164.494)" fill="#ebd4b6"/>
    <path id="Path_584" data-name="Path 584" d="M299.389,257.313c-.122-.473-.3-1.169-.569-2.2.673.12,1.022.182,1.422.251l1.087-1.73v2.436c-.463.435-1,.932-1.532,1.434a2.03,2.03,0,0,0-.161.186C299.6,257.629,299.558,257.572,299.389,257.313Z" transform="translate(0 154.351)" fill="#ebd4b6"/>
    <path id="Path_585" data-name="Path 585" d="M301.555,231.815c1.279-1.532-.751-3.574.4-5.494.343,1.51.634,2.793.936,4.117-.243.485-.522,1.051-.812,1.614a.974.974,0,0,1-.165.192C301.867,232.182,301.816,232.122,301.555,231.815Z" transform="translate(2.844 125.947)" fill="#ebd4b6"/>
    <path id="Path_586" data-name="Path 586" d="M339.324,181.417c-1.165.647-1.106,1.773-1.183,2.882a1.326,1.326,0,0,1-.957,1.093v-5.62l2.128,1.33C339.316,181.207,339.32,181.311,339.324,181.417Z" transform="translate(39.895 77.541)" fill="#ebd4b6"/>
    <path id="Path_587" data-name="Path 587" d="M376.793,255.54c-.073.1-.145.212-.222.324-.073-.11-.147-.218-.218-.324Z" transform="translate(80.627 156.332)" fill="#ebd4b6"/>
  </g>
</svg>
