<svg xmlns="http://www.w3.org/2000/svg" width="265.699" height="10" viewBox="0 0 265.699 10">
  <path id="Path_1431" data-name="Path 1431" d="M452.969,190.771a.856.856,0,0,1,.164-.073c.041-.011.441,0,.84.023l.467-.087.206-.038c.206.018.6.033.875.033s1.226-.112,1.274-.106l0,.007.035.04a1.551,1.551,0,0,0,.678.022c.345-.033,1.68.024,2.109.032s1.64-.1,1.893-.1.909.067,1.111.074.759-.059.9-.07.495-.009.5-.059a8.374,8.374,0,0,1,1.033.034l.162-.021c.409-.054.464-.023.592.053l.1.058a2.376,2.376,0,0,1,.766-.088,12.008,12.008,0,0,0,1.262.013l.259-.037.237-.034c.245.007.584.021.755.031l.1.02c.173.034.284.08.457.114l.038.007c.169-.015.289-.053.267-.084a3.8,3.8,0,0,1,.865-.1l.312.054.077.013a4.574,4.574,0,0,0,1.03.008l.216-.024.126-.014c.181,0,.32.024.307.057l-.012.03-.008.018c-.011.02.112.036.273.034l.064-.015c.129-.03.181-.072.3-.1l.151-.04c.222.017.515.026.65.02a7.922,7.922,0,0,1,1.327.1l.663-.092a2.285,2.285,0,0,1,.438,0l.276.1c.374-.041.77-.1.88-.123a1.994,1.994,0,0,1,.625-.037,1.957,1.957,0,0,0,.758.08l.223-.012.385-.021c.458,0,.888-.01.956-.012s.471-.026.767-.041,1.389.078,1.5.047l.139-.019.125-.017c.181-.007.26.01.173.038l.02.022a1.072,1.072,0,0,0,.268.056l.246.037a.569.569,0,0,1,.183-.13,5.875,5.875,0,0,1,1.092-.057l.411.018.087,0c.086.025.123.045.083.044a.994.994,0,0,0-.294.124,9.333,9.333,0,0,1-1.251.053l-.024.013-.027.014a9.108,9.108,0,0,0,.992.153l.609-.06.257-.025c.323-.018.322-.051,0-.073s.066-.222.377-.252l.378,0c.692,0,1.4.036,2.092-.031a4.042,4.042,0,0,1,.778.039l.187.032a.387.387,0,0,0,.34.051,3.835,3.835,0,0,1,.917-.126,8.985,8.985,0,0,0,1.492-.086l.255.046.066.012c.065.014.248.064.4.112l.335-.043L494,190.4a1.215,1.215,0,0,1,.43.062c.029.029.207.106.276.059l.02-.023c.015-.017-.026-.038.008-.052a1.083,1.083,0,0,1,.52-.015c.53.069.124-.066.38-.067h.158a7.24,7.24,0,0,1,.885.012l.27-.051a1.957,1.957,0,0,1,.349-.016l.594.136a3.1,3.1,0,0,1,1.161-.1c.263.05,1.422,0,1.624.025s1.111-.052,1.561-.044l.381-.046.056-.007c.124.012.55.039.948.061l.64-.024.455-.017a.759.759,0,0,0,.5.057c.206-.032,1,.011,1.111.011s.53-.042.853-.07l.358.018.408.021a9.72,9.72,0,0,1,.973.009,1.386,1.386,0,0,0,.4-.008,4.564,4.564,0,0,1,.837-.073,4.682,4.682,0,0,0,.655.109c.194.012,1.02-.011,1.408-.045s1.436,0,1.647,0,.852-.041,1.024-.023.716.062.818.06l.054-.01.311-.056c.416.008.853.014.971.014s.632-.025.931-.032.971.011,1.012-.079l.587.079.1.014c.12.011.442.018.718.016s1.2.019,1.485-.014,1.227-.072,1.417-.072l.109.017a3.6,3.6,0,0,0,.789.078l.327-.006a3.227,3.227,0,0,1,.519-.1l.124,0,.377-.009c.4-.023.974-.059,1.283-.079l.222.079a2.356,2.356,0,0,0,1,.027l1.831-.05.535.011c.588.011,1.236.015,1.44.009s.688.066.718.031a.616.616,0,0,1,.434-.007c.186.059,1.442-.007,1.885,0s1.673-.057,1.785-.066l.038.006.724.116c.924-.02,1.754-.031,1.846-.023l.017,0a2.547,2.547,0,0,1,.934-.044l.215.022c.382-.03,1.008-.065,1.39-.078l.338,0,.475,0c.508.009,1.005.031,1.1.05a1.987,1.987,0,0,0,.447.037,3.028,3.028,0,0,1,.61-.081c.26-.009,1.118-.016,1.3.008l0,.024-.018.1c.347-.015.928-.047,1.291-.071l.366.046a3.351,3.351,0,0,0,.647,0,6.669,6.669,0,0,1,.987-.05l.328-.009.947-.06c.17-.012.681.056.955.047s1.12-.027,1.268-.027.5-.039.59-.022.768.116,1.317.184l.058-.193a4.043,4.043,0,0,1,.439,0l.761.061c.357-.025,1.273-.054,2.035-.064h.753a6.882,6.882,0,0,0,1.6.035l.745.009c.188,0,.157.07-.068.1l-.1.012c-.175.006-.2.022-.043.036a1.644,1.644,0,0,0,.579-.026.707.707,0,0,1,.518-.2c.285-.01,1.286.057,1.612.044h.306c.34,0,.718,0,1.01.031l.505.049c.475-.039,1.045-.091,1.265-.115a2.281,2.281,0,0,1,.614.1c.04,0,.259-.026.448-.051l.223.037c.338.056.537.052.574-.047l.01-.026a1.66,1.66,0,0,1,.6.026,11.111,11.111,0,0,0,1.3.009c.414-.006,1.635-.024,1.812-.018l.079-.046a2.429,2.429,0,0,1,.428-.008c.148.032.072.12.461.082l.153-.015a1.943,1.943,0,0,1,.933-.047l.428.041c.1.009,1.147-.015,1.225-.029.289-.053.571-.109.673.025l.006.009c.089.006.32.019.516.028s.777.029.844.013.277-.074.31-.084a5.274,5.274,0,0,1,.61-.062c.27-.012,1.022.039,1.057.027a3.03,3.03,0,0,1,.606,0,5.068,5.068,0,0,0,.851.077,3.881,3.881,0,0,1,.655-.047,1.653,1.653,0,0,0,.464.023.77.77,0,0,1,.453-.015l.191,0,.386.006a.859.859,0,0,0,.492.034,3.4,3.4,0,0,1,.623-.113,1.185,1.185,0,0,0,.418.043,5.334,5.334,0,0,1,.68-.028l.031.02a.8.8,0,0,0,.465.026,1.277,1.277,0,0,1,.848-.064l.3.039c.293-.018.825-.054,1.183-.079l.274.062a2.731,2.731,0,0,0,1.027.029,1.192,1.192,0,0,1,.228.019l.326.073c.121-.029.312-.079.425-.11h.535c.472.013.92.023,1,.022s.413-.026.606-.034.925.086,1.168.056a4.591,4.591,0,0,1,1.053-.012,13.781,13.781,0,0,0,1.456-.049c.41-.008,1.5.054,1.525.024a.359.359,0,0,1,.263-.081l.038.015.036.015a4.368,4.368,0,0,0,.664.041c.336.006,1.056.075.886.1s-2.441.04-2.912.06-.433.08-.14.06l.3.024.031,0c.085-.02.375-.061.644-.09a3.007,3.007,0,0,1,.76.144c.113.007.26-.057.247-.085l.034-.024c.133-.094.1-.075-.2-.1l-.374-.027c-.347.021-.684.046-.746.056l-.066.008-.353.043a8.785,8.785,0,0,1,1.419.043,12.116,12.116,0,0,0,1.46.048c.229-.013,1.055.022,1.265.006s.193-.119.127-.142a2.834,2.834,0,0,0-.56-.082c-.171,0-.423-.02-.18-.044s.9-.109.942-.126a4.263,4.263,0,0,1,.6,0c.072.012.392.089.54.128s.982.122,1.05.14.173-.06.141-.09l-.085-.008-.3-.029c-.326-.022-.518-.07-.425-.107l-.048-.013c-.119-.034-.178-.074.075-.057l.413.029c.457.013,1.061.039,1.344.057s1.457-.048,1.623-.062.535-.028.766-.047l.219.019c.037,0,.111,0,.13,0l.149.034a1.337,1.337,0,0,0,.5.023,4.045,4.045,0,0,1,.768,0c.209.022,1-.023,1.31.013l.263.039c.032,0-.1.046-.124.071l-.018.023c.028.027.134.01.236-.037s.769-.088.739-.1.062-.056.286-.058,1.137.065,1.512.095,1.465-.037,1.543-.033.255.029.217.044-.292.058-.423.076.2.182.775.2l.226-.1.18-.082c-.332-.107-.293-.205.086-.219l.112.019a2.555,2.555,0,0,0,.683.117c.007,0,.01.011.014.018.073.118.076.115.671.133l.3.009c.4.028.717.006.717-.047s.14-.182.311-.187l.044.008.224.042c.23.05.228.1,0,.109s-.172.141.008.146.679-.079.759-.061a3.045,3.045,0,0,0,.455.058l.05-.007.073-.01c.065-.014.222-.042.345-.061s.641.077.744.047a2.579,2.579,0,0,1,.664-.066c.185.019.79.048.915.035a1.976,1.976,0,0,1,.483-.036.941.941,0,0,0,.416.11l.1-.011.66-.071c.606.067,1.179.133,1.277.145a3.384,3.384,0,0,0,.406.03.638.638,0,0,0,.144-.1,3.95,3.95,0,0,1,.778,0c.154.013.568.006.583.03a3.961,3.961,0,0,0,.744-.043c.177-.031.946-.053,1.052-.074l.108-.019a2.006,2.006,0,0,1,.215-.025l.64.129a.944.944,0,0,1,.7-.166c.317.019.772.183.806.16a.8.8,0,0,1,.2-.088c.227.042.478.08.657.128.053.015-.116.056-.145.087l-.025.029c.014.033.159.063.319.066l.067-.012c.406-.076.585-.051.68.045l0,.006a1.161,1.161,0,0,0,.449-.053c.009-.026.013-.083-.131-.09s.082-.093.281-.1a1.339,1.339,0,0,1,.651.181l-.031.063a1.033,1.033,0,0,1-.374.064l-.546,0a3.726,3.726,0,0,0-1.046.035c.02.039.912.06,1.036.1a.433.433,0,0,1,.194.147c.033.028-.153.127-.317.172l-.174.037c-.213.045-.443.086-.669.129l-.02,0c-.041,0-.065-.041-.053-.094s-.4-.19-.578-.163-.637.116-.525.145l.086.015.108.019c.135.018.182.043.1.055s-.209.064-.115.086,1.9.076,1.771.087-.237.036.032.034a2.962,2.962,0,0,1,.578.12c.084,0,.283-.02.255-.033s.032-.041.2-.032l.153.009c.507.061.744.114.527.118a4.531,4.531,0,0,0-.836.079c0,.034.242.106.4.149a7,7,0,0,0,1.029.052,3.755,3.755,0,0,1,.657-.022c.222.019.724.03.574-.021s.567-.236.856-.323l.322,0,.47,0c.135-.062.264-.09.286-.061a.38.38,0,0,0,.285.084,2.579,2.579,0,0,1,.753-.032,9.637,9.637,0,0,0,1.272.108,10.781,10.781,0,0,1,1.464-.087l.471.027a1.1,1.1,0,0,1,.109-.041,1.645,1.645,0,0,1,.326-.053l.342.007a1.607,1.607,0,0,1-.331.148c-.1.03-.012.168.531.215l.285-.147a3.572,3.572,0,0,1,.647-.066,1.257,1.257,0,0,1,.348.046c.068.033.057.069.288.027a1.1,1.1,0,0,1,.528.007c.1.037.194.088.128.122a4.865,4.865,0,0,1-.552.164l-.185.056a4.3,4.3,0,0,0,.915.155c.361.029,1.114.043,1.383.043a12.044,12.044,0,0,1,1.508.195c.159.05,1.005.08,1.059.093s.045.116.011.221l.312.086.117.032c.072.044-.09.1-.358.128l-.187.04a.894.894,0,0,1-.5.035c-.037-.005-.062-.013-.1-.018l-.377-.054a.672.672,0,0,1-.469.038,7.832,7.832,0,0,0-1.231-.049c-.249.01-.937.066-.612.089s.94.11.819.154l.254.029.422.049a2.5,2.5,0,0,1,.549-.112,1.759,1.759,0,0,0,.428.063c.19.008-.038.133-.345.148l-.16.039-.178.043c-.152.075-.178.145-.057.157s.164.1-.147.162a5.723,5.723,0,0,0-.923.248c.1.007.294.057.163.092h-.116l-.238,0a1.4,1.4,0,0,0-.575.137l.263.05c.082.016-.325.3-.44.316l-.271.039a1.515,1.515,0,0,0-.544.132,4.161,4.161,0,0,1-.451.178l-.123.031-.275.069c.189.071.341.19.34.264l-.069.066-.1.095c.359.011.508.045.328.077a11.61,11.61,0,0,1-1.248.121l-.314,0-.467,0c-.349.064-.736.123-.86.131l-.012,0c-.275-.1-.551.042-.864,0-.259-.037-.6-.055-.932-.073l-.033,0a1.632,1.632,0,0,1-.705.05,8.019,8.019,0,0,0-1.046.055l-.019,0a5.442,5.442,0,0,0-.679-.019l-.406-.051a7.011,7.011,0,0,1-1.285-.008l-.371.066-.067.012c-.157-.006-.756-.044-1.332-.084l-.526.078-.086.013c-.161,0-.457,0-.658.007s-.876-.042-1.039-.053a7.79,7.79,0,0,0-.868.03c-.166.021-1.075-.006-1.45,0l-.351,0a3.514,3.514,0,0,1-.5-.016l-.25-.045c-.235.024-.744.065-1.133.09l-.35.026a1.4,1.4,0,0,0-.23.048l-.192.043a.9.9,0,0,0-.394-.063c-.12.011-.49.119-.483.209l-.025.085-.005.015c-.66,0-1.35.012-1.533.029l.093-.017.649-.116c-.008.1.131.176.313.166s.2-.121.188-.162a1.03,1.03,0,0,0-.383-.171,4.644,4.644,0,0,0-.731.093,5.717,5.717,0,0,0,1.715.269l.233-.044.265-.05a3.018,3.018,0,0,1,1.027-.109,5.726,5.726,0,0,0,1.116.049l.062-.037.024-.014a1.062,1.062,0,0,1,.36.019c-.03.013-.008.062.128.066a1.594,1.594,0,0,1,.442.054h-.019l-.379-.007c-.324.053-.374.11-.114.126l.09-.015.374-.063c.448,0,1,.016,1.222.032a7.4,7.4,0,0,0,.86-.076l.062.007.234.025a5.359,5.359,0,0,0,.869.02l.239.042c.073.013.293-.005.447-.008l.094,0c.1,0,.188.023.188.052v.06c0,.038-.159.118-.353.178l-.41,0-.437,0c-.608,0-.534.079.163.171l.735-.011.306,0a3.78,3.78,0,0,1,.657-.1l.078.013.234.04a.4.4,0,0,0,.294.209l.2-.009c.071,0,.157-.041.141-.06l-.013-.016a4.43,4.43,0,0,0-.632,0l-.271-.017c-.174-.011-.376.039-.751.016l-.505-.031a11.784,11.784,0,0,0-1.629.17l.3.066.077.017a7.082,7.082,0,0,0,1.129-.131l.628.053,1.045.133.458-.108c-.24-.079-.32-.179-.177-.222a2.589,2.589,0,0,1,.963-.057l.141.05c.056.02-.012.061-.088.084l-.1.031c-.119.12.053.208.382.2s.847.157.7.18-.579.12-.311.105,2.941-.088,3.351-.126-.142-.061-.692-.044l-.461.045-.137.013c-.176.005-.3,0-.267-.014s-.033-.062-.205-.077l-.029.007c-.187.042-.33.091-.5.136l-.13.034a4.245,4.245,0,0,0,.76.118,4.19,4.19,0,0,0,.893-.13c.075-.015.327.007.375.086l.51-.049.288-.027c-.632-.015-1.565-.055-2.074-.087s-.468-.139-.336-.17.493-.111.52-.108l.012.007c.072.045.069.118.215.131l.4.036a.289.289,0,0,1,.2-.161c.089-.021,1.276.026,2.1.064l.764-.085.262-.029c-.047.051,0,.108.111.126a1.943,1.943,0,0,0,.546.018,1.6,1.6,0,0,1,.683-.075c.329.021.058.208.214.243a11.26,11.26,0,0,0,1.871-.02l.685-.05.086-.007a2.132,2.132,0,0,0,.525.077c.066-.012.25-.05.268-.06h-.01l-.28-.038a8.171,8.171,0,0,0-.869-.066l-.154,0a2.738,2.738,0,0,1-.282,0c-.612-.071-.53.016-.546.085l0,.015c-.058.016-.115,0-.128-.038s-.6-.056-.679-.079l.02-.019a.891.891,0,0,1,.262-.037,7.219,7.219,0,0,1,1.025-.008l.048.009a2.717,2.717,0,0,1,.819-.031l.137.022.062.01c.209-.023.519-.059.688-.08a4.288,4.288,0,0,1,.84-.027,1.594,1.594,0,0,0,.376.128l.087-.005.518-.031a14.879,14.879,0,0,1,1.587-.023l0,.006c-.029.089.241.19-.229.267-.039.007.025.053.105.065a1.656,1.656,0,0,0,.344-.006c.145-.038.231-.085.356-.126l.073-.024a.447.447,0,0,1,.275.011,1.526,1.526,0,0,0,.418.125c.122.01.525-.006.628.012a2.3,2.3,0,0,0,.459.038.65.65,0,0,1,.313-.019,2.927,2.927,0,0,0,.935,0l.3-.044.018,0c.2.04.275.09.179.11s-.277.086-.126.091.576.043.517.072-.082.127.124.134.4.07-.113.126l-.411.051a1.222,1.222,0,0,0-.335.076c-.052.03-.05.076.041.1a2.466,2.466,0,0,0,.478.019l.287-.019c0-.058.074-.126.163-.15l.109-.01a4.782,4.782,0,0,1,1.327.119l.01.019c-.155.025-.456.069-.669.1a6.266,6.266,0,0,0-.7.153.756.756,0,0,1-.341-.039l-.168-.007-.147-.006c-.253.041-.349.09-.212.109s.606.185.595.308l.025.127.027.141a5.874,5.874,0,0,1-1.077.1.6.6,0,0,0-.342-.056c-.137.022-.064.144-.206.148s-.483.059-.3.105h.139c.234,0,.46-.038.7-.045.183-.005.5-.025.5.044,0,.036-.063.1-.183.105l-.418.032c-.433.018-.757-.052-.72-.156l-.653.027-.516.022c.212.093.19.172-.048.175a7.188,7.188,0,0,1-.943-.039.564.564,0,0,0-.373-.037,3.027,3.027,0,0,1-.685.1.5.5,0,0,0-.337-.083,9.117,9.117,0,0,1-1.392.091l-.362.043-.385.045c-.372-.006-1.01-.005-1.417,0l-.375,0h-.125c-.141.011-.6.006-1.021-.012s-1.6.043-1.7.032-.565-.025-.808-.03-.865.007-1.051-.02-.957.089-1.32.122l-.064-.123-.022-.04-.769.072a2.538,2.538,0,0,1-.579.036,10.908,10.908,0,0,0-1.123.015c-.226.006-.888-.02-1.023-.032a3.919,3.919,0,0,0-.611.068,5.159,5.159,0,0,1-.605-.022,10.391,10.391,0,0,0-1.044.048c-.354.036-1.628-.063-2.011-.069s-1.368.107-1.535.113a8.423,8.423,0,0,0-1.049.041l-.457-.069c-.2-.029-.675.019-1.026.018-.292,0-.583-.027-.876-.029-.217,0-.441.018-.657.031l-.5.03c-.03-.071-.029-.092,0-.045s-.8-.007-1.093.017l-.262,0-1.089-.021c-1.2-.015-2.53-.022-2.952-.016s-1.577.068-1.663.077-.5.022-.9.035l-.109-.025a5.694,5.694,0,0,0-.963-.02l-.4-.041c-.417.01-.942.008-1.166,0s-1.143.069-1.655.084l-.492-.057-.278-.033c-.472.025-.993.034-1.157.02s-.564.028-.658,0a3.062,3.062,0,0,0-.724-.05c-.207.024-.962.086-1.168.09s-.766-.02-.93-.037-1.094.047-1.65.075-2.119-.043-2.241-.019a6.7,6.7,0,0,1-.754-.042c-.127-.006-.463.015-.516,0a.786.786,0,0,0-.293-.033,2.292,2.292,0,0,1-.649.02c-.251-.032-1.123.052-1.332.057l-.123-.017a4.657,4.657,0,0,0-1.305,0c-.392.052-.808-.075-1.062-.038a5.1,5.1,0,0,1-1.108.037,3.109,3.109,0,0,0-.6,0c-.149.009-.512-.034-.528-.028-.2.075-.436-.03-.59,0a.888.888,0,0,1-.4,0l-.33-.045c-.422.014-1.321.041-2,.061s-3.012,0-3.3.017h-.266l-.766,0c-.837-.005-1.684.012-1.879.039s-1.2-.021-1.613-.037l-.387,0c-.449,0-.9,0-1.351,0h-.291a1.022,1.022,0,0,0-.285-.078c-.05,0-.293.017-.431.036a4.306,4.306,0,0,1-.71.05c-.145-.02-1.106.034-1.784.029s-2.653-.046-2.9-.054-1,.041-1.182.012-1.04.039-1.275.044-1.113.019-1.415.027-1.187-.055-1.4-.04-1.021.017-1.239,0-1.252.014-1.7.01l-.428-.025-.342-.02c-.556.034-1.6.062-2.322.062s-3.056.015-3.6.035l-.16-.135-.013-.01a1.993,1.993,0,0,0-.584.036c.047.018,0,.072-.225.071s-1.092.024-1.437.048l-.382-.041-.215-.023a2.659,2.659,0,0,0-.467-.063l-.049.009c-.1.02-.19.07-.244.069l-1.075-.037a20.194,20.194,0,0,1-2.177.025.973.973,0,0,0-.533-.087l-.207-.005c-.454-.011-.275.077-.461.094s-.433.006-.645.014c-.244.01-.473.035-.718.042l-.145,0c-.174-.013-.506-.034-.739-.045s-.844.017-.988.03-.812-.015-1.027,0-1.291.024-1.9.059l-.542-.085a3.322,3.322,0,0,0-.645,0l-.453.068c-.472-.034-1.113-.069-1.425-.078l-.037.015c-.279.114-.653-.034-.976.02l-.308.052c-.342-.041-1-.09-1.458-.11l-.437.062-.307.044a3.8,3.8,0,0,0-1.037-.1l-.1.032c-.23.074-.411-.034-.6,0l-.057.012c-.072.01-.457,0-.858-.015s-2.589.038-2.708.044l-.041-.008a2.649,2.649,0,0,0-.923-.03c-.364.066-.44-.056-.789-.027l-.266.022c-.391-.032-1.237-.043-1.881-.024l-.591.006a8.366,8.366,0,0,1-1.014-.015l-.252-.087a5.984,5.984,0,0,1-.654.064c-.1,0-.494,0-.786-.006l-.25,0c-.229,0-.463.033-.7.045l-.03,0a2.063,2.063,0,0,0-.35-.091,1.362,1.362,0,0,0-.481.1l-.263,0-.33-.005c-.365,0-1,.012-1.407.02l-.386-.012-.387-.012a3.752,3.752,0,0,1-.852-.044.417.417,0,0,0-.125-.1.287.287,0,0,0-.135.052,1,1,0,0,1-.46.1l-.066-.016a1.45,1.45,0,0,0-.856-.012l-.055.009c-.06.008-.527.023-1.038.033s-1.847-.092-2-.071-.458-.022-.313-.049.413-.109.144-.093a7.7,7.7,0,0,0-.98.148h-.092c-.2,0-.4-.031-.595-.031-.176,0-.351.029-.535.033a6.139,6.139,0,0,1-.653-.008l-.628-.062c-.67.035-1.411.066-1.649.07l-.193-.013c-.313-.021-1.027-.057-1.314-.035l-.594.047a5.824,5.824,0,0,0-1.132-.041c-.084.03-1.382,0-2.16-.007h-1.259c-.584-.006-1.481.012-1.995.039l-.495-.035c-.271-.019-.975-.062-1.19-.088a3.192,3.192,0,0,0-.434,0c-.086.1-.294.118-.673.042l-.027-.005c-.046,0-.509.02-1.028.051l-.4-.022a5.925,5.925,0,0,0-1.315.013,5.147,5.147,0,0,1-.621-.013l-.161-.007a3.655,3.655,0,0,0-.65.02c-.189.025-1.053-.018-1.285-.024s-1.256-.007-1.751.013l-.364-.08c-.008,0-.116.018-.184.02l-1.118.043c-.6-.031-1.177-.059-1.276-.06s-.883.014-1.629.014l-.67.021-.067,0a.405.405,0,0,0-.314-.036c-.05.036-1.168.059-1.852.082l-.546-.093-.046-.008c-.162.017-.611.032-1,.034l-.349-.026a3.864,3.864,0,0,1-.908.019,3.893,3.893,0,0,0-.449,0c-.1,0-.195.014-.286.012l-.157,0c-.159-.01-.577,0-.929.024l-.214-.063c-.294-.086-.513.054-.871,0s-.163-.133-.382-.179a3.192,3.192,0,0,0-.608-.007l-.323.033c-.318.054-.509.1-.426.108s.027.036-.342.053l-.336-.014c-.2-.009-.406-.034-.6-.031l-.616.007a2.038,2.038,0,0,0-.676-.1,1.156,1.156,0,0,1-.661.154c-.363,0-1.175-.1-1.221-.089l-.054.013-.093.021a6.683,6.683,0,0,1-.882.025c-.38-.007-1.465-.058-1.588-.081a1.461,1.461,0,0,0-.516.009,3.075,3.075,0,0,1-.579.035.289.289,0,0,1-.151-.15l-.568.079c-.262.037-.606.053-.925.071l-.164.009c-.267,0-.487-.045-.49-.091l.006-.04c.005-.044.019-.092-.319-.083s-.181.065-.225.1l-.02.016a.426.426,0,0,1-.269.009,1.619,1.619,0,0,0-.657.006l-.141.038a1.279,1.279,0,0,1-.29.034h-.087a1.058,1.058,0,0,1-.256-.117,1.849,1.849,0,0,0-.47-.047c.115.013-.029.116-.571.2l-.481-.1-.191-.041c-.2.019-.505.055-.688.08s-1.136-.06-1.221-.069h-.154c-.083.01-.12.026-.082.037a3.947,3.947,0,0,1-.9.093l-.316-.036-.49-.056a2.744,2.744,0,0,1-.759-.008c.052-.026-.236-.169-.792-.244l-.736.093-.451.057a5.589,5.589,0,0,1-.975-.085l.017-.009.211-.106c.455.022.885.044.954.049s.121-.084-.368-.075l-.268-.038-.592-.083a.926.926,0,0,1-.358.118.889.889,0,0,0-.331-.077,2.165,2.165,0,0,0-.511.076c-.036.018-.372.086-.605.128s-.583.24-.618.2a.778.778,0,0,0-.406-.135c-.157,0-.669-.013-.782-.023s-.388.016-.239.032a4.463,4.463,0,0,1,.566.1l-.027.015a.614.614,0,0,1-.169.02l-.275-.018a1.974,1.974,0,0,1-.65-.108c0-.032-.135-.119-.3-.106a.824.824,0,0,0-.358.168,4.7,4.7,0,0,1-.739.013c-.059,0-.2-.089-.016-.165s.257-.232-.012-.156a6.536,6.536,0,0,1-1.281.22,1.9,1.9,0,0,0-.642.094,3.431,3.431,0,0,1-.858,0,4.8,4.8,0,0,1,.993-.131c.23-.019.895-.078.947-.1s.1-.089.074-.111l-.048,0a2.278,2.278,0,0,0-.352,0l-.188.044a2,2,0,0,1-.43.093.623.623,0,0,1-.258-.06,1.614,1.614,0,0,0-.372-.143,2.44,2.44,0,0,0-.461-.076c-.066.009-.431.068-.627.12l.227,0,.519.007a3.232,3.232,0,0,1,.4.145,1.091,1.091,0,0,1-.388.058l-.2.007-.164.005c-.174.012-.375.029-.446.038s-.35-.028-.454-.009a1.563,1.563,0,0,1-.518-.007,2.608,2.608,0,0,0-.9-.082l-.192.032-.2.033c-.162-.026-.542-.075-.843-.11l-.188-.056-.187-.056-.831.1-.084.024-.165.046a2.366,2.366,0,0,1-.83.072c-.3-.023-.813-.117-1.009-.13s-.661-.021-.581.03l-.067.015c-.13.028-.373.036-.53.061l-.04.006c.079.035.074.071-.01.079a1.355,1.355,0,0,1-.414-.058,6.427,6.427,0,0,0-1.375-.115l.052.149a2.13,2.13,0,0,1-.747.02c-.117-.041-.077-.078.249-.087.1,0,.261-.053.228-.068l-.135-.059a3.682,3.682,0,0,1-.83.054c-.34-.008-1.249.063-1.365.05l-.118,0a3.666,3.666,0,0,0-.453,0l-.419.054-.943-.066c-.085-.005-.5.005-.863.013l-.287-.047-.092-.015a.844.844,0,0,0-.388.036,2.389,2.389,0,0,1-.8.142c-.358,0-1.328-.012-1.365,0l-.043.013-.054.017a.3.3,0,0,1-.174,0l-.044-.013-.114-.035a3.256,3.256,0,0,0-.865.019l-.046-.009-.331-.066a3.221,3.221,0,0,1-.664.057c-.133-.011-.745.01-1-.011s-1.09.052-1.3.063-.886-.035-1.173,0l-.342-.067-.255-.05c-.422.034-1.048.062-1.391.063l-.3.034-.309.035c-.32-.029-.74-.084-.933-.123l-.253.071a2.249,2.249,0,0,1-.647-.03c-.233,0-.586.058-.678.043a6.624,6.624,0,0,0-1.126-.046,7.875,7.875,0,0,0-1.389.047l-.041.009c-.118,0-.384-.021-.59-.039a14.806,14.806,0,0,0-1.5-.01l-.353-.012c-.741-.025-1.468-.069-2.181-.117a1.524,1.524,0,0,1-.35-.1,1.222,1.222,0,0,0-.271-.038c-.174,0-.365.031-.51.023l-.1-.006a1.708,1.708,0,0,0-.572-.109c-.257-.018-1.026.007-1.2.014l-.174-.026a11.036,11.036,0,0,0-1.572-.069c-.063,0-.21-.054-.178-.062.161-.042.461-.071-.112-.084-.261-.006-.235-.063-.041-.1l.1-.018c.093-.021.107-.064.033-.095s.307-.075.448-.051.686-.014.83.013l.075.029c.054.021-.023.053.021.076a1.056,1.056,0,0,0,.257.042l.056,0a3.951,3.951,0,0,0,.456-.1c.159-.044.523-.2.431-.243s-.907,0-1.135-.02l-.028-.024-.077-.065a1,1,0,0,0-.5-.054.635.635,0,0,1-.447.116c-.234-.049-1.225-.12-1.376-.149s.266-.13.462-.1a7.651,7.651,0,0,0,.877.087,2.833,2.833,0,0,0,.424-.145l.352.049a2.406,2.406,0,0,0,.436,0c.13-.038.106-.067-.2-.091l-.224-.017c-.2-.066-.2-.14,0-.165l.12-.033.069-.019a.6.6,0,0,0-.263-.087c-.1-.011-.691-.08-1.158-.1l-.107.082-.172.13c-.481-.032-.755-.07-.609-.083s.408-.05.353-.06l-.575-.112-.2-.035-.175-.031a5.375,5.375,0,0,1-.838-.026l-.239-.01c-.258-.01-.538,0-.808,0-.451,0-.914-.012-1.35,0s-.749-.048-1.179-.028a5.016,5.016,0,0,1-.738-.05l-.3-.037c-.354,0-1.009-.013-1.457-.029s-1.939-.166-2.455-.2l-.487-.023-.331-.016c-.377-.007-.865-.025-1.084-.039l-.2-.024-.824-.1a3.745,3.745,0,0,1,.409-.288l-.613.023c-.3.011-.462-.022-.4-.08l.044-.04c.051-.044.019-.1-.072-.118s-.31-.092-.19-.105.558-.083.725-.125l-.34-.024c-.283-.02-.4-.049-.264-.086l.246-.066a2.259,2.259,0,0,1-.83-.357l-.507-.128-.12-.031c.2-.087.25-.161.106-.166s-.363-.044-.182-.081.005-.164.138-.171.5-.083.39-.145l-.091-.058c-.1-.062-.287-.128-.242-.185a1.333,1.333,0,0,1,.526-.163c.16-.029.591-.015.675-.044l.178-.062c.256.008.584.016.728.018s.825-.143.961-.131.931-.047,1.212-.05l.271-.02c.211-.016.6.043.77.023a2.332,2.332,0,0,1,.685.006,4.18,4.18,0,0,0,.71-.009l.589-.06c-.059.07.355.048.921-.051l.832.031.134,0a2.837,2.837,0,0,1,.528-.021,6.989,6.989,0,0,0,1.262-.079l.679.074c.211.023.762-.044.879-.02l.377.076c.286-.043.8-.109,1.14-.146l.291-.014c.3-.014.706-.014,1.02,0a8.807,8.807,0,0,0,1.479-.016l.4-.048a8.986,8.986,0,0,1,1.067.027l.064.017.125.034a1.194,1.194,0,0,0,.567-.035,15.573,15.573,0,0,1,1.709,0c.377.005,1.493-.1,1.779-.108l.268,0c.621,0,.941,0,1.216-.023.114-.01.233-.029.341-.027l.2,0c.182-.019.553-.049.826-.065l.228.011.188.009c.171.046.3.03.288-.036l.526.018a4.347,4.347,0,0,0,1-.034,1.1,1.1,0,0,1,.178.009c.021.043.037.1.345.077.143-.009.175-.076.324-.089.339-.03.717-.057,1.082-.059l.424,0c.482.012,1.033.009,1.224-.008s.868-.038,1.043-.034.752.009.822,0a1.855,1.855,0,0,1,.386-.034,1.4,1.4,0,0,0,.469.039,8.4,8.4,0,0,1,.964-.031,4.984,4.984,0,0,0,.728.062c.121-.014.364-.086.5-.12s.772-.016,1-.031h.521c.334,0,.9.011,1.25.028l.337.01a2.165,2.165,0,0,0,.283-.013l.732-.089a3.474,3.474,0,0,0,.835.069.82.82,0,0,1,.438-.079l.151.008.146.007a3.853,3.853,0,0,0,.693-.087l.351-.006.139,0c.15-.04.135-.1-.034-.137l-.183-.01c-.312-.017-.3.035-.362.076a3.99,3.99,0,0,1-.469.025,9.913,9.913,0,0,1-1.05.029c-.406-.044-.78-.02-1.161-.027-.4-.008-.812,0-1.217,0s-.817-.008-1.217,0a3.552,3.552,0,0,1-1.064-.133l-.342-.067c-.369,0-.832.013-1.028.027s-.5.018-.654.023-.641-.064-.793-.085a5.407,5.407,0,0,0-.859-.04l-.074.03c-.115.046-.1.046.284.048.064,0,.184.007.184.009-.009.024-.018.066-.063.068-.265.01-.651.057-.71-.04l-.029-.048a1.347,1.347,0,0,1,.159-.136c.025-.015,0-.05-.1-.044l-.1,0-.371.016-.487.021c.2.059.1.136-.22.17a9.156,9.156,0,0,1-1.29.008l.025-.023.043-.036c.073-.039.034-.069-.088-.067s-.5-.054-.451-.134l-.1-.007-.93-.068a1.432,1.432,0,0,1,.849-.242l.2.015c.194.015.37.039.569.049a2.191,2.191,0,0,0,.358-.017l.234-.034a6.05,6.05,0,0,0,.877-.077l-.01-.032-.012-.034a6.757,6.757,0,0,0-.831-.062l-.162.021c-.133.017-.007.1-.341.079l-.234-.014a1.421,1.421,0,0,0-.6,0,2.439,2.439,0,0,1-.647-.018c.028-.013.021-.057-.1-.057a2.98,2.98,0,0,0-.534.043.526.526,0,0,1-.258.089l-.018-.008c-.051-.022-.038-.051-.108-.069l-.278-.073c-.464,0-.9.006-.969.005s-.174-.094.175-.195l.494.057.38.043a2.089,2.089,0,0,0,.789-.086.2.2,0,0,0-.2-.172c-.132,0-.495.021-.371.045l.037.022.035.021a1.2,1.2,0,0,1-.5.036c-.243-.014-.65-.071-.365-.094l.01-.022c.015-.033-.163-.073-.3-.1-.03-.006-.252.032-.377.03a1.909,1.909,0,0,1-.358-.048.909.909,0,0,1,.189-.053l.018,0,.931.036c.449.018,1.657-.067,1.775-.049l.1,0a3.153,3.153,0,0,0,.38-.04c.035-.005.044-.026.019-.035l-.037-.014c-.075-.013-.036-.033.087-.045a4.945,4.945,0,0,1,.643-.016,2.667,2.667,0,0,0,.517.033,1.935,1.935,0,0,1,.609.02c.141.049.532.175.559.173s.024-.082-.067-.173l-.038-.085-.008-.017a2.066,2.066,0,0,1,.487-.009l.04.019.105.052a.618.618,0,0,0,.529-.036l.243-.045.284-.052a.754.754,0,0,1,.358-.095,4.13,4.13,0,0,0,.685.071l.225.022.214.022a1.608,1.608,0,0,0,.61-.038c0-.033.1-.1.21-.083l.111.01c.259.024.519.06.784.062.13,0,.267-.09.414-.092l.264,0c.314,0,.643.011.731.021s.447-.009.427-.079l.044-.048.05-.054a4.487,4.487,0,0,1,1.256-.025l.655-.119a3.193,3.193,0,0,1,1.41-.074l.021,0a2.751,2.751,0,0,1,.826-.034l.178.025.086.012c.141,0,.422,0,.624,0s.833-.059,1.082-.074,1.168-.024,1.478-.026,1.029-.089,1.2-.057a1.933,1.933,0,0,1,.535.156c-.033.025.055.109.308.107l.248.006.407.009c.248-.054.578-.139.732-.189a3.618,3.618,0,0,1,.8-.153l.094.01.472.052a1.105,1.105,0,0,1-.426.152l-.066.029-.051.024a.55.55,0,0,0,.264.054c.086-.005.541-.078.9-.137l.486.044.138.013a1.222,1.222,0,0,0,.508-.07,2.956,2.956,0,0,1,.889-.163l.186.01.334.018c.293.042.661.082.817.089s.142.12.214.138.338.023.385.047a1.34,1.34,0,0,0,.489-.049,5.094,5.094,0,0,1,.852-.02c.143.007.682-.046,1.17-.022l.461.01.435.01a4.475,4.475,0,0,0,1.03-.027c.1-.039-.247-.164-.2-.193m190,1.136c.208-.069.066-.152-.314-.185l-.32-.012-.475-.018c-.534-.008-.814.012-.624.045a9.877,9.877,0,0,0,1.733.17m4.792.683c.077-.017,0-.11-.171-.206l-.715,0-.674,0c-.313.093-.38.213-.147.266l.113-.006.3-.015a3.577,3.577,0,0,1,.7-.043,3.471,3.471,0,0,0,.592.008m3.316,5.726a2.1,2.1,0,0,0,.6-.113c.206-.069-.437-.234-.336-.248l0-.011-.026-.055a3.583,3.583,0,0,0-.654,0c-.054.018.14.1.214.129s-.044.125.082.162-.006.132.121.138M430.59,192.322c-.011.04-.167.055-.347.033s-.058.08.379.076l.386.009.737.018c.261-.083.285-.141.053-.13a5.492,5.492,0,0,1-.912-.048.645.645,0,0,0-.171-.093.314.314,0,0,0-.125.134m9.5-1.181c.165-.071-.1-.126-.6-.123l-.307-.073-.014,0a1.407,1.407,0,0,0-.422.1,3.461,3.461,0,0,0,.761.108v.009c0,.08.132.1.388.03Zm191.539.091c-.012-.046-.08-.06-.153-.03a1.678,1.678,0,0,1-.587.044,5.79,5.79,0,0,0-.808-.026c.073.015.12.058.013.074s-.174.066.346.036l.227.02.324.03c.37,0,.649-.1.638-.148m19.7,6.041a.808.808,0,0,0,.411-.024c.053-.037-.3-.159-.377-.192l-.226.044-.423.082c-.369-.019-.762-.034-.873-.033l-.04.01c-.037.01-.024.04.023.047.235.033.49.061.734.092l.071.009c.065.013.526-.059.7-.035m-217.027-6.034a3.454,3.454,0,0,0,.612.009c-.006-.015.068-.083.134-.114s-.145-.062-.351-.027l-.349-.048a1.632,1.632,0,0,0-.639.08c-.224.03-.182.069.006.1a1.032,1.032,0,0,0,.492.013Zm191.353,5.193c-.121.023,0,.034.259.024s.968.093,1.258.091.379-.143.061-.149-1.457.012-1.578.035m-65.7,2.96c-.153-.016-.279,0-.279.034a.17.17,0,0,1-.159.117,1.467,1.467,0,0,0-.379.031.178.178,0,0,0,.054.088c.017,0,.629-.013,1.322-.043l-.037-.059-.024-.039c.007-.041-.345-.113-.5-.129m53.565-9.124a1.856,1.856,0,0,0,.678-.038l.057-.043c.041-.031-.047-.074-.141-.105a1.245,1.245,0,0,0-.551-.02l-.183.027c-.3.028-.03.147.14.179m-5.594.008c.365-.019.617-.063.559-.1a3.95,3.95,0,0,0-.837-.073c-.163.016-.087.19.278.171m46.473,7.362c.074-.057-.148-.083-.5-.056l-.279.032c-.222.026-.422.061-.065.11l.095.013a1.825,1.825,0,0,0,.745-.1m-195.435-6.853c-.322.033-.173.084.329.112l.348.026a1.739,1.739,0,0,0,.644-.06c.066-.014.062-.046.039-.068s-.994-.047-1.1-.036Zm-35.377,1.2a.806.806,0,0,0-.364-.066c-.16,0-.491.026-.727.054a1.378,1.378,0,0,0-.539.185l.052.01.051.01c.1,0,.577-.053,1.063-.122l.429-.066Zm33-1.038c-.024.035.144.046.372.025s.8-.1.889-.128l-.154-.038c-.111-.028-.021-.092-.353-.079l-.315.013a1.271,1.271,0,0,0-.439.208m95.261-.52c.286.034.311.032.055,0a5.277,5.277,0,0,0-.918-.109c-.081.038.04.159.429.194l.086-.016Zm-75.773.412c.019.032.187.021.373-.025s.248-.186,0-.175-.853.056-.867.068.022.044.11.041a1.091,1.091,0,0,1,.388.09m35.508-.3c-.626-.011-.946.032-.712.1l.367-.017c.355-.016.7-.043,1.033-.071.043,0,.026-.045-.008-.066a.967.967,0,0,0-.211-.016Zm-91.765,8.121c.122-.053.187-.138.143-.19l-.365.019c-.123.007-.273.071-.344.012s-.178-.1-.487-.054l-.05.006a3.088,3.088,0,0,0,.593.162l.23.02Zm201.7-2.566c.077-.033-.134-.067-.469-.076l-.2.02-.225.023c-.156.055-.2.129-.094.164l.126,0,.175,0a4.433,4.433,0,0,0,.687-.139M586.61,190.25c.144-.048.052-.067-.2-.041s-.9.006-1.006.025v.017c0,.037-.137.088.2.1l.18.009a3.046,3.046,0,0,0,.828-.115m39.7,1.064c-.317-.057-.333-.072-.037-.032s1.234.1,1.314.086-.042-.086-.49-.125l-.24.022Zm-33.259-.963a1.3,1.3,0,0,0,.447.022c-.007-.021.052-.084.089-.1s-.08-.079-.379-.083-.411.129-.157.162m-37.527.017c-.252,0-.2.051.117.113l.332.023.1.007c.319-.079-.295-.144-.549-.144m-97.74,8.377c-.282,0-.445.033-.361.073a2.463,2.463,0,0,0,.8.095c.281-.022-.152-.168-.435-.168m170.543-1.77c.043.01-.054.041-.218.068s-.2.11.048.086l.213-.019.258-.024c.346-.02.465-.068.266-.106l-.174-.033a1.078,1.078,0,0,0-.2-.03H628.4c-.129.01-.122.046-.079.057m-3.976-.795c.348,0,.464-.034.257-.066s-.967,0-1.249.009a5.025,5.025,0,0,0,.992.057m-79.713-5.726a1.177,1.177,0,0,0,.852-.091l-.6-.054-.138-.013c-.293.042-.486.086-.43.1l.031.006Zm-97.511,1.6c-.13.022-.126.057.008.077s.7.077.928.089l.208,0a.611.611,0,0,0,.185-.029c.03-.014.035-.042-.011-.048l-.3-.046a6.181,6.181,0,0,0-1.018-.048m-18.416.357a4.353,4.353,0,0,0-1.4-.056,2.257,2.257,0,0,0,1.4.056" transform="translate(-393.29 -189.867)" fill="#ebd4b6"/>
</svg>
