<svg xmlns="http://www.w3.org/2000/svg" width="65.635" height="86.286" viewBox="0 0 65.635 86.286">
  <g id="Group_2309" data-name="Group 2309" transform="translate(-1534 -4246.196)">
    <g id="Group_2301" data-name="Group 2301" transform="translate(1304.304 4155.496)">
      <path id="Path_19875" data-name="Path 19875" d="M297.737,90.75c1.395,1.424,2.477,3.1,3.723,4.642a2.606,2.606,0,0,0,3.255.935c1.113-.439,2.219-.893,3.323-1.352a10.113,10.113,0,0,1,2.111-.67,2.692,2.692,0,0,1,3.388,1.958,25.494,25.494,0,0,1,.8,4.711c.065.393.131.787.2,1.179a2.413,2.413,0,0,0,2.144,2.125c1.548.243,3.1.435,4.652.683a6.87,6.87,0,0,1,1.476.413,2.66,2.66,0,0,1,1.724,3.226,19.44,19.44,0,0,1-1.5,4.079c-1.264,3-1.109,3.6,1.48,5.537a23.192,23.192,0,0,1,3,2.4c1.54,1.614,1.533,3.105-.027,4.715a43.559,43.559,0,0,1-3.745,2.985c-1.637,1.355-1.809,1.989-1.08,4.014a32.407,32.407,0,0,1,1.855,4.95A2.673,2.673,0,0,1,322.7,140.6a22.66,22.66,0,0,1-4.789.833c-.169.027-.342.028-.51.057-2.164.376-2.738.973-3.035,3.161-.18,1.328-.3,2.665-.54,3.983a3.44,3.44,0,0,1-1.864,2.888c-.529.23-.163.524-.069.751,1.183,2.87,2.383,5.732,3.58,8.6q2.059,4.926,4.115,9.854c.135.326.4.669.072,1.03-.351.385-.733.16-1.1.034-2.211-.752-4.428-1.482-6.625-2.272-.539-.194-.739-.066-.961.416-.975,2.122-1.984,4.229-2.988,6.338-.156.327-.27.749-.719.764-.509.018-.616-.437-.767-.8q-4.266-10.207-8.518-20.42c-.2-.486-.307-.754-.907-.374a2.148,2.148,0,0,1-2.364.025c-.683-.44-.8-.094-1.02.438q-4.124,9.943-8.286,19.869c-.2.472-.214,1.207-.881,1.24-.736.035-.766-.748-1-1.224q-1.431-2.915-2.782-5.868c-.229-.5-.447-.58-.965-.4-2.2.784-4.417,1.515-6.629,2.264-.373.126-.755.347-1.1-.043-.325-.365-.053-.707.082-1.032q3.811-9.147,7.641-18.286c.2-.466.361-.77-.31-1.091a3.313,3.313,0,0,1-1.571-2.707c-.271-1.543-.458-3.1-.676-4.653a2.556,2.556,0,0,0-2.4-2.377c-1.524-.214-3.048-.429-4.57-.655a5.31,5.31,0,0,1-1.543-.487,2.635,2.635,0,0,1-1.553-3.016,15.617,15.617,0,0,1,1.21-3.458,21.09,21.09,0,0,0,.989-2.636,2.3,2.3,0,0,0-.675-2.411,31.48,31.48,0,0,0-2.744-2.183c-.513-.407-1.046-.8-1.517-1.25-1.838-1.763-1.842-3.374.037-5.119.812-.754,1.743-1.379,2.611-2.074.556-.445,1.12-.885,1.64-1.371a2.209,2.209,0,0,0,.656-2.333,32.188,32.188,0,0,0-1.483-3.818,11.646,11.646,0,0,1-.693-2.194,2.684,2.684,0,0,1,1.8-3.267,15.3,15.3,0,0,1,3.685-.7c.734-.1,1.466-.215,2.2-.32a2.511,2.511,0,0,0,2.344-2.327c.219-1.523.432-3.047.655-4.57a5.515,5.515,0,0,1,.541-1.7A2.628,2.628,0,0,1,281.3,94.24a15.336,15.336,0,0,1,3.541,1.23,19.755,19.755,0,0,0,2.638.984,2.252,2.252,0,0,0,2.342-.636c.121-.121.25-.236.359-.367,1.282-1.551,2.383-3.248,3.786-4.7Zm20.208,79.486.087.069-.074-.082a1.094,1.094,0,0,0-.027-.334q-3.706-8.9-7.421-17.792c-.1-.242-.217-.466-.519-.507a13.349,13.349,0,0,1-2.5-.831,29.56,29.56,0,0,0-2.84-1.176,2.549,2.549,0,0,0-3.168.951c-.8,1.039-1.567,2.105-2.408,3.11a1.087,1.087,0,0,0-.18,1.3c1.29,3.042,2.543,6.1,3.823,9.146,1.114,2.65,2.247,5.292,3.372,7.937l1.168,2.992,3.207-6.82a.984.984,0,0,1,1.037-.075c1.175.408,2.359.79,3.539,1.182A17.252,17.252,0,0,0,317.945,170.236Zm-44.183,0c1.7-.371,3.3-1.073,4.949-1.6,2.732-.87,2.1-1.241,3.425,1.5.756,1.558,1.49,3.126,2.277,4.78.114-.2.177-.29.217-.387q4.153-9.939,8.309-19.878a.65.65,0,0,0-.11-.762c-.748-.936-1.44-1.916-2.192-2.847-1.538-1.9-2.129-2.05-4.417-1.167-.478.185-.942.406-1.416.6a14.777,14.777,0,0,1-2.8,1.048,1.092,1.092,0,0,0-.9.765c-2.022,4.869-4.076,9.725-6.086,14.6a17.408,17.408,0,0,0-1.28,3.332l-.074.085Zm5.349-72.974c-.4,1.581-.415,3.218-.7,4.818a3.778,3.778,0,0,1-3.4,3.411c-1.577.238-3.167.4-4.733.694-1.852.345-2.3,1.137-1.754,2.916.158.516.38,1.012.582,1.514.446,1.109.963,2.188,1.326,3.333a3.566,3.566,0,0,1-1.135,4.087c-.6.522-1.241,1-1.872,1.492a17.6,17.6,0,0,0-2.505,2.064,1.761,1.761,0,0,0-.012,2.719,11.6,11.6,0,0,0,1.746,1.508,25.57,25.57,0,0,1,2.878,2.285,3.368,3.368,0,0,1,1,3.43,15.14,15.14,0,0,1-.653,1.94c-.435,1.052-.912,2.09-1.282,3.166-.669,1.947-.244,2.71,1.75,3.1,1.256.243,2.536.371,3.809.521,2.874.339,4.022,1.461,4.389,4.319.011.085.01.171.024.256a27.664,27.664,0,0,0,.676,4.3c.407,1.243,1,1.562,2.277,1.278a23.152,23.152,0,0,0,3.417-1.327c3.706-1.463,4.774-1.335,7.1,1.786.646.869,1.281,1.754,2,2.56,1.371,1.538,2.268,1.519,3.673-.014.384-.419.722-.882,1.072-1.333.576-.744,1.118-1.516,1.722-2.236,1.417-1.692,2.594-2.022,4.7-1.347.487.156.959.361,1.434.553.977.394,1.934.843,2.93,1.181,1.937.659,2.719.215,3.082-1.778.275-1.512.4-3.053.677-4.563.421-2.253,1.271-3.029,3.506-3.492,1.451-.3,2.952-.247,4.385-.654,2.027-.265,2.583-1.088,1.942-3.006-.332-.992-.773-1.948-1.178-2.915a8.706,8.706,0,0,1-.925-3.85A5.413,5.413,0,0,1,323,127.381c.781-.6,1.558-1.209,2.337-1.813a5.909,5.909,0,0,0,1.541-1.341,1.685,1.685,0,0,0,0-2.52,8.333,8.333,0,0,0-1.122-1.05c-.894-.709-1.824-1.371-2.717-2.081-2.067-1.644-2.4-2.829-1.526-5.3.133-.376.289-.743.439-1.113.395-.977.842-1.936,1.177-2.932.646-1.917.186-2.695-1.82-3.059-1.26-.229-2.538-.363-3.811-.518-2.858-.349-4-1.493-4.341-4.365-.142-1.188-.254-2.383-.473-3.558-.44-2.359-1.189-2.777-3.454-1.939-1.308.484-2.565,1.109-3.877,1.579-2.223.8-3.491.424-4.973-1.411-.77-.954-1.465-1.968-2.225-2.93-1.754-2.22-2.9-2.2-4.63.04a.3.3,0,0,0-.03.08c-.732.946-1.449,1.905-2.2,2.836a4.153,4.153,0,0,1-2.98,1.8A9.64,9.64,0,0,1,285.377,97c-1.122-.466-2.23-.98-3.381-1.364C280.235,95.049,279.608,95.437,279.111,97.263Z" transform="translate(-33.334 -0.05)" fill="#101010" fill-rule="evenodd"/>
      <path id="Path_19876" data-name="Path 19876" d="M501.811,384.275a.724.724,0,0,1,.644.523q1.92,4.328,3.848,8.655c.172.386.183.747-.241.946-.452.212-.688-.1-.85-.463q-1.928-4.325-3.843-8.656C501.124,384.726,501.364,384.273,501.811,384.275Z" transform="translate(-217.156 -226.528)" fill="#394370" fill-rule="evenodd"/>
      <path id="Path_19877" data-name="Path 19877" d="M276.018,134.912c.416-.035.86-.065.923.487.067.591-.373.676-.833.715a14.539,14.539,0,0,0-4.386,1.021,5.834,5.834,0,0,0-2.772,2.052c-.231.344-.53.579-.923.323-.453-.294-.28-.685-.037-1.038a6.477,6.477,0,0,1,2.385-2.026A15.1,15.1,0,0,1,276.018,134.912Z" transform="translate(-36.972 -34.112)" fill="#394270" fill-rule="evenodd"/>
      <path id="Path_19878" data-name="Path 19878" d="M495.752,370.159a.574.574,0,0,1-.592.554c-.377.008-.994-.921-.948-1.433a.547.547,0,0,1,.624-.542C495.184,368.746,495.764,369.638,495.752,370.159Z" transform="translate(-211.707 -214.54)" fill="#394370" fill-rule="evenodd"/>
      <path id="Path_19879" data-name="Path 19879" d="M311.441,122.954c-.17.415.1,1.1-.652,1.19-.47.054-.689-.291-.624-.705.073-.459-.1-1.121.631-1.215C311.274,122.162,311.415,122.52,311.441,122.954Z" transform="translate(-69.693 -24.329)" fill="#3f4874" fill-rule="evenodd"/>
      <path id="Path_19880" data-name="Path 19880" d="M325.378,147.831c-1.433.407-2.934.355-4.385.654-2.235.463-3.085,1.239-3.506,3.492-.282,1.511-.4,3.051-.677,4.563-.363,1.993-1.145,2.437-3.082,1.778-1-.339-1.953-.787-2.93-1.181-.475-.192-.947-.4-1.434-.553-2.1-.675-3.279-.345-4.7,1.347-.6.72-1.146,1.493-1.722,2.236-.349.45-.687.913-1.072,1.333-1.406,1.533-2.3,1.552-3.673.014-.719-.807-1.354-1.691-2-2.56-2.322-3.121-3.39-3.25-7.1-1.786a23.154,23.154,0,0,1-3.417,1.327c-1.276.283-1.87-.036-2.277-1.278a27.66,27.66,0,0,1-.676-4.3c-.013-.085-.013-.171-.023-.256-.367-2.858-1.516-3.98-4.389-4.319-1.273-.15-2.553-.278-3.809-.521-1.994-.386-2.419-1.15-1.75-3.1.37-1.075.847-2.114,1.282-3.166a15.14,15.14,0,0,0,.653-1.94,3.368,3.368,0,0,0-1-3.43,25.567,25.567,0,0,0-2.878-2.285,11.6,11.6,0,0,1-1.746-1.508,1.761,1.761,0,0,1,.012-2.719,17.594,17.594,0,0,1,2.505-2.064c.631-.488,1.269-.97,1.872-1.492a3.566,3.566,0,0,0,1.135-4.087c-.363-1.145-.88-2.224-1.326-3.333-.2-.5-.423-1-.582-1.514-.546-1.779-.1-2.571,1.755-2.916,1.567-.291,3.156-.456,4.733-.694a3.778,3.778,0,0,0,3.4-3.411c.29-1.6.3-3.237.7-4.818a16.424,16.424,0,0,1,3.47,1.327c2.936,1.126,3.731,1.352,5.733-.8a4.153,4.153,0,0,0,2.98-1.8c.751-.931,1.468-1.889,2.2-2.836a1.9,1.9,0,0,1,1.469.738,42.9,42.9,0,0,1,3.316,4.1,3.2,3.2,0,0,0,2.652,1.459,8.05,8.05,0,0,0,2.288-.633,27.689,27.689,0,0,1,4.29-1.646,2.134,2.134,0,0,1,2.783,1.545,20.69,20.69,0,0,1,.788,4.848c.232,2.145,1,3.156,3.07,3.622.824.185,1.681.223,2.517.361a10.8,10.8,0,0,1,3.547.787,2.07,2.07,0,0,1,1.1,2.363,19.769,19.769,0,0,1-.649,2.026c-.5,1.355-1.18,2.636-1.567,4.048a2.89,2.89,0,0,0,1.05,3.115c.992.883,2.152,1.575,3.165,2.436s2.17,1.659,2.021,3.251c-.779.6-1.556,1.212-2.337,1.813a5.413,5.413,0,0,0-1.955,2.594,3.284,3.284,0,0,0-1.935,3.621,13.622,13.622,0,0,0,.818,2.4C324.549,145.323,325.321,146.456,325.378,147.831ZM300,152.984a21.94,21.94,0,1,0-21.913-21.856A21.926,21.926,0,0,0,300,152.984Z" transform="translate(-37.506 -8.134)" fill="#fff" fill-rule="evenodd"/>
      <path id="Path_19881" data-name="Path 19881" d="M309.938,368.169a17.448,17.448,0,0,1,1.28-3.332c2.01-4.874,4.064-9.73,6.086-14.6a1.092,1.092,0,0,1,.9-.765,14.777,14.777,0,0,0,2.8-1.048c.473-.2.937-.419,1.416-.6,2.288-.883,2.879-.736,4.417,1.167.753.931,1.445,1.912,2.192,2.847a.65.65,0,0,1,.11.762q-4.163,9.936-8.309,19.878c-.041.1-.1.185-.217.387-.787-1.654-1.521-3.223-2.277-4.78-1.329-2.737-.693-2.366-3.425-1.5-1.652.526-3.247,1.228-4.949,1.6Z" transform="translate(-69.527 -197.999)" fill="#101010" fill-rule="evenodd"/>
      <path id="Path_19882" data-name="Path 19882" d="M435.734,367.339c-1.18-.392-2.364-.773-3.539-1.182a.984.984,0,0,0-1.037.075c-.515-.143-1.042-.253-1.54-.439a.761.761,0,0,0-1.127.492c-.547,1.268-1.136,2.518-1.708,3.776-1.125-2.645-2.258-5.287-3.372-7.937-1.28-3.046-2.533-6.1-3.823-9.146a1.087,1.087,0,0,1,.18-1.3c.841-1.005,1.608-2.071,2.408-3.11a2.549,2.549,0,0,1,3.168-.951,29.612,29.612,0,0,1,2.84,1.175,1.991,1.991,0,0,0,.222.9Q432.077,358.512,435.734,367.339Z" transform="translate(-154.026 -198.082)" fill="#101010" fill-rule="evenodd"/>
      <path id="Path_19883" data-name="Path 19883" d="M428.243,127.683c.149-1.593-1.017-2.4-2.021-3.251s-2.173-1.553-3.165-2.436a2.89,2.89,0,0,1-1.05-3.115c.386-1.412,1.062-2.693,1.567-4.048a19.76,19.76,0,0,0,.649-2.026,2.07,2.07,0,0,0-1.1-2.363,10.8,10.8,0,0,0-3.547-.787c-.836-.138-1.693-.176-2.517-.361-2.074-.466-2.838-1.478-3.07-3.623a20.692,20.692,0,0,0-.788-4.848,2.134,2.134,0,0,0-2.783-1.545,27.688,27.688,0,0,0-4.29,1.646,8.05,8.05,0,0,1-2.288.633,3.2,3.2,0,0,1-2.652-1.459A42.906,42.906,0,0,0,397.87,96a1.9,1.9,0,0,0-1.469-.738.3.3,0,0,1,.031-.08c1.725-2.244,2.875-2.26,4.63-.04.76.962,1.455,1.976,2.226,2.93,1.482,1.835,2.75,2.209,4.973,1.411,1.312-.471,2.569-1.1,3.877-1.579,2.265-.839,3.014-.421,3.454,1.939.219,1.175.331,2.37.473,3.558.344,2.872,1.483,4.017,4.341,4.365,1.273.155,2.551.289,3.81.518,2.006.364,2.466,1.142,1.82,3.059-.336,1-.783,1.956-1.177,2.932-.149.37-.305.737-.439,1.113-.876,2.471-.541,3.656,1.526,5.3.893.71,1.823,1.373,2.717,2.081a8.33,8.33,0,0,1,1.122,1.051,1.685,1.685,0,0,1,0,2.52A5.909,5.909,0,0,1,428.243,127.683Z" transform="translate(-136.24 -2.165)" fill="#fff" fill-rule="evenodd"/>
      <path id="Path_19884" data-name="Path 19884" d="M465.219,372.01q-3.662-8.824-7.328-17.647a1.991,1.991,0,0,1-.222-.9,13.337,13.337,0,0,0,2.5.831c.3.04.418.265.519.507q3.713,8.9,7.421,17.792a1.094,1.094,0,0,1,.027.334l-.013.013A17.262,17.262,0,0,1,465.219,372.01Z" transform="translate(-183.512 -202.754)" fill="#101010" fill-rule="evenodd"/>
      <path id="Path_19885" data-name="Path 19885" d="M510.469,272.246c-.057-1.375-.829-2.508-1.279-3.75a13.621,13.621,0,0,1-.818-2.4,3.284,3.284,0,0,1,1.935-3.621,8.706,8.706,0,0,0,.925,3.85c.405.967.847,1.923,1.178,2.915C513.051,271.159,512.5,271.981,510.469,272.246Z" transform="translate(-222.596 -132.549)" fill="#fff" fill-rule="evenodd"/>
      <path id="Path_19886" data-name="Path 19886" d="M342.636,113.436c-2,2.154-2.8,1.928-5.733.8a16.424,16.424,0,0,0-3.47-1.327c.5-1.826,1.124-2.214,2.885-1.627,1.151.384,2.258.9,3.381,1.364A9.64,9.64,0,0,0,342.636,113.436Z" transform="translate(-87.655 -15.698)" fill="#fff" fill-rule="evenodd"/>
      <path id="Path_19887" data-name="Path 19887" d="M451.544,431.847c.572-1.257,1.161-2.507,1.708-3.776a.761.761,0,0,1,1.127-.492c.5.187,1.026.3,1.54.44l-3.207,6.82Z" transform="translate(-178.788 -259.87)" fill="#101010" fill-rule="evenodd"/>
      <path id="Path_19888" data-name="Path 19888" d="M309.706,438.677l-.091.068.074-.085Z" transform="translate(-69.278 -268.49)" fill="#fc6f58" fill-rule="evenodd"/>
      <path id="Path_19889" data-name="Path 19889" d="M503.455,438.672l.074.082-.087-.069Z" transform="translate(-218.831 -268.499)" fill="#e76353" fill-rule="evenodd"/>
      <path id="Path_19890" data-name="Path 19890" d="M332.586,179.589a21.94,21.94,0,1,1,21.966-22.07A21.915,21.915,0,0,1,332.586,179.589Zm0-1.2a20.744,20.744,0,1,0-20.719-20.83A20.713,20.713,0,0,0,332.587,178.394Z" transform="translate(-70.094 -34.739)" fill="#39416a" fill-rule="evenodd"/>
      <path id="Path_19891" data-name="Path 19891" d="M336.624,182.437a20.744,20.744,0,1,1,20.769-20.609A20.708,20.708,0,0,1,336.624,182.437Zm-6.836-12.052a1.01,1.01,0,0,0,.508,1.1,1.278,1.278,0,0,0,1.3-.027c1.456-.781,2.925-1.535,4.374-2.327a1.285,1.285,0,0,1,1.361,0c1.426.776,2.881,1.5,4.3,2.281a1.319,1.319,0,0,0,1.437.032,1.131,1.131,0,0,0,.41-1.3c-.256-1.449-.556-2.89-.794-4.342a1.888,1.888,0,0,1,.551-2.032,39.322,39.322,0,0,0,3.218-3.06c.411-.382.8-.818.605-1.409-.2-.618-.787-.772-1.367-.86-1.539-.232-3.075-.479-4.619-.675a1.36,1.36,0,0,1-1.166-.847c-.679-1.414-1.39-2.812-2.1-4.213-.247-.488-.5-.965-1.177-.955s-.914.5-1.159.984c-.707,1.4-1.413,2.8-2.1,4.213a1.307,1.307,0,0,1-1.1.811c-1.627.212-3.232.576-4.875.686a1.31,1.31,0,0,0-1.138.8.889.889,0,0,0,.156,1.037c1.057,1.04,2.049,2.16,3.2,3.084a2.385,2.385,0,0,1,.962,2.6C330.284,167.425,330.05,168.908,329.788,170.385Zm-10.093-12.99c-.05.655.1,1.1.7,1.2a.938.938,0,0,0,1.183-.818,14.2,14.2,0,0,1,6.081-8.956c.556-.379.886-.894.444-1.512s-1.035-.417-1.577-.046a18.733,18.733,0,0,0-3.617,3.114A13.316,13.316,0,0,0,319.694,157.395Zm10.713-10.077c.96-.012,1.807-.6,1.751-1.247a.935.935,0,0,0-1.026-.916c-.913,0-1.806.649-1.749,1.269A.9.9,0,0,0,330.407,147.318Z" transform="translate(-74.131 -38.782)" fill="#fff" fill-rule="evenodd"/>
      <path id="Path_19892" data-name="Path 19892" d="M364.459,206.857c.262-1.477.5-2.959.795-4.429a2.385,2.385,0,0,0-.962-2.6c-1.149-.925-2.141-2.045-3.2-3.084a.889.889,0,0,1-.156-1.037,1.31,1.31,0,0,1,1.138-.8c1.643-.11,3.248-.474,4.875-.686a1.307,1.307,0,0,0,1.1-.811c.683-1.412,1.389-2.812,2.1-4.213.245-.485.486-.975,1.159-.985s.93.467,1.177.955c.706,1.4,1.417,2.8,2.1,4.213a1.36,1.36,0,0,0,1.166.847c1.543.2,3.08.443,4.619.675.58.087,1.167.242,1.367.86.191.592-.194,1.028-.605,1.409a39.318,39.318,0,0,1-3.218,3.06,1.888,1.888,0,0,0-.551,2.032c.238,1.452.538,2.893.794,4.342a1.131,1.131,0,0,1-.41,1.3,1.319,1.319,0,0,1-1.437-.032c-1.422-.783-2.877-1.506-4.3-2.281a1.285,1.285,0,0,0-1.361,0c-1.449.792-2.919,1.547-4.374,2.327a1.278,1.278,0,0,1-1.3.027A1.01,1.01,0,0,1,364.459,206.857Z" transform="translate(-108.802 -75.254)" fill="#101010" fill-rule="evenodd"/>
      <path id="Path_19893" data-name="Path 19893" d="M332.465,177.52a13.315,13.315,0,0,1,3.211-7.018,18.734,18.734,0,0,1,3.617-3.114c.542-.371,1.126-.585,1.577.046s.112,1.132-.444,1.512a14.2,14.2,0,0,0-6.081,8.956.938.938,0,0,1-1.183.818C332.566,178.617,332.414,178.176,332.465,177.52Z" transform="translate(-86.901 -58.908)" fill="#101010" fill-rule="evenodd"/>
      <path id="Path_19894" data-name="Path 19894" d="M375.923,161.527a.9.9,0,0,1-1.024-.894c-.057-.62.837-1.269,1.749-1.269a.935.935,0,0,1,1.026.916C377.731,160.928,376.883,161.515,375.923,161.527Z" transform="translate(-119.647 -52.991)" fill="#101010" fill-rule="evenodd"/>
    </g>
  </g>
</svg>
