<svg xmlns="http://www.w3.org/2000/svg" width="53.736" height="62.95" viewBox="0 0 53.736 62.95">
  <g id="Group_2305" data-name="Group 2305" transform="translate(-1238.666 -615.428)">
    <path id="Path_19908" data-name="Path 19908" d="M1263.563,834.6c-1.132-.154-2.269-.278-3.4-.466a33.311,33.311,0,0,1-14.356-6.175,39.3,39.3,0,0,1-6.9-6.531,1,1,0,0,1-.238-.693,29.826,29.826,0,0,1,5.011-12.8,25.859,25.859,0,0,1,8.685-7.764,17.666,17.666,0,0,0,26.322,0,25.478,25.478,0,0,1,6.61,5.182,28.948,28.948,0,0,1,7.1,15.38.921.921,0,0,1-.206.646,37.329,37.329,0,0,1-13.563,10.427,31.8,31.8,0,0,1-10.536,2.677,5.088,5.088,0,0,0-.594.115Zm-1.618-23.135c.6.594,1.207,1.259,1.883,1.844a1.327,1.327,0,0,1,.429,1.446c-.783,4.12-1.523,8.249-2.288,12.372a.945.945,0,0,0,.3.971c.977.934,1.918,1.906,2.876,2.86.125.124.265.234.425.375,1.044-1.052,2.025-2.1,3.076-3.072a1.31,1.31,0,0,0,.4-1.4c-.778-4.121-1.518-8.25-2.287-12.372a.968.968,0,0,1,.316-1.02c.72-.657,1.394-1.364,2-1.968l-3.586-3.576Z" transform="translate(0 -156.221)" fill="#101010" fill-rule="evenodd"/>
    <path id="Path_19909" data-name="Path 19909" d="M1329.851,615.428a29.81,29.81,0,0,1,4.208,1.046,14.7,14.7,0,0,1,9.654,12.105,15.234,15.234,0,0,1-27.1,11.53c-3.852-5.185-4.4-10.782-1.461-16.512a14.693,14.693,0,0,1,11.647-8.049c.2-.028.4-.08.595-.12Z" transform="translate(-63.092)" fill="#101010" fill-rule="evenodd"/>
  </g>
</svg>
