<svg xmlns="http://www.w3.org/2000/svg" width="62.95" height="62.95" viewBox="0 0 62.95 62.95">
  <path id="Path_19902" data-name="Path 19902" d="M906.258,194.241h3.934c1.052.136,2.11.235,3.154.413a31.594,31.594,0,0,1,25.87,25.639c.2,1.144.324,2.3.483,3.456v3.934c-.1.769-.179,1.539-.288,2.306A31.592,31.592,0,0,1,913.7,256.7c-1.163.21-2.342.329-3.513.49h-3.934c-.768-.095-1.538-.177-2.3-.287a31.6,31.6,0,0,1-26.714-25.7c-.211-1.164-.329-2.344-.49-3.516v-3.934c.094-.769.174-1.54.285-2.306A31.589,31.589,0,0,1,902.8,194.725C903.948,194.523,905.106,194.4,906.258,194.241Zm1.484,48.916a15.331,15.331,0,0,0,8.7-2.532,14.611,14.611,0,0,0,4.387-4.572,1.844,1.844,0,1,0-3.09-2.008c-.1.152-.193.315-.3.464a11.1,11.1,0,0,1-18.671-.372,1.841,1.841,0,1,0-3.1,1.976A14.615,14.615,0,0,0,907.742,243.157Zm12.15-29.98a8.047,8.047,0,0,0-7.543,5.219,1.854,1.854,0,0,0,1,2.54,1.833,1.833,0,0,0,2.415-1.171,4.369,4.369,0,0,1,8.23.022,1.847,1.847,0,1,0,3.424-1.365A8.041,8.041,0,0,0,919.892,213.176Zm-23.294,0a8.064,8.064,0,0,0-7.548,5.215,1.849,1.849,0,1,0,3.424,1.371,4.366,4.366,0,0,1,8.232.024,1.843,1.843,0,0,0,2.433,1.138,1.864,1.864,0,0,0,.987-2.5A8.057,8.057,0,0,0,896.6,213.176Z" transform="translate(-876.75 -194.241)" fill="#101010" fill-rule="evenodd"/>
</svg>
