<svg xmlns="http://www.w3.org/2000/svg" width="80.083" height="98.478" viewBox="0 0 80.083 98.478">
  <g id="Group_2307" data-name="Group 2307" transform="translate(-918 -3870.196)">
    <g id="Group_2297" data-name="Group 2297" transform="translate(755.872 3776.05)">
      <path id="Path_19790" data-name="Path 19790" d="M229.747,196.787H201.913c-1.467,0-1.488-.023-1.488-1.519,0-3.539-.016-7.078,0-10.618a12.721,12.721,0,0,1,10.556-12.858c2.853-.6,5.693-1.259,8.548-1.848a3.285,3.285,0,0,0,1.619-1.19c.311-.308.031-.487-.155-.672a14.275,14.275,0,0,1-4.3-7.689c-.086-.483-.489-.525-.81-.688A5.456,5.456,0,0,1,213,153.774a3.27,3.27,0,0,1,1.131-1.916c.777-.546.723-1.142.521-1.933a26.72,26.72,0,0,1-1.257-8,10.927,10.927,0,0,1,11.314-10.334,4.9,4.9,0,0,0,2.349-.484c6.931-3.24,18.536.834,18.682,11.439a34.171,34.171,0,0,1-.679,7.373,1.544,1.544,0,0,0,.529,1.762c2.463,2.121,1.688,6.356-1.435,7.926a1.841,1.841,0,0,0-1.065,1.442,14.449,14.449,0,0,1-3.547,6.415c-.32.356-1.081.635-.831,1.135a2.386,2.386,0,0,0,1.61,1.336c1.878.4,3.748.837,5.62,1.263,1.237.281,2.48.54,3.707.863a12.663,12.663,0,0,1,9.356,11.836c.07,3.847.025,7.7.026,11.545,0,1.275-.071,1.346-1.349,1.347Q243.715,196.789,229.747,196.787Zm19.146-5.568c0,1.1.022,2.194-.017,3.289-.021.609.158.849.807.84q3.549-.047,7.1,0c.643.009.816-.218.812-.833-.027-3.635.114-7.277-.064-10.9a10.4,10.4,0,0,0-4.511-8.268,8.663,8.663,0,0,0-3.735-1.871c-2.927-.719-5.872-1.365-8.8-2.064a1.028,1.028,0,0,0-1.265.552c-1.044,1.653-2.129,3.28-3.2,4.914-.812,1.235-.951,1.235-2.13.293-.355-.283-.732-.958-1.125-.7a1.537,1.537,0,0,0-.36,1.614c.045.2.079.4.12.6.66,3.222,1.3,6.447,2,9.661a1.269,1.269,0,0,1-.49,1.427c-.714.583-1.383,1.221-2.071,1.836-1.995,1.518-1.995,1.518-4-.153a.321.321,0,0,0-.1-.036c-.52-.449-1.01-.94-1.568-1.336a1.848,1.848,0,0,1-.764-2.207c.748-3.277,1.375-6.581,2.075-9.869a1.508,1.508,0,0,0-.38-1.52c-.445-.345-.668.377-1.028.564a2.222,2.222,0,0,0-.32.259c-.944.748-1.188.716-1.862-.3-1.079-1.633-2.177-3.257-3.2-4.924a1.261,1.261,0,0,0-1.606-.632c-2.471.577-4.955,1.1-7.44,1.62-5.493,1.143-8.879,4.385-9.707,9.578-.472,2.958-.143,5.966-.151,8.952-.009.991,0,1.982-.037,2.971-.024.575.179.776.761.771q3.588-.037,7.177,0c.563.005.8-.164.781-.756-.04-.989-.023-1.981-.031-2.972.014-2.128.023-4.255.045-6.383.006-.6-.149-1.4.757-1.405.885,0,.655.8.672,1.341.067,2.16-.115,4.323.121,6.48,0,.825.06,1.656-.026,2.472-.107,1.021.294,1.241,1.266,1.238,10.962-.034,21.923-.022,32.885-.022.172,0,.345-.014.515,0,.49.042.674-.181.659-.663-.032-1.029-.036-2.06-.051-3.089q0-.207,0-.413,0-.8.01-1.6c.01-1.471.009-2.943.036-4.414.01-.544-.206-1.339.674-1.334.9,0,.749.8.756,1.4.016,1.437.018,2.874.025,4.312Q248.894,190.38,248.892,191.219Zm-9.046-41.505c-.065-.539-.454-.565-.889-.636-4.3-.7-8.443-1.841-12.015-4.48-.455-.336-.624-.145-.89.185a7.768,7.768,0,0,1-4.432,3.009c-1.807.35-2.14,1.542-2.4,2.948a15.41,15.41,0,0,0-.181,1.738c-.027.389-.061.837-.385,1.024-.866.5-.749,1.29-.742,2.069q.014,1.442.017,2.883c.01,5.615,5.123,10.358,8.841,11.943a7.786,7.786,0,0,0,7.719-.655c5.038-3.2,8.05-7.547,7.576-13.8-.057-.745.094-1.481-.759-1.939-.393-.211-.431-.737-.5-1.19A6.906,6.906,0,0,0,239.847,149.714Zm4.336-5.763c.016-3.958-.292-5.251-1.7-7.35-3.225-4.815-10.619-6.4-15.249-3.99a2.5,2.5,0,0,1-1.61.543,9.437,9.437,0,0,0-10.743,9.32,38.724,38.724,0,0,0,1.862,9.644c.081.292.212.537.554.47.322-.062.251-.361.267-.591a12.7,12.7,0,0,1,1.053-4.16,1.556,1.556,0,0,1,1.262-1.046,7.753,7.753,0,0,0,4.171-2.066c.586-.574,1.118-1.2,1.671-1.811.374-.411.778-.567,1.248-.158,3.282,2.854,7.275,4.074,11.439,4.68a3.61,3.61,0,0,1,3.379,2.952c.181.694.337,1.394.5,2.093.043.189-.022.458.26.48.238.018.339-.2.412-.4a4.339,4.339,0,0,0,.18-.587A30.669,30.669,0,0,0,244.183,143.951Zm-14.233,34.217c-.765-.182-.994.185-1.127.9-.454,2.421-.859,4.865-1.535,7.227a3.082,3.082,0,0,0,1.331,3.946c1.419.966,1.329,1.1,2.617,0,.418-.355.818-.735,1.261-1.057a1.146,1.146,0,0,0,.462-1.332q-.937-4.367-1.806-8.748C231.013,178.388,230.753,177.949,229.951,178.168Zm1.337-5.162c1,.874,2,1.707,2.946,2.59.444.413.678.372,1-.136.913-1.453,1.83-2.906,2.829-4.3.419-.585.175-.856-.181-1.286-.436-.527-.726-.26-1.1.029a13.411,13.411,0,0,1-4.024,2.244A4.384,4.384,0,0,0,231.287,173.006Zm-2.548-.075c-2.116-1.067-4.256-1.765-5.943-3.275-.4-.361-.6.1-.817.317-.243.243-.616.435-.287.919,1.055,1.555,2.075,3.133,3.1,4.708.2.3.362.452.707.145C226.516,174.837,227.556,173.955,228.739,172.931Zm-12.25-17.165a2.88,2.88,0,0,0-.853-2.595c-.42-.4-.5-.369-.787-.017a3.375,3.375,0,0,0,.451,4.305c.29.309.609.813,1.051.639.335-.132.1-.677.132-1.035C216.514,156.726,216.489,156.383,216.489,155.766Zm27.026,2.447c2.2-.984,2.908-4.372,1.084-5.453C243.117,154.323,243.487,156.241,243.515,158.213ZM229.848,176.6c1.107,0,1.814-.5,1.645-1.232s-.93-1.026-1.5-1.423c-.22-.154-1.572,1.141-1.521,1.455C228.607,176.226,228.95,176.833,229.848,176.6Z" transform="translate(-27.76 -26.007)" fill="#101010" fill-rule="evenodd"/>
      <path id="Path_19791" data-name="Path 19791" d="M174.368,399.929c-1.585.094-2.914.176-4.244.251-.493.028-1.034.056-1.087-.618s.467-.767.967-.8c2.018-.152,4.037-.3,6.057-.429.69-.045,1.008.308.956,1.006-.136,1.847-.264,3.695-.4,5.542-.015.205-.026.412-.056.615-.07.479-.235.9-.828.826-.529-.069-.608-.487-.581-.93.062-1.028.139-2.054.195-3.082a2.314,2.314,0,0,0-.02-1.1c-.389.079-.557.4-.787.633q-5.254,5.232-10.494,10.477c-.194.194-.382.4-.589.575-.316.273-.661.386-1.005.048-.376-.369-.279-.736.045-1.081.187-.2.384-.393.578-.587q5.206-5.206,10.412-10.414C173.727,400.614,173.953,400.365,174.368,399.929Z" transform="translate(-0.061 -220.519)" fill="#101010" fill-rule="evenodd"/>
      <path id="Path_19792" data-name="Path 19792" d="M401.995,399.941l11.307,11.3c.218.218.442.433.648.662a.674.674,0,0,1,.045,1.008c-.364.389-.734.284-1.08-.034-.252-.232-.49-.48-.733-.723q-5.168-5.17-10.337-10.34c-.214-.214-.438-.418-.749-.713a3.732,3.732,0,0,0-.023,1.462c.052.994.125,1.986.173,2.98.02.419-.135.758-.6.8s-.7-.241-.768-.659c-.057-.337-.074-.682-.1-1.023-.125-1.745-.234-3.491-.375-5.234-.066-.819.282-1.132,1.08-1.069,1.812.141,3.626.26,5.439.388.205.015.413.015.616.044.476.069.905.232.841.822-.058.528-.469.62-.916.6-.891-.047-1.781-.1-2.672-.156C403.292,400.027,402.795,399.993,401.995,399.941Z" transform="translate(-172.009 -220.541)" fill="#101010" fill-rule="evenodd"/>
      <path id="Path_19793" data-name="Path 19793" d="M400.969,106.361l8.91-8.911q1.384-1.384,2.767-2.768c.381-.383.809-.773,1.31-.271.519.52.068.93-.3,1.3q-5.5,5.5-11,11c-.141.141-.273.291-.611.652,1.294-.073,2.355-.132,3.415-.195a11.755,11.755,0,0,1,1.232-.075.658.658,0,0,1,.676.745.628.628,0,0,1-.64.666c-2.191.156-4.382.32-6.576.441-.6.033-.837-.371-.8-.948.142-1.951.275-3.9.426-5.851.043-.547.062-1.214.852-1.136.727.072.616.692.584,1.209C401.141,103.519,401.063,104.82,400.969,106.361Z" transform="translate(-171.981 -0.019)" fill="#101010" fill-rule="evenodd"/>
      <path id="Path_19794" data-name="Path 19794" d="M174.118,107.1c-1.067-1.056-2.137-2.108-3.2-3.168q-4.081-4.075-8.154-8.158c-.378-.379-.966-.786-.409-1.362.6-.615,1.043-.03,1.451.377q5.319,5.312,10.632,10.631c.257.257.528.5.918.869-.089-1.51-.166-2.833-.246-4.156-.032-.528-.1-1.12.648-1.153.65-.03.733.516.77,1.009.154,2.017.306,4.036.437,6.055a.742.742,0,0,1-.87.88c-2.124-.133-4.246-.286-6.368-.429-.483-.032-.8-.251-.763-.764s.388-.7.859-.671c1.4.086,2.8.185,4.2.279Z" transform="translate(0 0)" fill="#101010" fill-rule="evenodd"/>
      <path id="Path_19795" data-name="Path 19795" d="M333.406,112.219c.377.124.869.27,1.349.447a16.84,16.84,0,0,1,8.665,7.068,3.348,3.348,0,0,1,.351.624.687.687,0,0,1-.271.9.664.664,0,0,1-.915-.169,2.936,2.936,0,0,1-.281-.428,15.49,15.49,0,0,0-8.953-6.948,3.687,3.687,0,0,1-.48-.179.663.663,0,0,1-.392-.847C332.59,112.3,332.907,112.184,333.406,112.219Z" transform="translate(-123.473 -13.098)" fill="#101010" fill-rule="evenodd"/>
      <path id="Path_19796" data-name="Path 19796" d="M184.785,302.046a17.792,17.792,0,0,1,2.531-8.8c.262-.435.52-1.006,1.177-.614.7.417.311.928.027,1.4a16.358,16.358,0,0,0-2.3,8.537c0,.565.156,1.343-.669,1.37-.909.029-.749-.783-.768-1.383C184.78,302.39,184.785,302.219,184.785,302.046Z" transform="translate(-16.424 -143.802)" fill="#101010" fill-rule="evenodd"/>
      <path id="Path_19797" data-name="Path 19797" d="M374.2,155.59c-.03-.693.122-1.122.635-1.075,1.045.1.789,1.025.921,1.671a.7.7,0,0,1-.685.927C374.566,157.148,374.215,156.416,374.2,155.59Z" transform="translate(-153.743 -43.763)" fill="#101010" fill-rule="evenodd"/>
      <path id="Path_19798" data-name="Path 19798" d="M186.222,343.985c.018.532.01,1.115-.7,1.113-.772,0-.736-.635-.743-1.19-.007-.539.028-1.112.718-1.114C186.282,342.791,186.231,343.433,186.222,343.985Z" transform="translate(-16.422 -180.261)" fill="#394370" fill-rule="evenodd"/>
      <path id="Path_19799" data-name="Path 19799" d="M272.864,208.359c-3.719-1.585-8.832-6.327-8.841-11.943q0-1.441-.017-2.883c-.008-.779-.125-1.569.742-2.069.325-.187.358-.635.385-1.024a15.382,15.382,0,0,1,.181-1.738c.259-1.406.592-2.6,2.4-2.948a7.768,7.768,0,0,0,4.432-3.009c.266-.329.434-.521.89-.185,3.572,2.639,7.716,3.781,12.015,4.48.435.071.824.1.889.636,0,2.194-.024,4.389-.007,6.583a13.843,13.843,0,0,1-.31,3.149c-.755,3.388-2.881,5.852-5.428,7.995C278.091,207.171,275.755,208.485,272.864,208.359Z" transform="translate(-73.851 -63.97)" fill="#fff" fill-rule="evenodd"/>
      <path id="Path_19800" data-name="Path 19800" d="M205.532,300.636c.008-2.986-.321-5.994.151-8.952.828-5.194,4.215-8.435,9.707-9.578,2.485-.517,4.969-1.043,7.44-1.62a1.261,1.261,0,0,1,1.606.632c1.024,1.668,2.121,3.291,3.2,4.924.674,1.02.918,1.051,1.862.3a2.224,2.224,0,0,1,.32-.259c.359-.188.583-.91,1.028-.564a1.508,1.508,0,0,1,.38,1.52c-.7,3.288-1.327,6.592-2.075,9.869a1.848,1.848,0,0,0,.764,2.207c.558.4,1.048.887,1.569,1.335-.346.346-.783.182-1.176.184q-7.266.035-14.533.043c-.235-2.157-.053-4.32-.12-6.48-.017-.543.213-1.343-.672-1.341-.906,0-.751.807-.757,1.405-.022,2.128-.031,4.255-.045,6.383Z" transform="translate(-31.391 -135.04)" fill="#fff" fill-rule="evenodd"/>
      <path id="Path_19801" data-name="Path 19801" d="M282.305,147.852a30.673,30.673,0,0,1-1.045,8.03,4.345,4.345,0,0,1-.18.587c-.073.193-.174.413-.412.4-.281-.021-.216-.29-.26-.48-.16-.7-.316-1.4-.5-2.093a3.61,3.61,0,0,0-3.379-2.952c-4.164-.605-8.157-1.826-11.439-4.68-.47-.409-.875-.253-1.248.158-.553.608-1.085,1.237-1.671,1.811A7.753,7.753,0,0,1,258,150.694a1.556,1.556,0,0,0-1.262,1.046,12.694,12.694,0,0,0-1.053,4.16c-.016.23.054.529-.267.591-.342.067-.473-.178-.554-.47a38.727,38.727,0,0,1-1.862-9.644,9.437,9.437,0,0,1,10.743-9.32,2.5,2.5,0,0,0,1.61-.543c4.629-2.409,12.023-.825,15.249,3.99C282.014,142.6,282.322,143.894,282.305,147.852Z" transform="translate(-65.882 -29.908)" fill="#101010" fill-rule="evenodd"/>
      <path id="Path_19802" data-name="Path 19802" d="M332.014,298.517c-.007-1.438-.009-2.875-.025-4.312-.007-.6.144-1.4-.756-1.4-.88,0-.663.79-.674,1.334-.028,1.471-.026,2.943-.036,4.414-1.432-.017-2.865-.02-4.3-.057-.643-.017-1.137.2-1.116.873.02.616.531.813,1.1.809l4.3-.03q0,.207,0,.413l-15.442.026c.688-.614,1.357-1.253,2.071-1.836a1.269,1.269,0,0,0,.49-1.427c-.694-3.214-1.337-6.44-2-9.661-.041-.2-.075-.4-.121-.6a1.537,1.537,0,0,1,.36-1.614c.393-.258.771.417,1.125.7,1.18.942,1.319.942,2.13-.293,1.074-1.634,2.159-3.261,3.2-4.914a1.028,1.028,0,0,1,1.265-.552c2.932.7,5.877,1.345,8.8,2.064a8.665,8.665,0,0,1,3.735,1.87,19.218,19.218,0,0,1,.86,6.067c-.085,2.678-.011,5.36-.006,8.041Zm-9.981,1.658c.573.028,1.148.021,1.15-.841,0-.878-.6-.83-1.2-.836s-1.253-.046-1.276.777C320.686,300.131,321.333,300.2,322.033,300.174Z" transform="translate(-110.879 -134.982)" fill="#fff" fill-rule="evenodd"/>
      <path id="Path_19803" data-name="Path 19803" d="M262.751,353.462l15.442-.026c.015,1.03.019,2.06.051,3.089.015.482-.169.706-.659.663-.171-.015-.343,0-.515,0-10.962,0-21.924-.012-32.885.022-.972,0-1.373-.216-1.266-1.238a24.673,24.673,0,0,0,.025-2.472q7.266-.017,14.532-.043c.392,0,.829.163,1.176-.183a.331.331,0,0,1,.1.036C260.757,354.98,260.757,354.98,262.751,353.462Z" transform="translate(-58.558 -187.858)" fill="#fff" fill-rule="evenodd"/>
      <path id="Path_19804" data-name="Path 19804" d="M381.6,308.921c-.005-2.681-.079-5.363.006-8.041a19.219,19.219,0,0,0-.86-6.067,10.4,10.4,0,0,1,4.511,8.268c.177,3.627.037,7.269.063,10.9,0,.615-.169.842-.812.833q-3.549-.048-7.1,0c-.648.009-.828-.232-.807-.84.038-1.095.015-2.192.017-3.289,1.6.005,3.2.018,4.795.012.566,0,1.124-.082,1.206-.808C382.7,309.138,382.179,308.991,381.6,308.921Z" transform="translate(-155.483 -145.477)" fill="#fff" fill-rule="evenodd"/>
      <path id="Path_19805" data-name="Path 19805" d="M296.239,222.309c2.891.126,5.227-1.188,7.329-2.957,2.547-2.143,4.673-4.607,5.428-7.995a13.843,13.843,0,0,0,.31-3.149c-.017-2.194,0-4.389.007-6.583a6.905,6.905,0,0,1,.965,3.1c.066.454.1.98.5,1.19.854.458.7,1.194.759,1.939.474,6.255-2.538,10.6-7.576,13.8A7.786,7.786,0,0,1,296.239,222.309Z" transform="translate(-97.226 -77.919)" fill="#fff" fill-rule="evenodd"/>
      <path id="Path_19806" data-name="Path 19806" d="M300.183,304.932c.8-.219,1.062.22,1.2.933q.868,4.381,1.806,8.748a1.146,1.146,0,0,1-.462,1.332c-.442.322-.843.7-1.26,1.057-1.288,1.1-1.2.965-2.617,0a3.082,3.082,0,0,1-1.331-3.946c.677-2.362,1.081-4.805,1.535-7.227C299.189,305.117,299.417,304.75,300.183,304.932Z" transform="translate(-97.992 -152.772)" fill="#101010" fill-rule="evenodd"/>
      <path id="Path_19807" data-name="Path 19807" d="M205.7,353.934l8.651.013c.007.991-.01,1.983.031,2.972.024.592-.218.762-.781.756q-3.588-.032-7.177,0c-.582.006-.785-.2-.761-.771C205.709,355.916,205.7,354.925,205.7,353.934Z" transform="translate(-31.564 -188.337)" fill="#fff" fill-rule="evenodd"/>
      <path id="Path_19808" data-name="Path 19808" d="M312.654,277.263a4.385,4.385,0,0,1,1.468-.859,13.411,13.411,0,0,0,4.024-2.244c.373-.289.663-.557,1.1-.029.356.43.6.7.181,1.286-1,1.394-1.916,2.847-2.829,4.3-.319.507-.553.548-1,.136C314.65,278.97,313.654,278.137,312.654,277.263Z" transform="translate(-109.126 -130.265)" fill="#f9fafb" fill-rule="evenodd"/>
      <path id="Path_19809" data-name="Path 19809" d="M284.473,277.057c-1.183,1.024-2.223,1.905-3.238,2.813-.345.308-.509.16-.707-.145-1.026-1.574-2.046-3.153-3.1-4.707-.329-.485.044-.677.287-.919.216-.216.414-.678.817-.317C280.216,275.292,282.356,275.99,284.473,277.057Z" transform="translate(-83.493 -130.133)" fill="#f9fafb" fill-rule="evenodd"/>
      <path id="Path_19810" data-name="Path 19810" d="M381.644,346.107c.583.07,1.105.218,1.02.972-.082.726-.64.806-1.206.808-1.6.006-3.2-.007-4.795-.012q0-.839,0-1.677Z" transform="translate(-155.531 -182.663)" fill="#fefefe" fill-rule="evenodd"/>
      <path id="Path_19811" data-name="Path 19811" d="M252.982,216.03c0,.617.024.96-.007,1.3-.033.358.2.9-.132,1.035-.442.174-.761-.33-1.051-.639a3.375,3.375,0,0,1-.451-4.305c.29-.352.368-.38.787.017A2.879,2.879,0,0,1,252.982,216.03Z" transform="translate(-64.252 -86.271)" fill="#101010" fill-rule="evenodd"/>
      <path id="Path_19812" data-name="Path 19812" d="M356.971,348l-4.3.03c-.573,0-1.084-.193-1.1-.809-.021-.678.473-.89,1.116-.874,1.432.037,2.864.04,4.3.057Q356.976,347.207,356.971,348Z" transform="translate(-137.338 -182.84)" fill="#fefefe" fill-rule="evenodd"/>
      <path id="Path_19813" data-name="Path 19813" d="M356.951,218.156c-.028-1.972-.4-3.89,1.084-5.453C359.858,213.784,359.154,217.171,356.951,218.156Z" transform="translate(-141.195 -85.95)" fill="#101010" fill-rule="evenodd"/>
      <path id="Path_19814" data-name="Path 19814" d="M303.795,292.345c-.9.235-1.241-.372-1.374-1.2-.051-.314,1.3-1.609,1.521-1.455.568.4,1.332.7,1.5,1.423S304.9,292.346,303.795,292.345Z" transform="translate(-101.707 -141.753)" fill="#101010" fill-rule="evenodd"/>
      <path id="Path_19815" data-name="Path 19815" d="M336.889,348.038c-.7.027-1.347-.043-1.324-.9.022-.823.68-.783,1.276-.777s1.2-.042,1.2.836C338.037,348.059,337.461,348.066,336.889,348.038Z" transform="translate(-125.735 -182.846)" fill="#fefefe" fill-rule="evenodd"/>
    </g>
  </g>
</svg>
