<svg xmlns="http://www.w3.org/2000/svg" width="448.2" height="3.71" viewBox="0 0 448.2 3.71">
  <path id="Path_19900" data-name="Path 19900" d="M493.961,190.2c.083-.011.208-.023.277-.027s.744,0,1.417.009l.788-.032.347-.014c.347.007,1.01.012,1.476.012s2.068-.041,2.149-.039l.008,0,.059.015c.046.017.562.02,1.144.008s2.834.009,3.558.012,2.766-.038,3.193-.036,1.533.025,1.874.027,1.28-.022,1.522-.026.835,0,.843-.022,1.339.013,1.743.012l.273-.008a5.035,5.035,0,0,1,1,.02l.162.021c.435-.026,1.017-.041,1.292-.033s1.525.012,2.129,0l.437-.014.4-.013c.413,0,.985.008,1.274.011l.165.007c.292.013.479.03.771.042l.064,0a1.75,1.75,0,0,0,.45-.031c-.039-.011.82-.031,1.459-.037l.526.02.13,0c.592.015,1.375.016,1.738,0l.364-.009.213-.005a2.682,2.682,0,0,1,.518.021l-.02.011-.013.007a3.419,3.419,0,0,0,.46.012l.108-.005c.218-.011.305-.027.51-.039l.255-.015c.375.006.869.01,1.1.007s1.4,0,2.238.037l1.118-.034c.162-.005.673,0,.739,0l.466.036c.631-.015,1.3-.036,1.484-.046s.9-.029,1.054-.014.913.046,1.279.03l.376,0,.65-.008,1.613,0,1.294-.015c.5-.005,2.343.029,2.529.017l.234-.007.211-.006c.305,0,.439,0,.292.014l.034.008c.034.008.275.015.452.021l.415.014a2.419,2.419,0,0,1,.309-.048c.108-.01,1.019-.026,1.842-.021l.693.007h.147c.145.009.208.017.14.016s-.3.021-.5.046-1.974.016-2.11.02l-.041.005-.046.005c.037.007.789.033,1.673.057l1.027-.022.434-.009c.545-.007.543-.019,0-.027s.111-.082.636-.094h.638c1.167,0,2.365.013,3.529-.011.315-.007,1,0,1.312.015l.315.012a2.731,2.731,0,0,0,.574.019c.174-.014,1.037-.049,1.547-.047s2.129-.006,2.517-.032l.43.017.111,0c.11.005.418.024.683.042l.565-.016.159,0c.348,0,.673.013.725.023a2.312,2.312,0,0,0,.466.022l.034-.009c.025-.006-.044-.014.013-.019a8.167,8.167,0,0,1,.877-.005c.894.026.209-.024.641-.025h.266c.305-.006.977,0,1.493,0l.455-.019c.128-.005.526-.009.589-.006l1,.05c.633-.04,1.513-.057,1.958-.039s2.4,0,2.74.009,1.874-.019,2.633-.016l.643-.017.094,0c.209,0,.928.015,1.6.022l1.08-.009.767-.006a5.517,5.517,0,0,0,.845.021c.348-.012,1.685,0,1.874,0s.894-.016,1.439-.026l.6.007.688.008c.791,0,1.528,0,1.641,0s.459.006.681,0,1.235-.038,1.412-.027.779.036,1.1.04,1.721,0,2.375-.017,2.422,0,2.778,0,1.437-.015,1.727-.009,1.208.023,1.38.022l.091,0,.525-.021,1.638.005c.2,0,1.066-.009,1.57-.012s1.638,0,1.707-.029l.99.029.172.005c.2,0,.746.007,1.211.006s2.031.007,2.505-.005,2.07-.027,2.39-.027l.184.006c.406.014.685.032,1.331.029l.552,0c.271-.017.666-.033.875-.036h.209l.636,0,2.164-.029.375.029c.371.029,1.042.032,1.69.01l3.089-.018.9,0c.992,0,2.085.006,2.429,0s1.161.025,1.211.012a4.559,4.559,0,0,1,.732,0c.314.022,2.432,0,3.18,0s2.822-.021,3.011-.024l.064,0,1.221.043c1.559-.008,2.959-.011,3.114-.009h.029c.439-.021.808-.034,1.576-.016l.363.008c.644-.011,1.7-.024,2.345-.029h1.371c.857,0,1.7.012,1.861.019s.685.021.754.014.592-.027,1.029-.03,1.886-.006,2.191,0l-.008.009-.03.038c.585-.005,1.565-.017,2.178-.027l.617.017c.266.007.9.008,1.091,0,.513-.021,1.091-.015,1.665-.019l.553,0,1.6-.022c.287,0,1.149.021,1.611.017s1.889-.01,2.139-.01.849-.014,1-.008,1.3.043,2.222.068l.1-.072s.525-.006.741,0l1.284.022c.6-.009,2.147-.02,3.433-.024h1.27c.14.021,1.354.027,2.7.013l1.257,0c.317,0,.265.026-.115.036l-.167,0c-.3,0-.329.008-.073.014s.977.007.977-.01a4.05,4.05,0,0,1,.874-.073c.481,0,2.169.021,2.719.016h.516c.573,0,1.211,0,1.7.012l.852.018c.8-.014,1.763-.034,2.134-.043s.968.036,1.036.037.437-.01.756-.019l.376.014a3.986,3.986,0,0,0,.968-.018l.017-.01c.346-.01.8-.006,1.016.01s1.5.006,2.2,0,2.758-.009,3.057-.007l.133-.017c.035,0,.619-.008.722,0a4.11,4.11,0,0,0,.778.031l.258-.005a14.581,14.581,0,0,1,1.574-.017l.722.015c.162,0,1.935-.005,2.066-.011a5.718,5.718,0,0,1,1.135.009l.01,0,.87.01c.329,0,1.311.011,1.424,0l.523-.031c.056,0,.575-.018,1.029-.023s1.724.015,1.783.01.783-.009,1.022,0,1.211.037,1.436.029.941-.024,1.1-.017.744.019.783.008a5.746,5.746,0,0,1,.764-.006h.322l.651,0a6.412,6.412,0,0,0,.83.013c.24-.014.987-.049,1.051-.042s.439.022.705.016,1.081-.017,1.147-.01l.052.008a5.977,5.977,0,0,0,.784.01,9.392,9.392,0,0,1,1.431-.024l.509.015,2-.029.462.023c.511.025,1.059.032,1.732.011.057,0,.3,0,.385.007l.55.027.717-.041h.9c.8,0,1.552.009,1.68.008s.7-.009,1.022-.013,1.56.032,1.97.021,1.609-.024,1.776,0,1.765-.015,2.456-.018,2.527.02,2.573.009a2.3,2.3,0,0,1,.444-.03l.064.006.061.005c.049.006.552.013,1.12.015s1.781.028,1.495.039-4.118.015-4.912.022-.73.03-.236.022l.5.009h.052c.143-.007.633-.022,1.086-.033s1.091.051,1.282.053a1.706,1.706,0,0,0,.417-.032l.057-.009c.224-.035.175-.028-.341-.036l-.631-.01c-.585.008-1.154.017-1.258.021l-.111,0-.6.016c.671-.01,1.748,0,2.394.016s2.075.023,2.463.018,1.78.008,2.134,0,.326-.044.214-.053-.656-.03-.945-.03-.714-.007-.3-.016,1.516-.04,1.589-.047.9,0,1.019,0,.661.033.911.048,1.656.045,1.771.052.292-.022.238-.033l-.143,0-.5-.011c-.55-.008-.874-.026-.717-.04l-.081,0c-.2-.013-.3-.028.127-.021l.7.011c.771,0,1.79.014,2.267.021s2.458-.018,2.738-.023.9-.011,1.292-.017l.369.007c.062,0,.187,0,.219,0l.251.012c.263.014.641.018.842.009s.943-.009,1.3,0,1.682-.009,2.21.005l.444.015c.054,0-.177.017-.209.026l-.03.008a2.156,2.156,0,0,0,.4-.014c.172-.018,1.3-.033,1.247-.038a1.867,1.867,0,0,1,.482-.022c.376,0,1.918.024,2.55.035s2.471-.014,2.6-.012a2.97,2.97,0,0,1,.366.016c-.066.006-.493.021-.714.028a4.629,4.629,0,0,0,1.307.075l.381-.038.3-.031c-.56-.04-.494-.076.145-.081l.189.007c.383.014.487.041,1.152.043a.059.059,0,0,1,.024.007c.123.044.128.043,1.132.049l.509,0a10.2,10.2,0,0,0,1.209-.017,1.424,1.424,0,0,1,.525-.07l.074,0,.378.016c.388.019.385.037-.007.041s-.29.052.014.054,1.145-.029,1.28-.023.614.023.768.022l.084,0,.123,0c.11-.005.375-.015.582-.022s1.081.029,1.255.017.81-.031,1.12-.024,1.333.018,1.544.013.75-.026.815-.013a6.4,6.4,0,0,0,.7.041l.174,0,1.113-.026,2.154.054c.159,0,.633.014.685.011s.164-.022.243-.036,1.051,0,1.312,0,.958,0,.984.011.956,0,1.255-.016,1.6-.02,1.775-.028l.182-.007c.106,0,.339-.01.363-.009l1.08.048a6.309,6.309,0,0,1,1.186-.061c.535.007,1.3.068,1.36.059s.245-.029.331-.033c.383.015.806.03,1.108.048.089.005-.2.021-.245.032l-.042.011a3.844,3.844,0,0,0,.538.025l.113,0a5.433,5.433,0,0,1,1.147.017l.008,0c.4,0,.746-.01.758-.02s.022-.031-.221-.033.138-.034.474-.038a9.006,9.006,0,0,1,1.1.067l-.052.023c-.02.009-.42.024-.631.024l-.921,0c-1.005-.007-1.8,0-1.764.013s1.538.022,1.747.037a1.619,1.619,0,0,1,.327.055,2.292,2.292,0,0,1-.535.064l-.294.014c-.359.017-.747.032-1.129.048l-.034,0c-.069,0-.11-.015-.089-.035a6.072,6.072,0,0,0-.975-.06,7.091,7.091,0,0,0-.885.054l.145.005.182.007c.228.007.307.016.174.021s-.353.024-.194.032,3.2.028,2.987.032-.4.013.054.012.832.046.975.045.477-.007.43-.012.054-.015.341-.012l.258,0c.855.022,1.255.042.889.044s-1.412.016-1.41.029.408.039.668.055,1.64.024,1.736.019.735-.015,1.108-.008a7.684,7.684,0,0,0,.968-.008,12.547,12.547,0,0,1,1.444-.12h1.336a2.845,2.845,0,0,1,.482-.023,2.437,2.437,0,0,0,.481.031c.169-.011.891-.026,1.27-.012s1.724.046,2.146.04,1.594-.045,2.469-.032l.795.01c.02,0,.091-.011.184-.015.167-.008.383-.02.55-.02l.577,0c-.137.019-.388.044-.558.055s-.02.062.9.08l.481-.055c.111-.012.693-.02,1.091-.025.155,0,.51.009.587.017a1.934,1.934,0,0,0,.486.01,8.272,8.272,0,0,1,.891,0c.16.014.327.033.216.045-.2.022-.621.04-.931.061l-.312.021c.238.021.931.047,1.543.058s1.879.016,2.333.016,2.276.054,2.544.072,1.7.03,1.786.035.076.043.019.082l.526.032.2.012c.121.016-.152.038-.6.047l-.315.015a6.7,6.7,0,0,1-.849.013l-.165-.007-.636-.02a4.964,4.964,0,0,1-.791.014C825.8,191,824.3,191,823.884,191s-1.581.024-1.032.033a13.638,13.638,0,0,1,1.381.057l.428.011.712.018c.486-.029.9-.047.926-.041s.4.02.722.023-.064.049-.582.055l-.27.014-.3.016c-.256.028-.3.054-.1.058s.277.036-.248.06-1.721.089-1.557.092.5.021.275.034h-.6a9.7,9.7,0,0,0-.97.051l.444.019a3.266,3.266,0,0,1-.742.117l-.457.015c-.5.015-.913.037-.918.049s-.622.05-.761.066l-.207.011-.464.026a1.729,1.729,0,0,1,.574.1l-.116.025-.167.035c.606,0,.857.017.553.029s-1.592.045-2.105.045h-.53l-.788,0c-.589.024-1.242.046-1.451.049l-.02,0c-.464-.035-.929.015-1.458,0-.437-.014-1.01-.021-1.572-.027h-.056c-.218.022-.752.031-1.189.019s-1.663.02-1.765.021l-.032,0c-.356-.018-.906,0-1.145-.007l-.685-.019c-.584.014-1.56.013-2.168,0l-.626.025-.113,0c-.265,0-1.275-.016-2.247-.031l-.887.029-.145,0c-.272,0-.771,0-1.11,0s-1.478-.015-1.753-.02-1.184,0-1.464.011-1.813,0-2.446,0l-.592,0c-.282,0-.668,0-.84-.006l-.422-.017c-.4.009-1.255.024-1.911.033l-.59.01c-.159,0-.26.012-.388.018l-.324.016a6.568,6.568,0,0,0-.665-.023,4.328,4.328,0,0,0-.815.078l-.042.031-.008.005c-1.113,0-2.277,0-2.586.011l.157-.006,1.095-.043c-.014.038.221.065.528.062s.329-.045.317-.06a5.974,5.974,0,0,0-.646-.064c-.142-.005-.921.021-1.233.035s1.491.081,2.893.1l.393-.016.447-.019c.4-.031,1.176-.05,1.732-.041s1.921.04,1.882.018l.1-.014.041-.005c.38,0,.653,0,.607.007s-.014.023.216.024.81.012.745.02h-.032l-.639,0c-.547.02-.631.041-.192.047l.152-.006.631-.023c.756,0,1.683.006,2.061.012s1.28-.026,1.451-.028l.1,0,.395.009c.395.011,1.053.014,1.466.008l.4.015c.123,0,.494,0,.754,0h.159a1.329,1.329,0,0,1,.317.019v.022a3.549,3.549,0,0,1-.6.066h-1.429c-1.026,0-.9.029.275.063l1.24,0,.516,0c.27-.016.768-.032,1.108-.036l.132,0,.395.015a1.536,1.536,0,0,0,.5.077l.337,0a.775.775,0,0,0,.238-.022l-.022-.006c-.224-.005-.7,0-1.066,0l-.457-.006c-.293,0-.634.015-1.267.006l-.852-.011c-1.115.012-2.353.04-2.748.063l.511.024.13.006c.267,0,1.123-.018,1.9-.049l1.059.02,1.763.049.773-.04c-.4-.029-.54-.067-.3-.082s1.132-.046,1.624-.021l.238.019c.094.007-.02.023-.149.031l-.17.012c-.2.045.089.077.644.072a6.006,6.006,0,0,1,1.186.067c-.245.009-.977.044-.525.039s4.961-.033,5.653-.047-.24-.023-1.167-.016l-.778.017-.231,0a4.05,4.05,0,0,1-.45-.005c.049-.005-.056-.023-.346-.029l-.049,0c-.315.016-.557.034-.847.05l-.219.013c.24.017.818.036,1.282.044s1.382-.042,1.506-.048a3.587,3.587,0,0,1,.633.032l.86-.018.486-.01c-1.066-.006-2.64-.02-3.5-.032s-.79-.052-.567-.063.832-.041.877-.04l.02,0a1.482,1.482,0,0,0,.363.049l.683.014a.994.994,0,0,1,.336-.06c.15-.008,2.152.009,3.549.024l1.289-.031.442-.011c-.079.019.005.04.187.047s.872.02.921.007.6-.036,1.152-.028.1.077.361.09,1.872.019,3.156-.007l1.156-.019.145,0c.374.02.778.033.885.028s.422-.018.452-.022H825l-.472-.014c-.526-.014-1.186-.025-1.466-.024h-.26c-.16,0-.361,0-.476,0-1.032-.026-.894.006-.921.031l-.007.005a.609.609,0,0,1-.216-.014c-.022-.014-1.012-.021-1.145-.029l.034-.007c.027-.006.344-.015.442-.014.575.01,1.085-.031,1.729,0l.081,0c.658-.02,1.279-.025,1.382-.012l.231.008.1,0,1.161-.03c.285-.008,1.3-.023,1.417-.01s.547.05.634.047l.147,0,.874-.012c.953-.013,2.157-.017,2.677-.008l0,0c-.049.033.407.071-.386.1-.066,0,.042.02.177.024s.5,0,.58,0c.245-.014.39-.032.6-.047l.123-.009a3.342,3.342,0,0,1,.464,0c.074.011.5.042.705.046s.886,0,1.059,0,.717.021.774.014a4.883,4.883,0,0,1,.528-.007c.165.01,1.11.025,1.577,0l.513-.017h.03c.329.015.464.033.3.041s-.467.032-.213.034.972.016.872.027-.138.047.209.05.671.026-.191.047l-.693.019c-.238.007-.477.017-.565.028s-.084.028.069.036c.138.007.574.01.806.007l.484-.007c0-.022.125-.047.275-.056l.184,0c.553-.011,2.179.02,2.239.044l.017.007-1.129.037c-.361.011-1.149.052-1.172.057a5.658,5.658,0,0,1-.575-.014l-.283,0-.248,0c-.427.015-.589.033-.358.04a4.966,4.966,0,0,1,1,.114l.042.047.045.052c-.956.03-1.775.047-1.817.038a4.273,4.273,0,0,0-.577-.021c-.231.008-.108.053-.347.055s-.815.022-.506.039h.234c.395,0,.776-.014,1.182-.017a6.521,6.521,0,0,1,.843.016.7.7,0,0,1-.309.039l-.7.012a4.584,4.584,0,0,1-1.215-.058l-1.1.01-.87.008c.358.035.321.064-.081.065s-1.554,0-1.591-.015a4.107,4.107,0,0,0-.629-.014c-.265.015-1.107.049-1.156.037a3.394,3.394,0,0,0-.568-.031c-.2.011-1.473.038-2.348.034l-.611.016-.65.017c-.627,0-1.7,0-2.39,0l-.633,0h-.211c-.238,0-1.012,0-1.722,0s-2.706.016-2.873.012-.953-.009-1.363-.011-1.459,0-1.773-.007-1.614.033-2.227.045l-.108-.045-.037-.015-1.3.027c-.283.006-.8.026-.977.014s-1.515,0-1.894.005-1.5-.008-1.726-.012-.891.019-1.031.025-.838,0-1.021-.008-1.162,0-1.761.018-2.746-.023-3.392-.026-2.308.04-2.589.042-1.346,0-1.77.015l-.771-.026c-.329-.011-1.139.007-1.731.007-.493,0-.983-.01-1.478-.011-.366,0-.744.007-1.108.012l-.838.011c-.051-.026-.049-.034.005-.017s-1.349,0-1.844.006l-.442,0-1.837-.008c-2.026-.006-4.268-.008-4.98-.006s-2.66.025-2.805.029-.845.008-1.525.013l-.184-.009c-.589-.03-1.245,0-1.624-.008l-.682-.015c-.7,0-1.589,0-1.967,0s-1.928.026-2.792.031l-.83-.021-.469-.012c-.8.009-1.675.012-1.952.007s-.951.011-1.11,0-.872-.027-1.221-.019-1.623.032-1.97.033-1.292-.007-1.569-.014-1.845.018-2.783.028-3.574-.016-3.78-.007-1.061-.014-1.272-.016-.781.006-.87,0-.412-.019-.494-.012-.67.019-1.095.007-1.894.019-2.247.021l-.207-.006c-.764-.023-1.424-.022-2.2,0-.661.019-1.363-.028-1.791-.014-.649.02-1.356.024-1.869.014-.445-.009-.627-.006-1.012,0-.251,0-.864-.013-.891-.01-.341.028-.735-.011-1,0-.277.014-.391.008-.668,0l-.557-.017-3.37.023c-1.14.007-5.081,0-5.568.006h-.449l-1.292,0c-1.412,0-2.841,0-3.17.015s-2.022-.008-2.721-.014l-.653,0c-.757,0-1.52,0-2.279,0h-.491c-.182-.016-.4-.029-.481-.029s-.494.006-.727.013-.951.026-1.2.019-1.866.012-3.009.011-4.475-.017-4.889-.02-1.694.015-1.994,0-1.754.014-2.151.016l-2.387.01c-.506,0-2-.02-2.37-.015s-1.722.006-2.09,0-2.112.005-2.868,0l-.722-.009-.577-.008c-.938.013-2.7.023-3.917.023s-5.155.005-6.064.013l-.27-.05-.022,0c-.621,0-1.063.007-.985.013s.007.027-.38.026-1.842.009-2.424.018l-.644-.015-.363-.009c-.236-.012-.59-.023-.788-.023l-.083,0c-.175.007-.321.026-.412.025l-1.813-.014c-1.987.017-3.642.021-3.672.009a6.948,6.948,0,0,0-.9-.032l-.349,0a5.332,5.332,0,0,0-.778.035c-.309.007-.73,0-1.088.005-.412,0-.8.013-1.211.015l-.245,0-1.247-.017c-.393,0-1.424.006-1.667.011s-1.37-.006-1.732,0-2.178.009-3.21.022l-.914-.031c-.224-.008-.849-.007-1.088,0l-.764.025c-.8-.012-1.877-.025-2.4-.029l-.062.006c-.471.042-1.1-.013-1.646.007l-.52.019c-.577-.015-1.683-.034-2.459-.041l-.737.023-.518.016c-.4-.026-1.184-.042-1.749-.036l-.167.012c-.388.027-.693-.012-1,0l-.1,0c-.121,0-.771,0-1.447-.006s-4.367.014-4.568.016l-.069,0c-.467-.02-1.061-.031-1.557-.011-.614.024-.742-.021-1.331-.01l-.449.008c-.66-.012-2.087-.016-3.173-.009l-1,0c-.59,0-1.554.006-1.71-.006l-.425-.032c-.442.014-.94.025-1.1.024s-.833,0-1.326,0h-.422c-.386,0-.781.012-1.186.017h-.051c-.137-.012-.4-.027-.59-.034s-.651.022-.811.036l-.444,0-.557,0-2.373.007-.651,0-.653,0c-.746,0-1.392-.006-1.437-.017a1.574,1.574,0,0,0-.211-.038,1.8,1.8,0,0,0-.228.019,7.036,7.036,0,0,1-.776.037l-.111-.006a10.87,10.87,0,0,0-1.444,0l-.093,0c-.1,0-.889.009-1.751.012s-3.116-.034-3.379-.026-.773-.008-.528-.018.7-.04.243-.035-1.479.042-1.653.055h-.155c-.336,0-.668-.011-1-.012-.3,0-.592.011-.9.012-.363,0-.8,0-1.1,0l-1.059-.023c-1.13.013-2.38.025-2.782.026l-.326,0c-.528-.008-1.732-.021-2.217-.013l-1,.017c-.907-.02-1.766-.026-1.909-.015s-2.331,0-3.644,0h-2.124c-.985,0-2.5,0-3.365.015l-.835-.013c-.457-.007-1.645-.023-2.007-.033-.181,0-.724,0-.732,0a5.253,5.253,0,0,1-1.135.016l-.046,0c-.078,0-.859.007-1.734.019l-.671-.008c-.822-.01-1.457-.021-2.218.005-.194.007-.7,0-1.047-.005l-.272,0c-.285-.005-.778,0-1.1.007s-1.776-.007-2.168-.009-2.119,0-2.954,0l-.614-.03c-.014,0-.2.007-.31.008l-1.886.016c-1.019-.012-1.985-.022-2.152-.022s-1.49.005-2.748.005l-1.13.008h-.113a2.957,2.957,0,0,0-.53-.013c-.084.013-1.97.022-3.124.03l-.921-.034-.078,0c-.273.006-1.031.012-1.683.013l-.589-.01c-.488-.008-.886.04-1.532.007-.106-.005-.5,0-.757,0-.164,0-.329.005-.482,0l-.265,0c-.268,0-.973,0-1.567.009l-.361-.023c-.5-.032-.865.02-1.469,0a6.06,6.06,0,0,1-.644-.067c-.17-.008-.756-.008-1.026,0l-.545.012a4.351,4.351,0,0,0-.719.04c.14,0,.046.014-.577.02l-.567-.005c-.344,0-.685-.012-1.017-.012l-1.039,0c-.627-.032-1.14-.048-1.14-.037a7.8,7.8,0,0,1-1.115.057c-.612,0-1.982-.039-2.06-.033l-.091,0-.157.008c-.174.008-.845.012-1.488.009s-2.471-.022-2.679-.03-.842-.009-.87,0-.931.013-.977.013a.863.863,0,0,1-.255-.056l-.958.029c-.442.014-1.022.02-1.56.026l-.277,0a5.668,5.668,0,0,1-.827-.034l.01-.015c.008-.017.032-.034-.538-.031-.592,0-.305.024-.38.038l-.034.006a3.181,3.181,0,0,1-.454,0c-.137-.01-.813-.021-1.108,0l-.238.014c-.106.006-.331.013-.489.013h-.147c-.135-.009-.331-.028-.432-.044s-.984-.022-.793-.017-.049.043-.963.074l-.811-.039-.322-.015c-.329.007-.852.02-1.161.03s-1.916-.022-2.06-.026h-.26c-.14,0-.2.01-.138.014s-.518.025-1.511.034l-.533-.014-.827-.021c-.791.008-1.368.006-1.28,0a7.879,7.879,0,0,0-1.336-.091l-1.242.034-.761.021c-1.248-.019-1.989-.033-1.645-.032l.029,0,.356-.04,1.609.018c.118,0,.2-.031-.621-.028l-.452-.014-1-.031c-.3.031-.574.051-.6.044s-.309-.026-.558-.028-.8.022-.862.028-.628.032-1.021.047-.983.089-1.042.074a4.954,4.954,0,0,0-.685-.05c-.265,0-1.128-.005-1.319-.009s-.654.006-.4.012.921.03.955.037l-.046.006c-.027,0-.213.008-.285.007l-.464-.007c-.6-.01-1.1-.028-1.1-.04a1.9,1.9,0,0,0-.506-.039,4.59,4.59,0,0,0-.6.062c-.1.013-1.142.006-1.247,0s-.337-.033-.027-.061.434-.086-.02-.058-1.866.092-2.161.082-.948.023-1.083.035-1.268.016-1.447,0,1.285-.042,1.675-.049,1.51-.029,1.6-.036.164-.033.125-.041H493.5c-.191,0-.508,0-.594,0l-.317.016c-.292.02-.617.035-.725.034s-.415-.012-.435-.022-.471-.043-.628-.053-.668-.032-.778-.028-.727.025-1.058.045h.383l.876,0c.371.026.676.05.681.054s-.28.02-.654.021l-.339,0-.277,0c-.294,0-.633.011-.752.014s-.59-.01-.766,0-.719.012-.874,0-1.039-.047-1.51-.03l-.324.012-.341.012c-.273-.01-.914-.028-1.422-.041l-.317-.021-.315-.021-1.4.035-.142.009-.278.017c-.268.023-.9.035-1.4.027s-1.371-.043-1.7-.048a9.639,9.639,0,0,0-.98.011l-.113.005c-.219.01-.629.013-.894.023l-.068,0c.133.013.125.026-.017.029s-.555-.008-.7-.022-1.371-.049-2.319-.043l.088.055c.024.016-1.066.023-1.26.007s-.13-.029.42-.032a2.168,2.168,0,0,0,.385-.025l-.228-.022c-.2.014-.827.023-1.4.02s-2.107.023-2.3.019l-.2,0c-.25,0-.592-.006-.764,0l-.707.02-1.591-.025c-.143,0-.838,0-1.456,0l-.484-.017-.155-.005a6.28,6.28,0,0,0-.654.013c-.059.012-.749.052-1.351.053s-2.24,0-2.3,0l-.073,0-.091.006a2.236,2.236,0,0,1-.294,0l-.074,0-.192-.013c-.207-.013-.865-.01-1.459.007l-.078,0-.558-.025c-.391.016-.9.025-1.12.021s-1.257,0-1.68,0-1.839.019-2.2.023-1.495-.013-1.979,0l-.577-.025-.43-.019c-.712.013-1.768.023-2.346.023l-.508.013-.521.013c-.54-.011-1.248-.031-1.574-.046l-.427.026c-.371.023-.734-.011-1.091-.011-.393,0-.989.022-1.144.016-.6-.021-1.252-.019-1.9-.017-.786,0-1.667-.015-2.343.017l-.069,0c-.2,0-.648-.008-1-.014s-1.835-.015-2.537,0l-.6,0q-1.875-.014-3.679-.043c-.263,0-.375-.025-.59-.037-.113-.006-.307-.014-.457-.014-.294,0-.616.011-.86.008l-.169,0c-.1-.016-.531-.034-.965-.04s-1.731,0-2.033.005l-.294-.01c-.621-.021-1.388-.026-2.652-.026a1.667,1.667,0,0,1-.3-.023c.272-.015.778-.027-.189-.031-.44,0-.4-.023-.069-.036l.162-.007c.157-.008.18-.024.056-.035a5.618,5.618,0,0,1,.756-.019c.241.009,1.157-.005,1.4,0l.127.011c.091.008-.039.02.035.028.059.007.261.013.433.015l.094,0c.155,0,.5-.021.769-.038s.882-.075.727-.09-1.53,0-1.915-.007l-.047-.009-.13-.024a7.489,7.489,0,0,0-.84-.02,4.213,4.213,0,0,1-.754.043c-.395-.018-2.066-.045-2.321-.055s.449-.048.779-.037,1.324.037,1.479.032.491-.035.715-.054l.594.018c.177.005.665.006.735,0,.219-.014.179-.025-.331-.034l-.378-.007c-.334-.025-.332-.052.007-.061l.2-.012.116-.007a3.867,3.867,0,0,0-.444-.032c-.165,0-1.166-.03-1.953-.036l-.18.03-.29.048a5.8,5.8,0,0,1-1.027-.031c.246,0,.688-.018.6-.022l-.97-.042-.336-.013-.3-.012c-.386.006-1.022,0-1.414-.01l-.4,0c-.435,0-.908,0-1.363,0-.761,0-1.542,0-2.277,0-.714.006-1.263-.018-1.989-.01-.361,0-.874-.009-1.245-.019l-.509-.014c-.6,0-1.7,0-2.458-.011s-3.271-.061-4.141-.074l-.821-.009-.558-.006c-.636,0-1.459-.009-1.829-.014l-.346-.009-1.39-.036c.224-.04.533-.088.69-.107l-1.034.008c-.509,0-.779-.008-.67-.03l.074-.015c.086-.016.032-.036-.121-.044s-.523-.034-.32-.039.941-.031,1.223-.046l-.573-.009c-.477-.008-.676-.018-.445-.032l.415-.024a13.494,13.494,0,0,1-1.4-.133l-.855-.048-.2-.011c.342-.032.422-.06.179-.061s-.612-.016-.307-.03.008-.061.233-.063.838-.031.658-.054l-.154-.022c-.162-.023-.484-.047-.408-.069a8.736,8.736,0,0,1,.887-.06c.27-.011,1-.005,1.139-.016l.3-.023,1.228.007c.243,0,1.392-.053,1.621-.048s1.57-.017,2.044-.019l.457-.008c.356-.006,1.012.016,1.3.009.491-.012.71-.01,1.156,0,.275.008.864,0,1.2,0l.994-.022a12,12,0,0,0,1.554-.019l1.4.011.226,0c.3-.009.7-.012.891-.008s1.323,0,2.129-.029l1.145.027c.356.008,1.285-.016,1.483-.007l.636.028c.482-.016,1.348-.04,1.923-.054l.491-.005c.5-.005,1.191-.005,1.721,0,.879.008,1.64.017,2.495-.006l.668-.018c.894,0,1.705,0,1.8.01l.108.006.211.012a8.976,8.976,0,0,0,.956-.013c.277-.021,2.245,0,2.883,0s2.518-.038,3-.04h.452c1.048,0,1.587,0,2.051-.009.192,0,.393-.011.575-.01l.346,0c.307-.007.933-.018,1.393-.024l.385,0,.317,0a1.233,1.233,0,0,0,.486-.013l.887.007c.538,0,1.209.012,1.69-.013.032,0,.3,0,.3,0,.035.016.062.036.582.028.241,0,.3-.028.547-.033.572-.011,1.209-.021,1.825-.022h.715c.813,0,1.743,0,2.065,0s1.464-.014,1.759-.013,1.268,0,1.387,0,.607-.019.651-.012.459.021.791.014,1.42-.019,1.626-.012,1.021.028,1.228.023.614-.032.838-.044,1.3-.006,1.684-.012h.879c.563,0,1.513,0,2.109.01l.568,0c.152,0,.347,0,.477,0l1.235-.033c.739.024,1.371.036,1.409.026a5.817,5.817,0,0,1,.739-.029l.255,0,.246,0c.292,0,.816-.015,1.169-.032l.592,0h.234c.253-.015.228-.038-.057-.051l-.309,0a2.279,2.279,0,0,0-.611.028c-.047.006-.513.007-.791.009-.6,0-1.358.021-1.771.011-.685-.016-1.316-.007-1.958-.01-.68,0-1.37,0-2.053,0s-1.378,0-2.053,0c-.965.005-1.3-.028-1.795-.05l-.577-.025c-.622,0-1.4,0-1.734.01s-.849.007-1.1.009-1.081-.024-1.338-.031-1.265-.025-1.449-.015l-.125.011c-.194.017-.175.017.479.018.108,0,.31,0,.31,0a.159.159,0,0,1-.106.025,10.39,10.39,0,0,1-1.2-.015l-.049-.018c.1-.023.228-.045.268-.051s.005-.018-.172-.016l-.162,0-.626.006-.822.008c.331.022.164.05-.371.063s-2.158.012-2.176,0l.042-.008.073-.013c.123-.014.057-.026-.148-.025a3.655,3.655,0,0,1-.761-.05l-.169,0-1.569-.025a9.551,9.551,0,0,1,1.432-.09l.344.006c.327.005.624.014.96.018.179,0,.447,0,.6-.006l.395-.013c.5,0,1.164-.015,1.479-.029l-.017-.012-.02-.013c-.351-.012-.98-.023-1.4-.023l-.273.008a2.938,2.938,0,0,1-.575.029l-.395-.005c-.391-.016-.843-.017-1.007,0s-1.135,0-1.091-.007.035-.021-.17-.021-.864.007-.9.016a3.326,3.326,0,0,1-.435.033l-.03,0c-.086-.008-.064-.019-.182-.026l-.469-.027-1.635,0c-.116,0-.294-.035.3-.072l.833.021.641.016c.714,0,1.312-.015,1.331-.032s-.113-.064-.337-.064a4.6,4.6,0,0,0-.626.017l.062.008.059.008c-.056.013-.432.019-.842.013s-1.1-.026-.616-.035l.017-.008a3.606,3.606,0,0,0-.513-.038c-.051,0-.425.012-.636.011s-.44-.01-.6-.018c-.029,0,.191-.013.319-.019l.03,0,1.57.013c.757.007,2.8-.025,2.994-.018h.174c.226,0,.444-.009.641-.015.059,0,.074-.01.032-.013l-.062-.005c-.127,0-.061-.012.147-.017s.926-.012,1.085-.006.72.019.872.012.793-.011,1.027.007.9.065.943.064.04-.03-.113-.064l-.064-.031-.013-.006c.287-.008.656-.01.822,0l.067.007.177.019a4.506,4.506,0,0,0,.892-.014l.41-.017.479-.019a5.253,5.253,0,0,1,.6-.035c.089.006.737.027,1.156.027l.38.008.361.008c.567,0,1.029,0,1.029-.014a1.041,1.041,0,0,1,.354-.031l.187,0c.437.009.875.022,1.323.023.219,0,.45-.033.7-.034h.445c.53,0,1.085,0,1.233.008a4.512,4.512,0,0,0,.72-.029l.074-.018.084-.02c.2-.021,1.15-.025,2.119-.009l1.1-.044c.661-.026,1.216-.072,2.378-.027h.035c.5-.02,1.123-.025,1.393-.012l.3.009.145,0,1.053,0c.339,0,1.405-.022,1.825-.027s1.97-.009,2.493-.01,1.736-.033,2.028-.021.958.049.9.058.093.041.52.04l.418,0,.687,0c.418-.02.975-.052,1.235-.07s1.154-.064,1.35-.057l.159,0,.8.019a7.018,7.018,0,0,1-.719.056l-.111.011-.086.009a3.912,3.912,0,0,0,.445.02c.145,0,.913-.029,1.515-.051l.82.016.233,0c.236.006.622-.005.857-.026s1.177-.071,1.5-.061l.314,0,.563.007c.494.016,1.115.03,1.378.033a1.737,1.737,0,0,1,.361.051c.118.007.57.009.649.017s.744,0,.825-.018,1.2-.01,1.437-.007,1.15-.017,1.974-.008l.778,0,.734,0c.789.009,1.572,0,1.737-.01s-.417-.061-.332-.072m320.506.421c.351-.026.111-.056-.53-.069l-.54,0-.8-.007c-.9,0-1.373,0-1.053.017s2.573.089,2.923.063m8.083.253c.13-.006,0-.041-.288-.077h-2.343c-.528.035-.641.079-.248.1l.191,0,.506-.005c.508-.015,1.037-.022,1.184-.016s.867.009,1,0M828.144,193c.213,0,.671-.016,1.019-.042s-.737-.087-.567-.092l-.008,0-.044-.02c-.515-.007-1.012-.008-1.1,0s.236.036.361.048-.074.046.138.06-.01.049.2.051M456.21,190.778a3.4,3.4,0,0,1-.585.012c-.3-.008-.1.03.639.028l.651,0,1.243.007c.44-.031.481-.052.089-.048s-1.478-.008-1.538-.018-.246-.035-.288-.034a.819.819,0,0,0-.211.05m16.032-.438c.278-.026-.177-.047-1.01-.046l-.518-.027h-.024c-.319.009-.639.026-.712.038s.977.036,1.284.04v0a1.757,1.757,0,0,0,.654.011Zm323.1.034a.631.631,0,0,0-.258-.011c-.121.011-.656.027-.99.016s-1.486-.016-1.363-.01.2.021.022.028-.294.025.584.013l.383.008.547.011a6.362,6.362,0,0,0,1.076-.055m33.231,2.241a6.041,6.041,0,0,0,.693-.009,4.926,4.926,0,0,0-.636-.071l-.381.016-.714.03c-.623-.007-1.286-.012-1.473-.012l-.067,0c-.062,0-.041.015.039.017.4.012.827.023,1.238.034l.12,0c.11,0,.887-.022,1.181-.013m-366.1-2.239c.575.007,1.043.009,1.032,0a.9.9,0,0,1,.226-.042,2.4,2.4,0,0,0-.592-.01l-.589-.018c-.541-.016-.715.019-1.078.03-.378.011-.307.025.01.039a7.787,7.787,0,0,0,.83,0ZM785.267,192.3c-.2.009-.007.013.437.009s1.633.035,2.122.034.639-.053.1-.055-2.458,0-2.662.013m-110.826,1.1a2.4,2.4,0,0,0-.471.013.574.574,0,0,1-.268.043c-.147,0-.649,0-.639.012a.23.23,0,0,0,.091.033c.029,0,1.061,0,2.23-.016l-.062-.022-.04-.014c.012-.015-.582-.042-.84-.048m90.357-3.385c.287.012.8.005,1.144-.014l.1-.016c.069-.012-.079-.028-.238-.039-.208-.015-.518-.021-.929-.008l-.309.01c-.5.01-.051.055.236.066m-9.436,0a6.013,6.013,0,0,0,.943-.036c-.094-.013-1.137-.033-1.412-.027s-.147.07.469.063m78.394,2.731c.125-.021-.25-.031-.837-.021l-.471.012c-.375.009-.712.023-.11.041l.16,0c.064.019,1.13-.016,1.257-.037m-329.674-2.543c-.543.012-.292.031.555.042l.587.01c.584.01.811-.009,1.086-.022.111-.005.1-.017.066-.025s-1.677-.017-1.857-.013Zm-59.676.444a5.768,5.768,0,0,0-.614-.024c-.27,0-.828.01-1.226.02a8.736,8.736,0,0,0-.909.069l.088,0,.086,0c.165,0,.973-.02,1.793-.045l.724-.024Zm55.665-.385a3.616,3.616,0,0,0,.628.009c.385-.008,1.356-.036,1.5-.047l-.26-.014a2.743,2.743,0,0,0-.6-.029l-.531,0a7.078,7.078,0,0,0-.741.077m160.693-.193c.483.013.525.012.093,0s-1.41-.055-1.548-.04.067.059.724.072l.145-.006Zm-127.819.153a4.745,4.745,0,0,0,.629-.009c.317-.017.418-.069-.007-.065s-1.439.021-1.463.025.037.016.186.015.624.022.655.033m59.9-.111c-1.056,0-1.6.012-1.2.035l.619-.006c.6-.006,1.177-.016,1.743-.026.073,0,.044-.017-.014-.024-.027,0-.305-.008-.356-.006Zm-154.8,3.013c.206-.02.315-.051.241-.07l-.616.007a4.684,4.684,0,0,1-.58,0,4,4,0,0,0-.822-.02l-.084,0c.192.019.643.046,1,.06l.388.007Zm340.24-.952a3.537,3.537,0,0,0-.791-.028l-.337.008-.38.009c-.263.02-.334.048-.158.061h.212l.3,0c.339-.008,1.031-.039,1.159-.052m-58.89-2.167c.243-.018.088-.025-.344-.015s-1.511,0-1.7.009l0,.006c0,.014-.231.032.339.039l.3,0c.351.007,1.156-.025,1.4-.043m66.96.395c-.535-.021-.562-.027-.062-.012s2.082.037,2.217.032-.071-.032-.827-.047l-.4.008Zm-56.1-.357c.428.012.767.016.754.008s.088-.031.15-.038a2.4,2.4,0,0,0-.639-.031c-.506,0-.693.048-.265.06m-63.3.006c-.425,0-.339.019.2.042l.56.009.169,0c.538-.029-.5-.053-.926-.053M502.075,193.16c-.476,0-.751.012-.609.027s.869.043,1.343.035-.256-.062-.734-.062m287.684-.657c.072,0-.091.015-.368.025s-.341.041.081.032l.359-.007.435-.009c.584-.007.784-.025.449-.039l-.293-.012c-.1,0-.223-.011-.332-.011h-.2c-.218,0-.206.017-.133.021m-6.707-.295c.587,0,.783-.013.433-.024s-1.631,0-2.107,0,1.085.023,1.673.021m-134.466-2.124a8.517,8.517,0,0,0,1.437-.034l-1.012-.02-.233,0a6.154,6.154,0,0,0-.725.036l.052,0Zm-164.489.6c-.219.008-.213.021.013.029s1.189.029,1.565.033l.351,0c.1,0,.267-.006.312-.011s.059-.016-.018-.018l-.506-.017c-.594-.016-1.5-.026-1.717-.018m-31.065.132c-.72-.038-1.471-.037-2.358-.021a16.837,16.837,0,0,0,2.358.021" transform="translate(-393.29 -189.867)" fill="#ebd4b6"/>
</svg>
