<svg xmlns="http://www.w3.org/2000/svg"> 
<symbol id="FBattach" viewBox="0 0 64 64"> 
<path d="M57.945,30.474L39.634,48.785c-3.79,3.786-9.953,3.786-13.738,0c-3.787-3.785-3.785-9.948,0-13.733L44.207,16.74&#10;l3.052,3.052L28.95,38.103c-2.108,2.103-2.108,5.526-0.002,7.63c2.103,2.108,5.526,2.108,7.63,0l18.315-18.311&#10;c5.046-5.05,5.046-13.261,0-18.311c-5.05-5.05-13.266-5.05-18.315,0L9.108,36.577c-5.05,5.05-5.05,13.266,0,18.315&#10;c5.05,5.046,13.264,5.046,18.313,0l0.007-0.009c1.621,0.67,3.347,0.999,5.073,1.033l-2.027,2.027&#10;c-6.743,6.741-17.675,6.741-24.417,0c-6.742-6.744-6.742-17.675,0-24.419L33.525,6.059c6.744-6.744,17.675-6.744,24.419,0&#10;C64.685,12.798,64.685,23.729,57.945,30.474L57.945,30.474z M57.945,30.474"/> 
</symbol>
<symbol id="FBinfosvg" viewBox="0 0 64 64">
<path d="M45.026,1H16.64C8.572,1,2.007,7.757,2.007,16.068v2.265c0,1.007,0.817,1.824,1.824,1.824s1.824-0.817,1.824-1.824v-2.265&#10;c0-6.297,4.929-11.421,10.986-11.421h25.788v12.347c0,2.83,2.256,5.133,5.027,5.133h10.986v25.8c0,6.301-4.929,11.425-10.986,11.425&#10;H16.64c-6.057,0-10.986-5.124-10.986-11.425V33.135c0-1.007-0.817-1.824-1.824-1.824s-1.824,0.817-1.824,1.824v14.792&#10;C2.007,56.238,8.572,63,16.64,63h30.815c8.068,0,14.633-6.762,14.633-15.072V18.642L45.026,1z M47.455,18.48&#10;c-0.76,0-1.379-0.665-1.379-1.487V7.332L56.861,18.48H47.455z M17.369,22.127h12.81c1.007,0,1.824-0.817,1.824-1.824&#10;c0-1.007-0.817-1.823-1.824-1.823h-12.81c-1.007,0-1.824,0.817-1.824,1.823C15.545,21.311,16.362,22.127,17.369,22.127z&#10;M17.369,33.823h28.825c1.007,0,1.823-0.817,1.823-1.823c0-1.007-0.817-1.824-1.823-1.824H17.369c-1.007,0-1.824,0.817-1.824,1.824&#10;C15.545,33.007,16.362,33.823,17.369,33.823z M17.369,45.515h28.825c1.007,0,1.823-0.817,1.823-1.824s-0.817-1.824-1.823-1.824&#10;H17.369c-1.007,0-1.824,0.817-1.824,1.824S16.362,45.515,17.369,45.515z M3.83,27.542c1.06,0,1.918-0.888,1.918-1.984&#10;S4.89,23.575,3.83,23.575s-1.918,0.888-1.918,1.984S2.771,27.542,3.83,27.542z"/>
</symbol>
<symbol id="FBscreenshot" viewBox="0 0 64 64"> 
<g><path d="M48.86,8.433v8.581h4.834V8.433c0-4.065-3.31-7.372-7.378-7.372h-8.576v4.834h8.576C47.719,5.895,48.86,7.033,48.86,8.433 L48.86,8.433z"/> 
<polygon points="48.864,21.848 53.699,21.848 53.699,32.967 48.864,32.967 48.864,21.848 &#9;"/> 
<path d="M5.834,8.443c0-1.402,1.138-2.543,2.538-2.543h8.581V1.066H8.372C4.307,1.066,1,4.375,1,8.443v8.576h4.834V8.443 L5.834,8.443z"/> 
<polygon points="21.788,1.06 32.906,1.06 32.906,5.895 21.788,5.895 21.788,1.06 &#9;"/> 
<polygon points="21.788,48.92 32.906,48.92 32.906,53.754 21.788,53.754 21.788,48.92 &#9;"/> 
<path d="M5.839,46.382v-8.581H1.005v8.581c0,4.065,3.31,7.372,7.378,7.372h8.576V48.92H8.383C6.98,48.92,5.839,47.782,5.839,46.382 L5.839,46.382z"/> 
<polygon points="1,21.848 5.834,21.848 5.834,32.967 1,32.967 1,21.848 &#9;"/> 
<polygon points="53.694,48.92 53.694,37.801 48.86,37.801 48.86,48.92 37.741,48.92 37.741,53.754 48.86,53.754 48.86,62.94 53.694,62.94 53.694,53.754 63,53.754 63,48.92 53.694,48.92 &#9;"/></g> 
</symbol>
<symbol id="FBClose" viewBox="0 0 64 64">
<g><path d="M44.03,3.446c3.834,1.632,7.139,3.834,9.915,6.61c2.776,2.776,4.978,6.081,6.61,9.915C62.182,23.76,63,27.77,63,32&#10;s-0.818,8.241-2.446,12.03c-1.632,3.834-3.834,7.139-6.61,9.915c-2.776,2.776-6.081,4.98-9.915,6.61C40.238,62.184,36.23,63,32,63&#10;s-8.241-0.816-12.03-2.446c-3.834-1.63-7.139-3.834-9.915-6.61c-2.776-2.776-4.982-6.081-6.61-9.915C1.814,40.241,1,36.23,1,32&#10;s0.814-8.24,2.446-12.03c1.628-3.834,3.834-7.139,6.61-9.915s6.081-4.978,9.915-6.61C23.759,1.816,27.77,1,32,1&#10;S40.238,1.816,44.03,3.446z M32,6.618c-3.437,0-6.721,0.684-9.849,2.049c-3.131,1.322-5.841,3.107-8.13,5.354&#10;c-2.247,2.293-4.032,5.003-5.354,8.13C7.3,25.281,6.618,28.563,6.618,32s0.682,6.721,2.049,9.849&#10;c1.322,3.129,3.107,5.839,5.354,8.13c2.289,2.247,4.999,4.032,8.13,5.354c3.127,1.367,6.412,2.049,9.849,2.049&#10;s6.718-0.682,9.849-2.049c3.127-1.322,5.838-3.107,8.13-5.354c2.247-2.291,4.032-5.001,5.354-8.13&#10;c1.364-3.127,2.049-6.412,2.049-9.849s-0.685-6.719-2.049-9.849c-1.322-3.127-3.107-5.838-5.354-8.13&#10;c-2.293-2.247-5.003-4.032-8.13-5.354C38.718,7.302,35.437,6.618,32,6.618z M41.981,22.019c0.571,0.529,0.859,1.19,0.859,1.983&#10;s-0.289,1.454-0.859,1.983L35.966,32l6.015,5.949c0.571,0.574,0.859,1.235,0.859,1.983c0,0.793-0.289,1.454-0.859,1.983&#10;c-0.574,0.574-1.235,0.859-1.983,0.859c-0.793,0-1.454-0.264-1.983-0.793L32,35.966l-5.949,6.015&#10;c-0.574,0.529-1.256,0.793-2.049,0.793c-0.751,0-1.412-0.264-1.983-0.793c-0.529-0.572-0.793-1.233-0.793-1.983&#10;c0-0.793,0.264-1.475,0.793-2.049L28.034,32l-6.015-6.015c-0.529-0.529-0.793-1.19-0.793-1.983c0-0.748,0.264-1.409,0.793-1.983&#10;c0.571-0.572,1.232-0.859,1.983-0.859c0.793,0,1.475,0.287,2.049,0.859L32,28.034l6.015-6.015c0.529-0.572,1.19-0.859,1.983-0.859&#10;C40.746,21.16,41.407,21.447,41.981,22.019z"/>  </g> 
</symbol>
<symbol id="FBrefresh" viewBox="0 0 64 64">
<g><path d="M36.429,5.429C21.755,5.429,9.857,17.327,9.857,32H1l11.81,11.809L24.619,32h-8.857c0-11.411,9.256-20.667,20.667-20.667&#10;S57.095,20.589,57.095,32s-9.256,20.667-20.667,20.667c-4.473,0-8.591-1.432-11.987-3.853l-4.178,4.237&#10;c4.488,3.454,10.082,5.521,16.164,5.521C51.102,58.571,63,46.673,63,32C63,17.327,51.102,5.429,36.429,5.429L36.429,5.429z"/></g> 
</symbol>
<symbol id="noti_icon_feback" viewBox="0 0 43 32">
<path d="M41.813 1.493c-1.067-1.067-2.773-1.067-3.84 0l-23.467 23.467-9.6-9.387c-1.067-1.067-2.773-1.067-3.84 0s-1.067 2.773 0 3.84l11.52 11.52c0.64 0.64 1.28 0.853 1.92 0.853s1.493-0.213 1.92-0.853l25.6-25.6c0.853-1.067 0.853-2.773-0.213-3.84z"/>
</symbol>
<symbol id="alert_icon_feback" viewBox="0 0 32 32">
<path d="M16.002 0c-8.837 0-16.001 7.163-16.001 15.997 0 8.839 7.164 16.003 16.001 16.003s15.998-7.165 15.998-16.003c0-8.835-7.161-15.997-15.998-15.997zM16.002 30.361c-7.934 0-14.362-6.431-14.362-14.365 0-7.93 6.428-14.36 14.362-14.36 7.932 0 14.361 6.429 14.361 14.36-0.001 7.934-6.43 14.365-14.361 14.365z"/>
<path d="M17.828 19.635l0.7-14.395h-5.020l0.698 14.395z"/>
<path d="M16.019 21.223c-1.683 0-2.861 1.178-2.861 2.891 0 1.651 1.143 2.893 2.797 2.893h0.064c1.715 0 2.825-1.242 2.825-2.893-0.030-1.713-1.143-2.891-2.825-2.891z"/>
</symbol>
</svg>