<svg xmlns="http://www.w3.org/2000/svg" xmlns:xlink="http://www.w3.org/1999/xlink" width="938.414" height="844.027" viewBox="0 0 938.414 844.027">
  <defs>
    <clipPath id="clip-path">
      <rect id="Rectangle_425" data-name="Rectangle 425" width="564" height="769" rx="10" transform="translate(885 5850)" fill="#5a3844"/>
    </clipPath>
  </defs>
  <g id="Mask_Group_5" data-name="Mask Group 5" transform="matrix(0.438, -0.899, 0.899, 0.438, -5645.904, -1262.119)" clip-path="url(#clip-path)">
    <g id="Group_239" data-name="Group 239" transform="matrix(0.961, 0.276, -0.276, 0.961, -1037.814, 5272.244)" opacity="0.25">
      <path id="Path_1437" data-name="Path 1437" d="M1121.41-84.767c-57.852,52.592-273.644,222.175-113.237,329.113s283.3-74.889,328,44.32,46.731,159.421,152.518,153.394,11.833-208.616,165.009-153.394,168.394,188.4,226.191,220.833" transform="translate(1054.135 -173.9)" fill="none" stroke="#fbf2e6" stroke-width="5"/>
      <path id="Path_1438" data-name="Path 1438" d="M1026.622-32.7S845.99,146.689,1006.4,253.627s283.3-74.889,328,44.32,46.731,159.421,152.518,153.394,11.833-208.616,165.009-153.394,168.394,188.4,226.191,220.833" transform="translate(1103.572 -147.078)" fill="none" stroke="#fbf2e6" stroke-width="5"/>
    </g>
  </g>
</svg>
