<svg xmlns="http://www.w3.org/2000/svg" width="33.64" height="53.816" viewBox="0 0 33.64 53.816">
  <g id="Group_2304" data-name="Group 2304" transform="translate(101.478 -661.8)">
    <path id="Path_19905" data-name="Path 19905" d="M-84.687,697.969c-2.576,0-5.152-.011-7.727.011-.464,0-.669-.1-.808-.585a20.87,20.87,0,0,0-3.866-7.414,19.05,19.05,0,0,1-3.813-7.005,16.845,16.845,0,0,1,9.666-19.843,16.831,16.831,0,0,1,23.023,12.043A16,16,0,0,1-71.6,688.964a23.987,23.987,0,0,0-4.611,8.635c-.1.349-.294.375-.585.374Q-80.742,697.963-84.687,697.969Z" transform="translate(0 0)" fill="#101010" fill-rule="evenodd"/>
    <path id="Path_19906" data-name="Path 19906" d="M-37.686,965.994H-22.4c0,1.437.032,2.844-.016,4.248-.019.56-.477.82-1.007.853a.488.488,0,0,0-.534.437,6.25,6.25,0,0,1-6.032,4.733,6.457,6.457,0,0,1-6.081-4.646.609.609,0,0,0-.635-.538.955.955,0,0,1-.971-1.012C-37.705,968.73-37.686,967.39-37.686,965.994Z" transform="translate(-54.655 -260.648)" fill="#101010" fill-rule="evenodd"/>
    <path id="Path_19907" data-name="Path 19907" d="M-39.18,931.564h15.734c-.072.846-.143,1.688-.217,2.558H-38.947C-39.024,933.277-39.1,932.436-39.18,931.564Z" transform="translate(-53.38 -231.147)" fill="#101010" fill-rule="evenodd"/>
  </g>
</svg>
