<svg xmlns="http://www.w3.org/2000/svg" width="98.457" height="49.239" viewBox="0 0 98.457 49.239">
  <g id="Group_2308" data-name="Group 2308" transform="translate(-1518 -3894.197)">
    <g id="Group_2298" data-name="Group 2298" transform="translate(991.25 3701.438)">
      <path id="Path_19816" data-name="Path 19816" d="M625.207,218.137a4.922,4.922,0,0,0-2.745,4.289c-.215,2.135-1.036,2.9-3.227,3.2-.719.1-.482.67-.528,1.029a19.045,19.045,0,0,1-2.64,7.65,15.2,15.2,0,0,1-10,7.049,23.725,23.725,0,0,1-13.081-.6c-6.312-2.159-9.737-6.861-11.221-13.172a9.779,9.779,0,0,1-.282-1.606c-.077-1.232-.224-2.389-1.525-3.009-.228-.109-.369-.435-.512-.682a4.131,4.131,0,0,0-5.917-1.443,1.533,1.533,0,0,0-.693.76,3.5,3.5,0,0,1-1.77,2.059c-.576.279-.4.827-.447,1.268a20.587,20.587,0,0,1-3.361,9.592c-3.07,4.488-7.508,6.614-12.772,7.244a23.448,23.448,0,0,1-9.432-.625c-6.581-1.919-10.154-6.545-11.575-13.058a2.588,2.588,0,0,1-.084-.472c-.035-1.2-.22-2.113-1.805-2.193-1.057-.053-1.618-1.052-1.925-2.053a4.208,4.208,0,0,1-.18-.943,4.768,4.768,0,0,0-2.736-4.286v-4.231c2.471-2.642,4.725-5.471,7.08-8.213,3.13-3.645,6.224-7.321,9.343-10.976,2.162-2.534,5.125-2.6,7.39-.184,1.621,1.729,3.258,3.445,4.871,5.182,1.393,1.5.952,3.234-.982,3.892a4.371,4.371,0,0,1-4.909-1.213c-.814-.859-1.528-1.812-2.315-2.7-.672-.756-1.465-.79-2.034-.012-3.04,4.154-6.047,8.331-9.185,12.665,1.906-.163,3.631-.315,5.356-.456,5.975-.487,11.953-.914,17.93-.082A28.972,28.972,0,0,1,569.45,214.8c.818.449,1.451,1.391,2.278,1.507s1.757-.461,2.682-.582a11.775,11.775,0,0,1,5.111.556c.328.1.619.3.97-.011,2.526-2.261,5.66-3.176,8.861-3.877a56.659,56.659,0,0,1,15.773-.884c3.546.223,7.088.478,10.63.852.058-.419-.25-.613-.424-.854q-4.094-5.691-8.212-11.366c-.958-1.323-1.64-1.336-2.706-.082-.705.83-1.386,1.684-2.142,2.465a4.46,4.46,0,0,1-5.218.91,2.137,2.137,0,0,1-.716-3.506c1.795-1.961,3.6-3.917,5.462-5.813a4.517,4.517,0,0,1,6.793.382c3.507,4.081,6.967,8.2,10.472,12.286,2.041,2.378,3.985,4.84,6.143,7.117Zm-34.828,19.685a5.834,5.834,0,0,0,2.4,1.117,3.276,3.276,0,0,0,1.649.606,21.949,21.949,0,0,0,8.34.752c7.956-.643,13.2-5.523,14.331-13.383.126-.88.417-1.779-.386-2.594-.282-.285-.237-.9-.319-1.372-.093-.535-.134-1.079-.241-1.61-.595-2.971-2.319-4.485-5.17-4.558a3.625,3.625,0,0,0-1.536-.152,24.147,24.147,0,0,0-3.226-.339l-3.114-.182a53.013,53.013,0,0,0-11.488.417c-4.132.666-6.935,2.736-8.3,6.842a6.067,6.067,0,0,0-.223,3.19,16.078,16.078,0,0,0,5.156,9.712A7.341,7.341,0,0,0,590.379,237.823Zm-29.384-21.094a11.332,11.332,0,0,0-3.1-.5,12.6,12.6,0,0,0-3.069-.182,107.06,107.06,0,0,0-13.684.637c-3.315.257-4.928,2.018-5.449,5.23-.133.815.07,1.8-.469,2.409a2.438,2.438,0,0,0-.4,2.312,15.817,15.817,0,0,0,5,9.961,6.542,6.542,0,0,0,1.88,1.374,8.494,8.494,0,0,0,2.737,1.305,2.889,2.889,0,0,0,1.342.391,20.991,20.991,0,0,0,7.882.613c7.693-.554,12.849-4.923,14.94-12.324.959-3.395-.216-6.012-2.182-8.516a6.751,6.751,0,0,0-3.883-2.311A3.722,3.722,0,0,0,560.995,216.728ZM528.29,216c0,1.169.009,1.159.741,1.849a6.045,6.045,0,0,1,1.963,4.047,5.351,5.351,0,0,0,.191,1.132,1.442,1.442,0,0,0,1.613,1.069,1.2,1.2,0,0,0,1.242-1.287,12.51,12.51,0,0,1,.224-1.612c.659-3.208,2.439-5.734,6.446-5.99,2.135-.136,4.26-.435,6.4-.585a55.018,55.018,0,0,1,13.864.438c4.1.752,7.178,2.768,8.715,6.8.25.655.641.661,1.2.067a3.219,3.219,0,0,0-.088-4.069,9.988,9.988,0,0,0-3.982-2.6,34.755,34.755,0,0,0-11.613-2.282,99.345,99.345,0,0,0-12.282.33q-6.793.523-13.534,1.486C528.423,214.919,528.077,215.226,528.29,216Zm95.3.042c-.156-.238.548-1.038-.47-1.168-2.505-.318-5.006-.67-7.513-.965-3.5-.412-7.006-.656-10.522-.844-6-.321-11.969-.3-17.8,1.434a12.858,12.858,0,0,0-6.019,3.231,3.22,3.22,0,0,0-.252,4.138c.609.7.96.644,1.324-.211a10.126,10.126,0,0,1,6.613-6.087,34.056,34.056,0,0,1,10.351-1.179,108.453,108.453,0,0,1,12.345.849,6.216,6.216,0,0,1,5.276,3.612,11.173,11.173,0,0,1,1,3.978c.057.735.37,1.2,1.153,1.263a1.47,1.47,0,0,0,1.673-.988,4.837,4.837,0,0,0,.214-1.224,5.743,5.743,0,0,1,1.988-4.026A1.569,1.569,0,0,0,623.589,216.038Zm-1.21-2.9c-.366-.458-.612-.783-.876-1.094q-3.2-3.772-6.409-7.539c-2.551-3-5.093-6.01-7.658-9a3.02,3.02,0,0,0-4.579-.278c-1.787,1.836-3.519,3.726-5.257,5.609-.533.577-.4.991.358,1.293a2.978,2.978,0,0,0,3.468-.919c.679-.767,1.308-1.578,1.989-2.343,1.615-1.813,3.447-1.714,4.873.255q4.564,6.3,9.11,12.618a1.954,1.954,0,0,0,1.43.978C619.939,212.83,621.045,212.978,622.38,213.139Zm-92.854.018c1.232-.158,2.208-.318,3.191-.4a2.349,2.349,0,0,0,1.891-1.065c3-4.228,6.053-8.423,9.095-12.624,1.382-1.909,3.239-2,4.816-.228.681.765,1.314,1.573,1.989,2.344a2.99,2.99,0,0,0,3.457.956c.806-.31.929-.724.348-1.352-1.7-1.834-3.389-3.671-5.122-5.47a3.061,3.061,0,0,0-4.713.235q-4.812,5.68-9.646,11.341C533.116,208.917,531.4,210.941,529.526,213.157Zm45.836,4.016a7.836,7.836,0,0,0-2.2.4c-.906.272-.179.833-.17,1.242.011.508.365.361.674.222a5.577,5.577,0,0,1,4.538.108c.385.154.714.23.753-.293.03-.4.658-.95-.247-1.2A12.359,12.359,0,0,0,575.362,217.173Z" fill="#101010" fill-rule="evenodd"/>
      <path id="Path_19817" data-name="Path 19817" d="M807.213,286.436c2.85.073,4.575,1.587,5.17,4.558.106.532.148,1.076.241,1.61.081.47.037,1.087.319,1.372.8.815.513,1.714.386,2.594-1.128,7.859-6.375,12.739-14.331,13.383a21.948,21.948,0,0,1-8.34-.752,1.538,1.538,0,0,1,.362-.873c4.435-5.92,8.891-11.824,13.3-17.767A24.259,24.259,0,0,0,807.213,286.436Z" transform="translate(-196.233 -69.655)" fill="#fff" fill-rule="evenodd"/>
      <path id="Path_19818" data-name="Path 19818" d="M617.742,287.8a6.751,6.751,0,0,1,3.883,2.311c1.966,2.5,3.141,5.121,2.182,8.516-2.091,7.4-7.247,11.77-14.94,12.324a20.99,20.99,0,0,1-7.882-.613,1.806,1.806,0,0,1,.175-.434Q609.446,298.846,617.742,287.8Z" transform="translate(-55.199 -70.668)" fill="#fff" fill-rule="evenodd"/>
      <path id="Path_19819" data-name="Path 19819" d="M562.928,303.961a15.817,15.817,0,0,1-5-9.961,2.438,2.438,0,0,1,.4-2.312c.539-.605.336-1.593.469-2.409.521-3.213,2.134-4.973,5.449-5.23a107.06,107.06,0,0,1,13.684-.637,1.264,1.264,0,0,1-.125.355c-4.255,5.683-8.532,11.349-12.758,17.053A11.577,11.577,0,0,0,562.928,303.961Z" transform="translate(-23.102 -67.364)" fill="#fff" fill-rule="evenodd"/>
      <path id="Path_19820" data-name="Path 19820" d="M751.3,303.607a16.078,16.078,0,0,1-5.156-9.712,6.067,6.067,0,0,1,.223-3.19c1.361-4.106,4.164-6.176,8.3-6.842a53.012,53.012,0,0,1,11.488-.417c.031.321-.179.518-.353.751Q758.541,293.9,751.3,303.607Z" transform="translate(-163.047 -67.337)" fill="#fff" fill-rule="evenodd"/>
      <path id="Path_19821" data-name="Path 19821" d="M532.579,274.374c-.213-.77.134-1.076,1.1-1.214q6.745-.966,13.534-1.486a99.338,99.338,0,0,1,12.282-.33,34.755,34.755,0,0,1,11.613,2.282,9.987,9.987,0,0,1,3.982,2.6,3.219,3.219,0,0,1,.088,4.069c-.56.594-.951.588-1.2-.067-1.536-4.027-4.619-6.043-8.715-6.8A55.018,55.018,0,0,0,551.4,273c-2.139.15-4.264.449-6.4.585-4.006.256-5.787,2.782-6.446,5.99a12.522,12.522,0,0,0-.224,1.612,1.2,1.2,0,0,1-1.242,1.287,1.442,1.442,0,0,1-1.613-1.069,5.343,5.343,0,0,1-.191-1.132,6.046,6.046,0,0,0-1.963-4.047C532.588,275.533,532.579,275.543,532.579,274.374Z" transform="translate(-4.29 -58.378)" fill="#101010" fill-rule="evenodd"/>
      <path id="Path_19822" data-name="Path 19822" d="M779.1,274.442a1.569,1.569,0,0,1-.639,1.814,5.743,5.743,0,0,0-1.988,4.026,4.837,4.837,0,0,1-.214,1.224,1.47,1.47,0,0,1-1.673.988c-.783-.062-1.1-.528-1.153-1.263a11.17,11.17,0,0,0-1-3.978,6.216,6.216,0,0,0-5.276-3.612,108.453,108.453,0,0,0-12.345-.849,34.057,34.057,0,0,0-10.351,1.179,10.126,10.126,0,0,0-6.613,6.087c-.364.854-.715.913-1.324.211a3.22,3.22,0,0,1,.252-4.138,12.857,12.857,0,0,1,6.019-3.231c5.827-1.737,11.8-1.755,17.8-1.434,3.516.188,7.025.432,10.522.844,2.507.3,5.008.647,7.513.965C779.644,273.4,778.94,274.2,779.1,274.442Z" transform="translate(-155.506 -58.404)" fill="#101010" fill-rule="evenodd"/>
      <path id="Path_19823" data-name="Path 19823" d="M826.9,217.622c-1.335-.161-2.441-.309-3.551-.421a1.954,1.954,0,0,1-1.43-.978q-4.538-6.32-9.11-12.618c-1.426-1.969-3.258-2.068-4.873-.255-.681.765-1.311,1.576-1.989,2.343a2.978,2.978,0,0,1-3.468.919c-.755-.3-.891-.716-.358-1.293,1.738-1.883,3.47-3.773,5.257-5.609a3.02,3.02,0,0,1,4.579.278c2.564,2.99,5.106,6,7.657,9q3.2,3.769,6.409,7.539C826.284,216.838,826.53,217.163,826.9,217.622Z" transform="translate(-204.516 -4.483)" fill="#101010" fill-rule="evenodd"/>
      <path id="Path_19824" data-name="Path 19824" d="M537.576,217.693c1.878-2.216,3.59-4.24,5.306-6.26q4.822-5.672,9.646-11.341a3.061,3.061,0,0,1,4.713-.235c1.733,1.8,3.426,3.636,5.122,5.47.581.629.458,1.042-.348,1.352a2.99,2.99,0,0,1-3.457-.956c-.675-.771-1.307-1.579-1.989-2.344-1.577-1.77-3.434-1.681-4.816.228-3.042,4.2-6.091,8.4-9.095,12.624a2.35,2.35,0,0,1-1.891,1.065C539.784,217.375,538.808,217.535,537.576,217.693Z" transform="translate(-8.05 -4.536)" fill="#101010" fill-rule="evenodd"/>
      <path id="Path_19825" data-name="Path 19825" d="M587.813,307.337a8.5,8.5,0,0,1-2.737-1.305c.264-.317.543-.623.791-.953q6.224-8.293,12.431-16.6a28.115,28.115,0,0,0,2.971-4.189,11.331,11.331,0,0,1,3.1.5,1.677,1.677,0,0,1-.519,1c-4.321,5.767-8.682,11.506-12.975,17.294A35.189,35.189,0,0,0,587.813,307.337Z" transform="translate(-43.369 -68.06)" fill="#fff" fill-rule="evenodd"/>
      <path id="Path_19826" data-name="Path 19826" d="M777.279,307.171a5.833,5.833,0,0,1-2.4-1.117,4.938,4.938,0,0,1,.362-.673c4.305-5.733,8.634-11.449,12.913-17.2a19.729,19.729,0,0,0,2.563-3.659,24.151,24.151,0,0,1,3.226.339,1.992,1.992,0,0,1-.471.924c-4.468,5.97-8.917,11.956-13.406,17.911A18.788,18.788,0,0,1,777.279,307.171Z" transform="translate(-184.504 -68.231)" fill="#fff" fill-rule="evenodd"/>
      <path id="Path_19827" data-name="Path 19827" d="M595.817,283.678a28.12,28.12,0,0,1-2.971,4.189q-6.184,8.323-12.431,16.6c-.247.33-.526.636-.791.953a6.543,6.543,0,0,1-1.88-1.374,11.577,11.577,0,0,1,2.12-3.141c4.226-5.7,8.5-11.371,12.758-17.053a1.264,1.264,0,0,0,.125-.355A12.6,12.6,0,0,1,595.817,283.678Z" transform="translate(-37.918 -67.447)" fill="#fdfdfd" fill-rule="evenodd"/>
      <path id="Path_19828" data-name="Path 19828" d="M784.552,283.992a19.729,19.729,0,0,1-2.563,3.659c-4.279,5.752-8.608,11.468-12.913,17.2a4.948,4.948,0,0,0-.362.673,7.34,7.34,0,0,1-2.128-1.553q7.247-9.708,14.5-19.411c.175-.233.384-.43.353-.751Z" transform="translate(-178.335 -67.703)" fill="#fdfdfe" fill-rule="evenodd"/>
      <path id="Path_19829" data-name="Path 19829" d="M595.751,308.78a35.173,35.173,0,0,1,3.057-4.251c4.294-5.788,8.654-11.527,12.975-17.294a1.676,1.676,0,0,0,.519-1,3.722,3.722,0,0,1,1.548.4q-8.293,11.05-16.582,22.1a1.8,1.8,0,0,0-.175.434A2.889,2.889,0,0,1,595.751,308.78Z" transform="translate(-51.307 -69.503)" fill="#fdfdfd" fill-rule="evenodd"/>
      <path id="Path_19830" data-name="Path 19830" d="M784.225,308.083a18.792,18.792,0,0,0,2.791-3.475c4.49-5.955,8.938-11.94,13.406-17.911a1.993,1.993,0,0,0,.471-.924,3.625,3.625,0,0,1,1.536.152,24.258,24.258,0,0,1-2.9,4.125c-4.4,5.943-8.86,11.847-13.3,17.767a1.538,1.538,0,0,0-.362.873A3.276,3.276,0,0,1,784.225,308.083Z" transform="translate(-191.451 -69.144)" fill="#fdfdfd" fill-rule="evenodd"/>
      <path id="Path_19831" data-name="Path 19831" d="M708.628,287.963a12.358,12.358,0,0,1,3.348.475c.905.25.277.8.247,1.2-.039.522-.368.447-.753.293a5.577,5.577,0,0,0-4.537-.108c-.309.139-.663.287-.674-.222-.009-.41-.735-.97.17-1.242A7.835,7.835,0,0,1,708.628,287.963Z" transform="translate(-133.266 -70.79)" fill="#101010" fill-rule="evenodd"/>
    </g>
  </g>
</svg>
