<svg xmlns="http://www.w3.org/2000/svg" width="66.929" height="78.31" viewBox="0 0 66.929 78.31">
  <g id="Group_2306" data-name="Group 2306" transform="translate(-302 -3831.04)">
    <path id="Path_19763" data-name="Path 19763" d="M455.236,228.728a6.307,6.307,0,0,1-3.276,5.482,21.934,21.934,0,0,1-7.857,2.464c-1.527.245-3.075.363-4.609.569-.54.073-.751-.021-.7-.639a35.063,35.063,0,0,1,4.545-14.943c.132-.228.165-.554.649-.388a37.029,37.029,0,0,1,8.054,3.561,9.929,9.929,0,0,1,2.552,2.18A2.442,2.442,0,0,1,455.236,228.728Z" transform="translate(-95.785 3640.813)" fill="#fff" fill-rule="evenodd"/>
    <path id="Path_19764" data-name="Path 19764" d="M476.433,352.767a21.648,21.648,0,0,1-6.2-2.754,27.934,27.934,0,0,1-6.4-5.2c-.166-.177-.358-.336-.355-.61,3.168-1.38,6.4-2.435,9.935-2.045a5.257,5.257,0,0,1,.539.078c3.14.685,3.879,1.876,3.129,4.989C476.638,349.045,476.006,350.846,476.433,352.767Z" transform="translate(-119.473 3542.891)" fill="#fff" fill-rule="evenodd"/>
    <path id="Path_19766" data-name="Path 19766" d="M507.69,173.118c.053,1.036-.689,1.479-1.551,1.819a24.794,24.794,0,0,0-5.973,3.451c-.673.516-1.3,1.092-1.936,1.657-1.007.9-1.995.928-2.814.073a1.816,1.816,0,0,1,.226-2.793,28,28,0,0,1,9.292-5.961A1.865,1.865,0,0,1,507.69,173.118Z" transform="translate(-149.86 3693.867)" fill="#fdfdfe" fill-rule="evenodd"/>
    <g id="Group_2296" data-name="Group 2296" transform="translate(-143.439 3759.459)">
      <path id="Path_19768" data-name="Path 19768" d="M477.8,149.89h-18.3c-1.154,0-1.293-.183-.988-1.28a10.164,10.164,0,0,1,9.438-7.4c.743-.037.99-.284,1.125-.986.345-1.806.757-3.6,1.2-5.386.142-.566-.027-.736-.527-.91-10.982-3.819-18.7-11.12-22.312-22.17-4.388-13.4-1.46-25.409,8.06-35.811.519-.567.915-.615,1.458-.021,1,1.1,2.088,2.129,3.094,3.229.379.415.59.423,1.01.041A27.937,27.937,0,0,1,474.5,72.237c9.142-1.835,17.413.161,24.486,6.214,7.379,6.314,10.676,14.53,10.022,24.2a27.488,27.488,0,0,1-7.355,16.951c-.425.469-.439.707.025,1.14,1.248,1.165,2.434,2.4,3.667,3.578.5.48.511.851,0,1.347a34.706,34.706,0,0,1-18.989,9.549c-.773.124-.854.4-.684,1.068.349,1.363.666,2.735.925,4.117.112.6.353.763.951.792a10.17,10.17,0,0,1,9.572,7.445c.3,1.063.161,1.251-.94,1.251Zm5.564-8.8c.514,0,1.029-.021,1.54.015.549.039.66-.21.551-.683-.236-1.024-.456-2.053-.7-3.077-.442-1.888-.446-1.887-2.379-1.617a38.426,38.426,0,0,1-10.359-1.132c-.446-.122-.572.109-.65.467-.4,1.819-.79,3.641-1.213,5.455-.106.456-.035.6.466.6C474.866,141.09,479.113,141.092,483.359,141.087Zm-22.787,5.689a2.657,2.657,0,0,0-.5.918c-.418,1.043-.419,1.044.67,1.044h18.445c5.309,0,10.618-.013,15.926.015.751,0,.812-.231.542-.825a8.69,8.69,0,0,0-3.362-4.052,8.4,8.4,0,0,0-3.176-1.364,14.892,14.892,0,0,0-3.312-.144c-5.979-.009-11.96-.074-17.937.016A8.378,8.378,0,0,0,460.572,146.777Zm44.784-47.394a3.5,3.5,0,0,0-1.2-.479,4.222,4.222,0,0,0-5.515,3.3,2.231,2.231,0,0,1-1.617,1.757c-.487.161-1,.247-1.495.379a5.366,5.366,0,0,0-3.994,3.878,6.491,6.491,0,0,0,.176,3.6c.475,1.831.233,3.425-1.477,4.58a4.621,4.621,0,0,0-1.485,1.8,6.876,6.876,0,0,0,1.473,7.437.56.56,0,0,0,.663.086,25.54,25.54,0,0,0,8.721-5.811,1.456,1.456,0,0,0,.612-.514,28.524,28.524,0,0,0,5.753-8.957,29.6,29.6,0,0,0,1.923-8.989c.026-.368.2-.84-.328-1.061A16.433,16.433,0,0,0,505.356,99.382Zm-35.827-23.86a3.112,3.112,0,0,0,2.141,3.11c1.747.724,3.537,1.358,5.244,2.166a2.717,2.717,0,0,1,1.354,4c-.136.294-.3.574-.429.873a4.349,4.349,0,0,0,2.39,5.642c2.083.819,4.141.179,5.83-1.812,1.638-1.933,2.774-2.219,5.137-1.289a8.529,8.529,0,0,1,.818.356c3.348,1.742,6.317.922,9.076-1.332a8.9,8.9,0,0,0,1.634-1.68.964.964,0,0,0-.007-1.362,27.019,27.019,0,0,0-9.5-8.207,27.907,27.907,0,0,0-23.076-1.171C469.821,74.94,469.426,75.024,469.529,75.523Zm-14.982,3.241a.658.658,0,0,0-.128.1,33.6,33.6,0,0,0-7.062,28.323,32.563,32.563,0,0,0,7.661,15.623,33.422,33.422,0,0,0,14.468,9.828,32.751,32.751,0,0,0,15.655,1.592,2.456,2.456,0,0,0,.956-.122,33.922,33.922,0,0,0,17.878-8.684c.39-.354.34-.576-.015-.9-.8-.728-1.562-1.5-2.355-2.23-.432-.4-.754-1.094-1.313-1.125-.484-.027-.794.66-1.211,1-.209.168-.408.348-.612.522-.089.062-.179.12-.265.185a28.264,28.264,0,0,1-21.962,5.826,28.631,28.631,0,0,1-24.471-29.739,29.123,29.123,0,0,1,3.368-12.239,49.5,49.5,0,0,1,3.047-4.683c.364-.358.713-.733,1.1-1.07s.371-.62,0-.994a31.978,31.978,0,0,1-2.571-2.68c-.307-.392-.6-.39-.914,0C455.387,77.786,454.964,78.272,454.547,78.763Zm47.337,9.377c-.221.155-.442.31-.664.464a9.282,9.282,0,0,1-7.255,1.88,22.3,22.3,0,0,1-3.479-1.331,2.545,2.545,0,0,0-3.433.909,11.038,11.038,0,0,1-1.226,1.3,5.9,5.9,0,0,1-7.359.248,5.549,5.549,0,0,1-1.38-7.032c.76-1.524.521-2.282-1.044-2.957-1.639-.706-3.318-1.319-4.966-2a4.181,4.181,0,0,1-2.678-3.408c-.078-.517-.2-.573-.639-.339a29,29,0,0,0-7.476,5.673c-.384.4-.308.553.139.793a17.618,17.618,0,0,1,5.559,4.8,6.276,6.276,0,0,1,1.354,3.249,2.29,2.29,0,0,1-1.509,2.574,14.412,14.412,0,0,1-2.054.454,1.791,1.791,0,0,0-1.539,1.744,4.123,4.123,0,0,0,.07,1.454,15.649,15.649,0,0,0,1.3,3.4,21.041,21.041,0,0,1,2.27,6.737c.575,4.326-.357,7.041-4,9.216-.695.416-1.31.963-2,1.394-.618.388-.6.686-.109,1.215,7.038,7.521,15.629,10.483,25.8,8.817a15.238,15.238,0,0,0,3.748-1.038,12.16,12.16,0,0,1-1.326-2.042c-1.79-3.553-1.161-6.6,1.9-9.1a2.262,2.262,0,0,0,.858-2.081,12.379,12.379,0,0,0-.325-1.752,6.613,6.613,0,0,1,1.517-6.2,6.964,6.964,0,0,1,4.183-2.146,1.672,1.672,0,0,0,1.5-1.428,5.187,5.187,0,0,1,4.259-3.972,7.28,7.28,0,0,1,3.427.4l2.626,1.257a22.538,22.538,0,0,0-.5-4.353,28.059,28.059,0,0,0-3.147-8.395c-.31-.551-.524-.572-.861-.046A13.192,13.192,0,0,1,501.883,88.141Zm-48.96,12.187a23.24,23.24,0,0,0,.334,4.2,27.4,27.4,0,0,0,4.993,12.091c.19.262.3.386.609.124a33.245,33.245,0,0,1,3.24-2.307c2.229-1.476,2.912-3.63,2.782-6.181a19.43,19.43,0,0,0-2.283-7.722,15.76,15.76,0,0,1-1.453-3.947c-.5-2.5.667-4.126,3.19-4.451a4.786,4.786,0,0,0,1.175-.293,1.062,1.062,0,0,0,.7-1.157,4.655,4.655,0,0,0-.817-2.434,17.172,17.172,0,0,0-5.654-5.037c-.47-.26-.721-.2-1.058.24A27.745,27.745,0,0,0,452.924,100.327Z" fill="#1d252e" fill-rule="evenodd"/>
      <path id="Path_19769" data-name="Path 19769" d="M727.669,125.294c-.5-.072-.586-.465-.7-.821a30.78,30.78,0,0,0-3.683-7.454c-.257-.381-.527-.752-.8-1.124-.223-.308-.386-.643-.021-.927.394-.306.692-.076.945.267a31.263,31.263,0,0,1,3.915,6.973c.3.751.566,1.516.832,2.28C728.321,124.959,728.076,125.193,727.669,125.294Z" transform="translate(-216.759 -33.862)" fill="#3a4471" fill-rule="evenodd"/>
      <path id="Path_19770" data-name="Path 19770" d="M494.373,388.731a.547.547,0,0,1-.518-.662,1.574,1.574,0,0,1,.236-.512,16.266,16.266,0,0,1,6.961-6.509c.367-.183.765-.426,1.047.094s-.136.733-.5.913a15.091,15.091,0,0,0-6.55,6.119C494.9,388.434,494.741,388.7,494.373,388.731Z" transform="translate(-37.905 -242.16)" fill="#3a4471" fill-rule="evenodd"/>
      <path id="Path_19771" data-name="Path 19771" d="M749.392,172.538c.023.414-.094.76-.5.723-.883-.08-.609-.877-.743-1.391a.475.475,0,0,1,.527-.635C749.49,171.345,749.211,172.1,749.392,172.538Z" transform="translate(-237.025 -78.031)" fill="#36416e" fill-rule="evenodd"/>
      <path id="Path_19772" data-name="Path 19772" d="M490.434,423.968c-.133.345.042,1.027-.7,1.064a.5.5,0,0,1-.516-.665c.117-.445-.055-1.142.716-1.163C490.315,423.194,490.5,423.464,490.434,423.968Z" transform="translate(-34.261 -275.342)" fill="#3a4471" fill-rule="evenodd"/>
      <path id="Path_19773" data-name="Path 19773" d="M555.74,113.016a7.28,7.28,0,0,0-3.427-.4,5.187,5.187,0,0,0-4.258,3.972,1.672,1.672,0,0,1-1.5,1.428,6.964,6.964,0,0,0-4.182,2.146,6.613,6.613,0,0,0-1.517,6.2,12.4,12.4,0,0,1,.325,1.752,2.262,2.262,0,0,1-.858,2.081c-3.065,2.5-3.695,5.552-1.9,9.1a12.16,12.16,0,0,0,1.326,2.042A15.238,15.238,0,0,1,536,142.383c-10.166,1.666-18.757-1.3-25.8-8.817-.5-.529-.509-.827.109-1.215.687-.431,1.3-.978,2-1.394,3.638-2.176,4.57-4.89,4-9.216a21.04,21.04,0,0,0-2.27-6.737,15.653,15.653,0,0,1-1.3-3.4,4.123,4.123,0,0,1-.07-1.454A1.791,1.791,0,0,1,514.2,108.4a14.411,14.411,0,0,0,2.054-.454,2.29,2.29,0,0,0,1.509-2.574,6.276,6.276,0,0,0-1.354-3.249,17.618,17.618,0,0,0-5.559-4.8c-.447-.24-.523-.39-.139-.793a29,29,0,0,1,7.476-5.673c.441-.234.561-.177.639.339a4.181,4.181,0,0,0,2.678,3.408c1.648.685,3.327,1.3,4.966,2,1.566.675,1.8,1.433,1.044,2.957a5.549,5.549,0,0,0,1.38,7.032,5.9,5.9,0,0,0,7.359-.248,11.03,11.03,0,0,0,1.226-1.3,2.545,2.545,0,0,1,3.433-.909,22.3,22.3,0,0,0,3.479,1.331,9.282,9.282,0,0,0,7.255-1.88c.222-.154.443-.31.664-.464a5.866,5.866,0,0,0,.285.751A28.715,28.715,0,0,1,555.74,113.016ZM523.566,127.3c0,.135-.009.271,0,.406.131,1.786,1.086,3,2.484,3.165a6.694,6.694,0,0,0,6.282-3.971,14.34,14.34,0,0,1,2.34-4.421,6.2,6.2,0,0,0,.869-1.46,2.185,2.185,0,0,0-3.18-2.725,6.339,6.339,0,0,0-1.875,1.771c-.725,1.015-.748,1.005-1.567.109a1.715,1.715,0,0,0-1.754-.579,1.462,1.462,0,0,0-1.219,1.249,4.051,4.051,0,0,1-.743,1.517A9.666,9.666,0,0,0,523.566,127.3Z" transform="translate(-50.432 -14.998)" fill="#fff" fill-rule="evenodd"/>
      <path id="Path_19774" data-name="Path 19774" d="M462.708,107.962a49.509,49.509,0,0,0-3.047,4.683,29.123,29.123,0,0,0-3.368,12.239,28.631,28.631,0,0,0,24.471,29.739,28.263,28.263,0,0,0,21.962-5.826c.086-.065.177-.124.265-.185.624.6,1.23,1.213,1.879,1.78.434.379.39.63,0,1.033a27.326,27.326,0,0,1-4.034,3.347,34.136,34.136,0,0,1-8.924,4.48,5.513,5.513,0,0,0-2.249.9,32.751,32.751,0,0,1-15.655-1.592,33.422,33.422,0,0,1-14.468-9.828,32.562,32.562,0,0,1-7.661-15.623,33.6,33.6,0,0,1,7.062-28.323.657.657,0,0,1,.128-.1q1.424,1.382,2.849,2.762C462.147,107.671,462.329,107.971,462.708,107.962Z" transform="translate(-4.522 -25.926)" fill="#fff" fill-rule="evenodd"/>
      <path id="Path_19775" data-name="Path 19775" d="M588.04,97.322c-2.76,2.254-5.729,3.075-9.077,1.332a8.531,8.531,0,0,0-.818-.356c-2.363-.93-3.5-.644-5.137,1.289-1.688,1.991-3.746,2.631-5.83,1.812a4.349,4.349,0,0,1-2.39-5.642c.125-.3.292-.579.429-.873a2.717,2.717,0,0,0-1.354-4c-1.707-.808-3.5-1.442-5.244-2.166a3.112,3.112,0,0,1-2.141-3.11,4.461,4.461,0,0,0,.477-.08,27.366,27.366,0,0,1,12.01-.7A27.879,27.879,0,0,1,581.3,90.06,26.536,26.536,0,0,1,588.04,97.322Z" transform="translate(-86.95 -10.086)" fill="#101010" fill-rule="evenodd"/>
      <path id="Path_19776" data-name="Path 19776" d="M479.915,141.757a27.745,27.745,0,0,1,5.761-16.873c.337-.442.588-.5,1.058-.24a17.172,17.172,0,0,1,5.654,5.037,4.654,4.654,0,0,1,.817,2.434,1.062,1.062,0,0,1-.7,1.157,4.788,4.788,0,0,1-1.175.293c-2.522.326-3.687,1.952-3.19,4.451a15.76,15.76,0,0,0,1.453,3.947,19.43,19.43,0,0,1,2.283,7.722c.13,2.551-.553,4.705-2.782,6.181a33.239,33.239,0,0,0-3.24,2.307c-.308.262-.418.139-.609-.124a27.4,27.4,0,0,1-4.993-12.091A23.243,23.243,0,0,1,479.915,141.757Z" transform="translate(-26.992 -41.43)" fill="#101010" fill-rule="evenodd"/>
      <path id="Path_19777" data-name="Path 19777" d="M654.042,217.793a25.54,25.54,0,0,1-8.721,5.811.56.56,0,0,1-.663-.086,6.876,6.876,0,0,1-1.473-7.437,4.62,4.62,0,0,1,1.485-1.8c1.71-1.155,1.951-2.749,1.477-4.58a6.49,6.49,0,0,1-.176-3.6,5.366,5.366,0,0,1,3.994-3.878c.5-.132,1.008-.218,1.495-.379a2.231,2.231,0,0,0,1.617-1.757,4.222,4.222,0,0,1,5.515-3.3,3.493,3.493,0,0,1,1.2.48c-.183,1.218.229,2.428.1,3.628-.154,1.414-.188,2.836-.437,4.247a27.95,27.95,0,0,1-4.79,11.546C654.421,217.027,654.008,217.294,654.042,217.793Z" transform="translate(-154.434 -97.888)" fill="#101010" fill-rule="evenodd"/>
      <path id="Path_19779" data-name="Path 19779" d="M587.982,91.885a26.536,26.536,0,0,0-6.739-7.262A27.879,27.879,0,0,0,568.907,79.4a27.365,27.365,0,0,0-12.01.7,4.468,4.468,0,0,1-.477.08c-.1-.5.292-.582.61-.707a27.907,27.907,0,0,1,23.076,1.171,27.019,27.019,0,0,1,9.5,8.207.964.964,0,0,1,.007,1.362A8.9,8.9,0,0,1,587.982,91.885Z" transform="translate(-86.892 -4.65)" fill="#101010" fill-rule="evenodd"/>
      <path id="Path_19780" data-name="Path 19780" d="M512.472,407.731h31.8c.929,0,.888.009.637-.928a13.46,13.46,0,0,1-.707-1.974,8.69,8.69,0,0,1,3.362,4.052c.27.594.209.829-.542.825-5.308-.028-10.617-.015-15.926-.015H512.646c-1.089,0-1.088,0-.67-1.044A2.657,2.657,0,0,1,512.472,407.731Z" transform="translate(-51.9 -260.955)" fill="#e7e7e7" fill-rule="evenodd"/>
      <path id="Path_19781" data-name="Path 19781" d="M572.412,368.418c-4.246.005-8.493,0-12.739.025-.5,0-.572-.142-.466-.6.423-1.814.814-3.635,1.213-5.455.078-.358.2-.589.65-.467a38.426,38.426,0,0,0,10.359,1.132,5.873,5.873,0,0,0,.1.876A41.5,41.5,0,0,1,572.412,368.418Z" transform="translate(-89.053 -227.33)" fill="#fff" fill-rule="evenodd"/>
      <path id="Path_19784" data-name="Path 19784" d="M695.128,220.258c-.034-.5.38-.765.619-1.1a27.949,27.949,0,0,0,4.79-11.546c.249-1.411.284-2.833.437-4.247.13-1.2-.282-2.41-.1-3.628a16.4,16.4,0,0,1,2.212,1c.53.222.354.693.328,1.061a29.6,29.6,0,0,1-1.923,8.989,28.524,28.524,0,0,1-5.753,8.957A1.456,1.456,0,0,1,695.128,220.258Z" transform="translate(-195.52 -100.353)" fill="#101010" fill-rule="evenodd"/>
      <path id="Path_19787" data-name="Path 19787" d="M573.087,225.545a9.666,9.666,0,0,1,1.641-4.94,4.05,4.05,0,0,0,.743-1.517,1.462,1.462,0,0,1,1.219-1.249,1.715,1.715,0,0,1,1.754.579c.818.9.842.906,1.566-.109a6.338,6.338,0,0,1,1.875-1.771,2.185,2.185,0,0,1,3.18,2.725,6.2,6.2,0,0,1-.869,1.46,14.339,14.339,0,0,0-2.34,4.421,6.694,6.694,0,0,1-6.282,3.971c-1.4-.164-2.353-1.379-2.484-3.165C573.079,225.816,573.087,225.68,573.087,225.545Zm1.121-.176c0,1.652.618,2.549,1.657,2.619a5.535,5.535,0,0,0,4.951-3.286,15.463,15.463,0,0,1,2.411-4.573,5.077,5.077,0,0,0,.759-1.243,1.015,1.015,0,0,0-.174-1.2,1.1,1.1,0,0,0-1.287-.167,4.136,4.136,0,0,0-1.5,1.339,4.98,4.98,0,0,1-.9,1.04,1.383,1.383,0,0,1-2.183-.247,4.172,4.172,0,0,0-.348-.447c-.426-.4-.88-.3-1.027.256a6.207,6.207,0,0,1-.9,1.8A8.919,8.919,0,0,0,574.209,225.369Z" transform="translate(-99.953 -113.24)" fill="#36416e" fill-rule="evenodd"/>
      <path id="Path_19788" data-name="Path 19788" d="M578.269,229.662a8.918,8.918,0,0,1,1.457-4.109,6.207,6.207,0,0,0,.9-1.8c.148-.559.6-.657,1.027-.256a4.17,4.17,0,0,1,.348.447,1.383,1.383,0,0,0,2.183.247,4.98,4.98,0,0,0,.9-1.04,4.137,4.137,0,0,1,1.5-1.339,1.1,1.1,0,0,1,1.287.167,1.016,1.016,0,0,1,.174,1.2,5.079,5.079,0,0,1-.759,1.243,15.459,15.459,0,0,0-2.411,4.573,5.535,5.535,0,0,1-4.951,3.286C578.887,232.211,578.267,231.314,578.269,229.662Z" transform="translate(-104.013 -117.533)" fill="#101010" fill-rule="evenodd"/>
    </g>
  </g>
</svg>
