<svg xmlns="http://www.w3.org/2000/svg" width="85.533" height="97.468" viewBox="0 0 85.533 97.468">
  <g id="Group_2311" data-name="Group 2311" transform="translate(-348 -4240.196)">
    <g id="Group_2299" data-name="Group 2299" transform="translate(162.447 4168.382)">
      <path id="Path_19832" data-name="Path 19832" d="M268.163,151.8a31.687,31.687,0,0,1,5.9-1.849c3.108-.427,3.169-.422,3.169,2.662q0,6.119,0,12.238c0,1.372-.091,1.479-1.413,1.5a14.317,14.317,0,0,0-5.708,1.335,16.371,16.371,0,0,1-13.726.11,16.076,16.076,0,0,0-13.5.062,15.766,15.766,0,0,1-13.061.023,16.394,16.394,0,0,0-13.788,0,15.949,15.949,0,0,1-13.061-.015,15.52,15.52,0,0,0-6.488-1.509c-.789.02-1.066-.363-1.063-1.131q.027-7.139,0-14.278c0-.86.36-1.118,1.17-1.113a16.09,16.09,0,0,1,6.114,1.285c.21-.332.03-.569-.05-.813q-2.018-6.19-4.038-12.38c-.393-1.207-.227-1.435,1.008-1.544q13.3-1.179,26.6-2.369c2.741-.243,5.482-.495,8.228-.682.854-.058,1.247-.249,1.191-1.232-.1-1.695-.028-1.741-1.714-1.6-5.857.489-11.712,1.011-17.568,1.52-.3.027-.609.071-.914.08-.915.028-1.208-.281-.989-1.165,2.876-11.6,6.643-22.866,12.8-33.2a31.21,31.21,0,0,1,7.93-9.343,1.207,1.207,0,0,0,.418-1.163q0-7.037,0-14.074c0-1.41.226-1.568,1.563-1.112q5.582,1.907,11.164,3.817c.1.033.186.087.283.114.41.115.815.276.836.765.024.56-.449.708-.869.853q-4.809,1.655-9.621,3.3c-.288.1-.578.194-.887.3.03.1.027.235.089.283,6.2,4.777,10.67,10.99,14.514,17.692A104.8,104.8,0,0,1,263.5,126.3c.344,1.392.176,1.6-1.239,1.72q-11.271.985-22.539,1.988c-.2.018-.406.034-.61.049-2.616.2-1.972-.185-2.074,2.292-.02.5.073.712.668.656,3.687-.348,7.379-.644,11.068-.971q8.68-.768,17.36-1.552,5.279-.472,10.558-.936c.489-.042,1.038-.273,1.421.242.4.537-.044.969-.253,1.4q-4.788,9.893-9.6,19.777c-.1.212-.18.437-.268.656l-.072.218Zm-49.655-21.423q8.175-.666,16.35-1.324c.711-.056.754-.467.753-1.033-.012-6.627,0-13.254-.01-19.881,0-3.975-.023-7.951-.035-11.926V90a4.786,4.786,0,0,0-1.332,1.049,38.5,38.5,0,0,0-6.745,9.148A122.457,122.457,0,0,0,216.3,129.36c-.314,1.211-.3,1.217.994,1.134C217.7,130.469,218.105,130.418,218.508,130.379Zm40.178-3.544c.812-.055,1.626-.169,2.437-.149.9.023.944-.351.751-1.09a103.517,103.517,0,0,0-11.781-28.06,53.648,53.648,0,0,0-12.07-14.369c-.271-.216-.489-.567-.931-.527v4.188q-.015,20.622-.041,41.244c0,.609.189.708.762.655,4.426-.4,8.857-.761,13.285-1.155C253.629,127.347,256.157,127.082,258.686,126.835Zm-57.533,14.049c1.143,3.551,2.291,7.1,3.419,10.654.142.448.47.521.838.616a15.936,15.936,0,0,0,10.737-.912,16.418,16.418,0,0,1,13.73.056,15.448,15.448,0,0,0,12.929-.014,16.678,16.678,0,0,1,13.735-.042,13.232,13.232,0,0,0,5.4,1.307,9.431,9.431,0,0,0,3.723-.1c.385-.037.5-.425.645-.729.547-1.131,1.087-2.265,1.637-3.394q3.986-8.2,7.987-16.39c.366-.745.231-.933-.569-.854-1.823.18-3.651.314-5.475.478-4.223.381-8.444.777-12.667,1.151-4.191.37-8.383.713-12.574,1.08-4.392.385-8.784.788-13.176,1.177-3.311.294-6.625.575-9.936.869-4.324.384-8.648.782-12.973,1.164-2.569.227-5.138.437-7.707.652-.54.045-.814.213-.554.836C200.627,139.273,200.873,140.085,201.153,140.884Zm74.661,21.022a18.9,18.9,0,0,1,.016-2.14c.1-.912-.356-1.017-1.069-.918a15.593,15.593,0,0,0-4.405,1.2,16.831,16.831,0,0,1-14.388.057,15.142,15.142,0,0,0-12.64.053,16.607,16.607,0,0,1-13.92.035,15.34,15.34,0,0,0-12.835-.057,16.667,16.667,0,0,1-14.009.023,16.244,16.244,0,0,0-4.891-1.325c-.611-.064-.842.12-.825.769.042,1.529.034,3.06,0,4.589-.011.562.155.759.74.78a13.883,13.883,0,0,1,5.3,1.319,15.71,15.71,0,0,0,13.4-.024,16.3,16.3,0,0,1,13.54.1,15.346,15.346,0,0,0,12.834.053,16.694,16.694,0,0,1,13.828-.1,15.7,15.7,0,0,0,12.756.177,16.894,16.894,0,0,1,5.975-1.534c.437-.015.6-.171.592-.606C275.8,163.538,275.813,162.721,275.814,161.905Zm-.058-7.527h.058c0-.748-.049-1.5.014-2.242.065-.773-.274-.929-.948-.842a15.921,15.921,0,0,0-4.508,1.2,17.351,17.351,0,0,1-14.6-.007,14.7,14.7,0,0,0-12.159.016,17.3,17.3,0,0,1-14.587,0,14.4,14.4,0,0,0-11.972-.093,17.359,17.359,0,0,1-15.051-.024,13.788,13.788,0,0,0-4.323-1.1c-.6-.069-.853.1-.834.758.044,1.528.033,3.059,0,4.588-.011.559.151.763.739.785a13.9,13.9,0,0,1,5.3,1.323,15.661,15.661,0,0,0,13.4-.023,16.3,16.3,0,0,1,13.537.1,15.357,15.357,0,0,0,12.83.059,16.792,16.792,0,0,1,13.922-.08,15.753,15.753,0,0,0,13.129-.033,18.12,18.12,0,0,1,3.378-1.115c.883-.2,2.175.116,2.576-.494C276.094,156.5,275.757,155.327,275.757,154.378ZM246.6,76.768c-3.126-1.073-5.98-2.052-8.833-3.034-.363-.125-.73-.335-.724.347q.02,2.65,0,5.3c0,.481.193.61.618.464C240.538,78.856,243.418,77.863,246.6,76.768Z" transform="translate(-7.186)" fill="#101010" fill-rule="evenodd"/>
      <path id="Path_19833" data-name="Path 19833" d="M187.209,294.854c.419,1.286.828,2.531,1.231,3.779.171.529.379,1.132-.377,1.336-.681.184-.831-.424-.99-.9-.471-1.412-.937-2.827-1.385-4.247-.3-.953-.132-1.24.869-1.341,2.6-.26,5.2-.479,7.8-.718.551-.051,1.106,0,1.141.672.032.606-.474.711-.993.755C192.109,294.394,189.715,294.624,187.209,294.854Z" transform="translate(0 -160.832)" fill="#101010" fill-rule="evenodd"/>
      <path id="Path_19834" data-name="Path 19834" d="M409.657,153.744a.722.722,0,0,1-.44.843.6.6,0,0,1-.729-.2,2.833,2.833,0,0,1-.37-.6q-2.135-4.109-4.669-7.983c-.056-.085-.109-.172-.164-.257-.28-.437-.291-.839.2-1.129s.776.013,1.006.378c.867,1.376,1.748,2.746,2.57,4.149.805,1.373,1.549,2.782,2.314,4.179C409.5,153.358,409.6,153.609,409.657,153.744Z" transform="translate(-158.361 -52.771)" fill="#3a4370" fill-rule="evenodd"/>
      <path id="Path_19835" data-name="Path 19835" d="M394.9,133.219c-.5-.007-1.586-1.383-1.468-1.879a.668.668,0,0,1,.736-.562,2.769,2.769,0,0,1,1.427,1.831A.664.664,0,0,1,394.9,133.219Z" transform="translate(-151.324 -42.923)" fill="#3a4370" fill-rule="evenodd"/>
      <path id="Path_19836" data-name="Path 19836" d="M229.732,291.357c.529-.039,1,.089,1.037.692.031.556-.411.715-.9.739-.169.008-.337.039-.5.061-.515.067-1,.027-1.062-.619s.418-.761.923-.808C229.4,291.406,229.563,291.378,229.732,291.357Z" transform="translate(-31.116 -159.815)" fill="#101010" fill-rule="evenodd"/>
      <path id="Path_19837" data-name="Path 19837" d="M277.273,321.247a13.232,13.232,0,0,1-5.4-1.307,16.679,16.679,0,0,0-13.735.042,15.448,15.448,0,0,1-12.929.014,16.418,16.418,0,0,0-13.73-.056,15.936,15.936,0,0,1-10.737.912c-.368-.1-.7-.168-.838-.616-1.128-3.555-2.277-7.1-3.419-10.654,1.349-.079,2.7-.126,4.047-.242,2.821-.241,5.638-.525,8.458-.776,1.815-.162,3.633-.286,5.447-.45,2.752-.249,5.5-.528,8.254-.773,1.848-.165,3.7-.279,5.55-.441,2.854-.25,5.705-.528,8.559-.785,1.814-.163,3.63-.306,5.445-.464q3.071-.266,6.142-.542a2.693,2.693,0,0,0,.412,3.128,2.523,2.523,0,0,0,2.707.7c1.747-.521,2.278-2.34,1.253-4.249,1.792-.124,3.571-.44,5.375-.407a2.686,2.686,0,0,0,1.783,4.271,2.515,2.515,0,0,0,2.569-1.269,2.65,2.65,0,0,0-.32-3.194c1.07-.592,2.252-.331,3.464-.541-.083.232-.116.36-.173.477q-3.568,7.349-7.134,14.7C277.927,319.546,277.62,320.406,277.273,321.247Z" transform="translate(-22.516 -168.698)" fill="#101010" fill-rule="evenodd"/>
      <path id="Path_19838" data-name="Path 19838" d="M370.08,167.01c-2.529.247-5.057.512-7.589.737-4.428.394-8.858.751-13.285,1.155-.573.053-.763-.047-.762-.655q.037-20.622.041-41.244c.391.006.6.306.819.55,1.3,1.425,2.666,2.8,3.862,4.3a82.3,82.3,0,0,1,8.631,13.486,107.836,107.836,0,0,1,5.357,12.177A73.823,73.823,0,0,1,370.08,167.01Z" transform="translate(-118.58 -40.175)" fill="#fff" fill-rule="evenodd"/>
      <path id="Path_19839" data-name="Path 19839" d="M279.624,394.539c0,.816-.015,1.632.005,2.448.011.435-.155.591-.592.606a16.9,16.9,0,0,0-5.975,1.534,15.7,15.7,0,0,1-12.756-.177,16.694,16.694,0,0,0-13.828.1A15.346,15.346,0,0,1,233.645,399a16.3,16.3,0,0,0-13.54-.1,15.71,15.71,0,0,1-13.4.024,13.883,13.883,0,0,0-5.3-1.319c-.586-.021-.751-.218-.74-.78.031-1.529.039-3.06,0-4.589-.018-.649.214-.833.825-.769a16.243,16.243,0,0,1,4.891,1.325,16.667,16.667,0,0,0,14.009-.023,15.341,15.341,0,0,1,12.835.057,16.607,16.607,0,0,0,13.92-.035,15.141,15.141,0,0,1,12.64-.053,16.832,16.832,0,0,0,14.388-.057,15.592,15.592,0,0,1,4.4-1.2c.713-.1,1.173.005,1.069.918A19.016,19.016,0,0,0,279.624,394.539Z" transform="translate(-10.997 -232.634)" fill="#fff" fill-rule="evenodd"/>
      <path id="Path_19840" data-name="Path 19840" d="M279.567,366.693c0,.949.337,2.119-.1,2.781-.4.61-1.694.3-2.576.494a18.119,18.119,0,0,0-3.378,1.115,15.753,15.753,0,0,1-13.129.033,16.792,16.792,0,0,0-13.922.08,15.356,15.356,0,0,1-12.83-.059,16.3,16.3,0,0,0-13.537-.1,15.661,15.661,0,0,1-13.4.023,13.9,13.9,0,0,0-5.3-1.323c-.588-.022-.749-.226-.739-.785.03-1.529.04-3.06,0-4.588-.019-.661.235-.826.834-.758a13.788,13.788,0,0,1,4.323,1.1,17.359,17.359,0,0,0,15.051.024,14.4,14.4,0,0,1,11.972.093,17.3,17.3,0,0,0,14.587,0,14.7,14.7,0,0,1,12.159-.016,17.351,17.351,0,0,0,14.6.007,15.921,15.921,0,0,1,4.508-1.2c.674-.087,1.013.069.948.842-.063.742-.014,1.494-.014,2.242Zm-27.028-1.062,0-.033c-.5.054-1.008.117-1.513.162-2.957.267-5.447,2.05-8.33,2.568-.552.1-.724.605-.579,1.128a.829.829,0,0,0,1.109.609,18.158,18.158,0,0,0,2.931-.821,22.263,22.263,0,0,1,3.611-1.359,11.925,11.925,0,0,1,3.318-.412c.748.045,1.367-.208,1.343-1.011s-.729-.855-1.376-.833C252.879,365.636,252.709,365.631,252.539,365.631Zm-13.389,2.846c-.605-.07-1.215.064-1.239.8s.508,1.037,1.231,1.041c.7,0,1.268-.2,1.272-.979S239.821,368.449,239.15,368.477Z" transform="translate(-10.996 -212.315)" fill="#fff" fill-rule="evenodd"/>
      <path id="Path_19841" data-name="Path 19841" d="M297.339,161.509c.012,3.976.032,7.951.035,11.926.006,6.627,0,13.254.01,19.881,0,.566-.042.977-.753,1.033q-8.176.646-16.35,1.324a4.358,4.358,0,0,1,.089-.7,130.55,130.55,0,0,1,5.341-15.012,68.951,68.951,0,0,1,8.514-15.312A10.793,10.793,0,0,1,297.339,161.509Z" transform="translate(-68.958 -65.295)" fill="#fff" fill-rule="evenodd"/>
      <path id="Path_19842" data-name="Path 19842" d="M274.728,311.118c.348-.841.654-1.7,1.049-2.518q3.551-7.358,7.134-14.7c.057-.117.089-.245.173-.477-1.212.21-2.394-.052-3.464.541-1.555-1.128-2.532-1.081-4.032.192-1.8-.033-3.583.283-5.375.407-1.688-1.331-2.889-1.216-4.372.417q-3.071.271-6.142.542c-1.815.158-3.631.3-5.445.464-2.854.257-5.705.535-8.559.785-1.849.163-3.7.276-5.55.441-2.752.245-5.5.524-8.254.773-1.815.164-3.633.288-5.447.45-2.82.251-5.637.535-8.458.776-1.346.115-2.7.163-4.047.242-.28-.8-.527-1.611-.852-2.39-.26-.623.014-.79.554-.836,2.569-.216,5.139-.425,7.707-.652,4.325-.382,8.648-.78,12.973-1.164,3.312-.294,6.625-.575,9.936-.869,4.393-.389,8.784-.792,13.176-1.177,4.191-.367,8.383-.71,12.574-1.08,4.223-.374,8.445-.77,12.667-1.151,1.825-.164,3.653-.3,5.475-.478.8-.079.935.109.569.854q-4.021,8.181-7.987,16.39c-.549,1.13-1.089,2.264-1.637,3.394-.147.3-.261.692-.645.729A9.432,9.432,0,0,1,274.728,311.118Z" transform="translate(-19.971 -158.57)" fill="#101010" fill-rule="evenodd"/>
      <path id="Path_19843" data-name="Path 19843" d="M370.191,155.793a73.822,73.822,0,0,0-2.925-9.49,107.837,107.837,0,0,0-5.357-12.177,82.3,82.3,0,0,0-8.631-13.486c-1.2-1.507-2.563-2.879-3.862-4.3-.223-.244-.427-.545-.819-.55V111.6c.442-.04.66.311.931.527a53.648,53.648,0,0,1,12.07,14.369,103.518,103.518,0,0,1,11.781,28.06c.192.739.147,1.113-.751,1.09C371.817,155.623,371,155.738,370.191,155.793Z" transform="translate(-118.691 -28.958)" fill="#fff" fill-rule="evenodd"/>
      <path id="Path_19844" data-name="Path 19844" d="M290.985,144.871a10.793,10.793,0,0,0-3.115,3.141,68.951,68.951,0,0,0-8.514,15.312,130.554,130.554,0,0,0-5.341,15.012,4.362,4.362,0,0,0-.089.7c-.4.039-.806.09-1.21.115-1.3.083-1.308.077-.994-1.134a122.457,122.457,0,0,1,11.185-29.167,38.5,38.5,0,0,1,6.745-9.148,4.786,4.786,0,0,1,1.332-1.049Z" transform="translate(-62.604 -48.657)" fill="#fff" fill-rule="evenodd"/>
      <path id="Path_19845" data-name="Path 19845" d="M357.961,81.555c-3.18,1.095-6.06,2.088-8.941,3.077-.425.146-.622.017-.617-.464q.022-2.65,0-5.3c-.005-.682.361-.472.724-.347C351.98,79.5,354.834,80.482,357.961,81.555Z" transform="translate(-118.548 -4.787)" fill="#101010" fill-rule="evenodd"/>
      <path id="Path_19846" data-name="Path 19846" d="M462.173,365.376l-.239.039.072-.218Z" transform="translate(-201.196 -213.574)" fill="#fefefe" fill-rule="evenodd"/>
      <path id="Path_19847" data-name="Path 19847" d="M441.724,303.573c1.5-1.273,2.477-1.32,4.032-.192a2.65,2.65,0,0,1,.32,3.194,2.515,2.515,0,0,1-2.569,1.269A2.686,2.686,0,0,1,441.724,303.573Zm3.309,1.658a1.145,1.145,0,0,0-1.2-1.2,1.2,1.2,0,0,0-.051,2.389C444.554,306.45,444.94,305.99,445.033,305.23Z" transform="translate(-186.108 -167.986)" fill="#fff" fill-rule="evenodd"/>
      <path id="Path_19848" data-name="Path 19848" d="M406.442,305.718c1.483-1.633,2.683-1.748,4.372-.417,1.025,1.909.494,3.728-1.253,4.249a2.523,2.523,0,0,1-2.707-.7A2.693,2.693,0,0,1,406.442,305.718Zm2.314,2.539a1.177,1.177,0,0,0,1.214-1.2,1.084,1.084,0,0,0-1.108-1.189,1.1,1.1,0,0,0-1.278,1.113C407.539,307.751,407.993,308.146,408.756,308.257Z" transform="translate(-160.573 -169.308)" fill="#fff" fill-rule="evenodd"/>
      <path id="Path_19849" data-name="Path 19849" d="M363.339,371.329c.17,0,.34,0,.51,0,.646-.022,1.352.029,1.376.833s-.6,1.055-1.343,1.011a11.925,11.925,0,0,0-3.318.412,22.259,22.259,0,0,0-3.611,1.359,18.164,18.164,0,0,1-2.931.821.829.829,0,0,1-1.109-.609c-.145-.523.027-1.029.579-1.128,2.884-.518,5.373-2.3,8.33-2.568.505-.046,1.009-.108,1.513-.162Z" transform="translate(-121.796 -218.013)" fill="#fbfcfd" fill-rule="evenodd"/>
      <path id="Path_19850" data-name="Path 19850" d="M338.839,381.836c.671-.028,1.267.1,1.264.867s-.574.982-1.272.979c-.723,0-1.254-.308-1.231-1.041S338.233,381.766,338.839,381.836Z" transform="translate(-110.684 -225.674)" fill="#f7fbfb" fill-rule="evenodd"/>
      <path id="Path_19851" data-name="Path 19851" d="M448.92,309.117c-.093.76-.479,1.22-1.247,1.185a1.2,1.2,0,0,1,.051-2.389A1.145,1.145,0,0,1,448.92,309.117Z" transform="translate(-189.995 -171.873)" fill="#101010" fill-rule="evenodd"/>
      <path id="Path_19852" data-name="Path 19852" d="M412.637,312.212c-.762-.111-1.217-.507-1.172-1.275a1.1,1.1,0,0,1,1.278-1.113,1.084,1.084,0,0,1,1.108,1.189A1.177,1.177,0,0,1,412.637,312.212Z" transform="translate(-164.454 -173.263)" fill="#101010" fill-rule="evenodd"/>
    </g>
  </g>
</svg>
